<svg xmlns="http://www.w3.org/2000/svg" xmlns:xlink="http://www.w3.org/1999/xlink" width="500" zoomAndPan="magnify" viewBox="0 0 375 374.999991" height="500" preserveAspectRatio="xMidYMid meet" version="1.0"><defs><clipPath id="89af5e074a"><path d="M 303 221 L 333.1875 221 L 333.1875 251 L 303 251 Z M 303 221 " clip-rule="nonzero"/></clipPath><clipPath id="faf7a99132"><path d="M 42.1875 221 L 73 221 L 73 251 L 42.1875 251 Z M 42.1875 221 " clip-rule="nonzero"/></clipPath></defs><rect x="-37.5" width="450" fill="#ffffff" y="-37.499999" height="449.999989" fill-opacity="1"/><rect x="-37.5" width="450" fill="#ffffff" y="-37.499999" height="449.999989" fill-opacity="1"/><path fill="#76bedd" d="M 134.023438 162.308594 C 134.023438 160.0625 132.199219 158.230469 129.941406 158.230469 C 127.6875 158.230469 125.855469 160.050781 125.855469 162.308594 L 125.855469 268.585938 L 110.277344 268.585938 C 108.027344 268.585938 106.195312 270.40625 106.195312 272.664062 C 106.195312 274.914062 108.019531 276.746094 110.277344 276.746094 L 129.929688 276.746094 C 132.183594 276.746094 134.015625 274.921875 134.015625 272.664062 L 134.015625 162.308594 Z M 134.023438 162.308594 " fill-opacity="1" fill-rule="nonzero"/><path fill="#76bedd" d="M 249.441406 162.308594 C 249.441406 160.0625 247.617188 158.230469 245.355469 158.230469 C 243.105469 158.230469 241.273438 160.050781 241.273438 162.308594 L 241.273438 272.664062 C 241.273438 274.914062 243.097656 276.746094 245.355469 276.746094 L 265.007812 276.746094 C 267.261719 276.746094 269.09375 274.921875 269.09375 272.664062 C 269.09375 270.417969 267.269531 268.585938 265.007812 268.585938 L 249.433594 268.585938 L 249.433594 162.308594 Z M 249.441406 162.308594 " fill-opacity="1" fill-rule="nonzero"/><path fill="#76bedd" d="M 307.363281 240.191406 C 309.617188 240.191406 311.449219 238.367188 311.449219 236.109375 C 311.449219 233.863281 309.625 232.03125 307.363281 232.03125 L 276.351562 232.03125 L 276.351562 162.300781 C 276.351562 160.050781 274.527344 158.21875 272.265625 158.21875 C 270.015625 158.21875 268.183594 160.042969 268.183594 162.300781 L 268.183594 236.109375 C 268.183594 238.359375 270.007812 240.191406 272.265625 240.191406 Z M 307.363281 240.191406 " fill-opacity="1" fill-rule="nonzero"/><g clip-path="url(#89af5e074a)"><path fill="#ef5350" d="M 328.683594 246.632812 C 325.992188 249.324219 322.269531 250.988281 318.160156 250.988281 C 314.046875 250.988281 310.328125 249.324219 307.632812 246.632812 C 304.9375 243.941406 303.269531 240.226562 303.269531 236.121094 C 303.269531 232.015625 304.9375 228.296875 307.632812 225.609375 C 310.328125 222.917969 314.046875 221.25 318.160156 221.25 C 322.269531 221.25 325.992188 222.917969 328.683594 225.609375 C 331.378906 228.296875 333.046875 232.015625 333.046875 236.121094 C 333.046875 240.226562 331.378906 243.941406 328.683594 246.632812 Z M 328.683594 246.632812 " fill-opacity="1" fill-rule="nonzero"/></g><path fill="#76bedd" d="M 67.941406 232.039062 C 65.691406 232.039062 63.855469 233.863281 63.855469 236.121094 C 63.855469 238.367188 65.679688 240.199219 67.941406 240.199219 L 103.039062 240.199219 C 105.289062 240.199219 107.125 238.375 107.125 236.121094 L 107.125 162.308594 C 107.125 160.0625 105.296875 158.230469 103.039062 158.230469 C 100.789062 158.230469 98.953125 160.050781 98.953125 162.308594 L 98.953125 232.039062 Z M 67.941406 232.039062 " fill-opacity="1" fill-rule="nonzero"/><path fill="#98db7c" d="M 99.492188 287.527344 C 95.382812 287.527344 91.660156 285.859375 88.964844 283.167969 C 86.273438 280.476562 84.601562 276.761719 84.601562 272.65625 C 84.601562 268.550781 86.273438 264.835938 88.964844 262.144531 C 91.660156 259.453125 95.382812 257.785156 99.492188 257.785156 C 103.601562 257.785156 107.324219 259.453125 110.019531 262.144531 C 112.710938 264.835938 114.382812 268.550781 114.382812 272.65625 C 114.382812 276.761719 112.710938 280.476562 110.019531 283.167969 C 107.324219 285.859375 103.59375 287.527344 99.492188 287.527344 Z M 99.492188 287.527344 " fill-opacity="1" fill-rule="nonzero"/><path fill="#76bedd" d="M 191.738281 162.308594 C 191.738281 160.0625 189.914062 158.230469 187.652344 158.230469 C 185.402344 158.230469 183.566406 160.050781 183.566406 162.308594 L 183.566406 349.382812 C 183.566406 351.632812 185.394531 353.464844 187.652344 353.464844 C 189.902344 353.464844 191.738281 351.640625 191.738281 349.382812 Z M 191.738281 162.308594 " fill-opacity="1" fill-rule="nonzero"/><g clip-path="url(#faf7a99132)"><path fill="#ef5350" d="M 57.136719 250.980469 C 53.027344 250.980469 49.304688 249.3125 46.613281 246.625 C 43.917969 243.933594 42.25 240.21875 42.25 236.109375 C 42.25 232.003906 43.917969 228.289062 46.613281 225.597656 C 49.304688 222.90625 53.027344 221.242188 57.136719 221.242188 C 61.25 221.242188 64.96875 222.90625 67.664062 225.597656 C 70.359375 228.289062 72.027344 232.003906 72.027344 236.109375 C 72.027344 240.21875 70.359375 243.933594 67.664062 246.625 C 64.96875 249.3125 61.25 250.980469 57.136719 250.980469 Z M 57.136719 250.980469 " fill-opacity="1" fill-rule="nonzero"/></g><path fill="#76bedd" d="M 160.933594 162.308594 C 160.933594 160.0625 159.109375 158.230469 156.847656 158.230469 C 154.597656 158.230469 152.765625 160.050781 152.765625 162.308594 L 152.765625 305.128906 L 137.1875 305.128906 C 134.9375 305.128906 133.101562 306.953125 133.101562 309.210938 C 133.101562 311.457031 134.929688 313.289062 137.1875 313.289062 L 156.839844 313.289062 C 159.089844 313.289062 160.925781 311.46875 160.925781 309.210938 L 160.925781 162.308594 Z M 160.933594 162.308594 " fill-opacity="1" fill-rule="nonzero"/><path fill="#ef5350" d="M 126.402344 324.070312 C 122.289062 324.070312 118.570312 322.40625 115.875 319.714844 C 113.183594 317.023438 111.511719 313.308594 111.511719 309.203125 C 111.511719 305.09375 113.183594 301.378906 115.875 298.6875 C 118.570312 296 122.289062 294.332031 126.402344 294.332031 C 130.511719 294.332031 134.234375 296 136.925781 298.6875 C 139.621094 301.378906 141.289062 305.09375 141.289062 309.203125 C 141.289062 313.308594 139.621094 317.023438 136.925781 319.714844 C 134.234375 322.40625 130.503906 324.070312 126.402344 324.070312 Z M 126.402344 324.070312 " fill-opacity="1" fill-rule="nonzero"/><path fill="#98db7c" d="M 286.339844 283.167969 C 283.644531 285.859375 279.925781 287.527344 275.8125 287.527344 C 271.703125 287.527344 267.980469 285.859375 265.289062 283.167969 C 262.59375 280.476562 260.925781 276.761719 260.925781 272.65625 C 260.925781 268.550781 262.59375 264.835938 265.289062 262.144531 C 267.980469 259.453125 271.703125 257.785156 275.8125 257.785156 C 279.925781 257.785156 283.644531 259.453125 286.339844 262.144531 C 289.035156 264.835938 290.703125 268.550781 290.703125 272.65625 C 290.695312 276.761719 289.035156 280.484375 286.339844 283.167969 Z M 286.339844 283.167969 " fill-opacity="1" fill-rule="nonzero"/><path fill="#76bedd" d="M 222.53125 162.308594 C 222.53125 160.0625 220.707031 158.230469 218.449219 158.230469 C 216.195312 158.230469 214.363281 160.050781 214.363281 162.308594 L 214.363281 309.203125 C 214.363281 311.449219 216.1875 313.28125 218.449219 313.28125 L 238.101562 313.28125 C 240.351562 313.28125 242.183594 311.457031 242.183594 309.203125 C 242.183594 306.953125 240.359375 305.121094 238.101562 305.121094 L 222.523438 305.121094 L 222.523438 162.308594 Z M 222.53125 162.308594 " fill-opacity="1" fill-rule="nonzero"/><path fill="#ef5350" d="M 259.429688 319.714844 C 256.734375 322.40625 253.015625 324.070312 248.902344 324.070312 C 244.792969 324.070312 241.070312 322.40625 238.378906 319.714844 C 235.683594 317.023438 234.015625 313.308594 234.015625 309.203125 C 234.015625 305.09375 235.683594 301.378906 238.378906 298.6875 C 241.074219 296 244.792969 294.332031 248.902344 294.332031 C 253.015625 294.332031 256.734375 296 259.429688 298.6875 C 262.125 301.378906 263.792969 305.09375 263.792969 309.203125 C 263.792969 313.308594 262.125 317.023438 259.429688 319.714844 Z M 259.429688 319.714844 " fill-opacity="1" fill-rule="nonzero"/><path fill="#98db7c" d="M 198.179688 370.675781 C 195.484375 373.367188 191.765625 375.035156 187.652344 375.035156 C 183.542969 375.035156 179.820312 373.367188 177.128906 370.675781 C 174.433594 367.984375 172.765625 364.269531 172.765625 360.164062 C 172.765625 356.058594 174.433594 352.34375 177.128906 349.652344 C 179.820312 346.960938 183.542969 345.304688 187.652344 345.304688 C 191.765625 345.304688 195.484375 346.96875 198.179688 349.652344 C 200.871094 352.34375 202.542969 356.058594 202.542969 360.164062 C 202.53125 364.28125 200.871094 367.996094 198.179688 370.675781 Z M 198.179688 370.675781 " fill-opacity="1" fill-rule="nonzero"/><path fill="#7baff2" d="M 98.554688 166.390625 C 85.316406 166.390625 73.339844 161.03125 64.664062 152.371094 C 55.988281 143.707031 50.628906 131.746094 50.628906 118.523438 C 50.628906 105.304688 55.988281 93.34375 64.664062 84.679688 C 73.339844 76.015625 85.316406 70.660156 98.554688 70.660156 C 99.03125 70.660156 99.597656 70.667969 100.230469 70.695312 C 103.601562 62.238281 109.324219 54.964844 116.589844 49.6875 C 124.515625 43.921875 134.25 40.519531 144.757812 40.519531 C 148.277344 40.519531 151.722656 40.902344 155.03125 41.632812 C 156.894531 42.039062 158.726562 42.5625 160.5 43.175781 C 164.53125 31.214844 172.042969 20.851562 181.820312 13.289062 C 192.5625 4.984375 206.035156 0.0351562 220.65625 0.0351562 C 238.1875 0.0351562 254.058594 7.136719 265.546875 18.601562 C 277.039062 30.078125 284.140625 45.929688 284.140625 63.4375 C 284.140625 65.390625 284.035156 67.429688 283.835938 69.523438 C 283.785156 70.078125 283.722656 70.625 283.660156 71.164062 C 294.550781 72.734375 304.261719 77.960938 311.492188 85.554688 C 319.671875 94.148438 324.6875 105.753906 324.6875 118.523438 C 324.6875 131.746094 319.324219 143.707031 310.648438 152.371094 C 301.976562 161.03125 290 166.390625 276.761719 166.390625 Z M 98.554688 166.390625 " fill-opacity="1" fill-rule="nonzero"/><path fill="#ffffff" d="M 126.808594 138.488281 C 126.808594 140.738281 128.636719 142.570312 130.894531 142.570312 C 133.148438 142.570312 134.980469 140.746094 134.980469 138.488281 L 134.980469 89.617188 C 134.980469 87.144531 135.996094 84.894531 137.632812 83.253906 C 139.265625 81.625 141.527344 80.609375 144.003906 80.609375 L 153.832031 80.609375 C 156.308594 80.609375 158.5625 81.625 160.203125 83.253906 C 161.839844 84.886719 162.855469 87.144531 162.855469 89.617188 L 162.855469 138.488281 C 162.855469 140.738281 164.679688 142.570312 166.941406 142.570312 C 169.199219 142.570312 171.023438 140.746094 171.023438 138.488281 L 171.023438 89.617188 C 171.023438 84.894531 169.097656 80.597656 165.984375 77.492188 C 162.871094 74.382812 158.570312 72.457031 153.839844 72.457031 L 144.011719 72.457031 C 139.28125 72.457031 134.980469 74.382812 131.867188 77.492188 C 128.757812 80.597656 126.828125 84.894531 126.828125 89.617188 L 126.828125 138.488281 Z M 126.808594 138.488281 " fill-opacity="1" fill-rule="nonzero"/><path fill="#ffffff" d="M 248.496094 76.527344 C 248.496094 74.28125 246.667969 72.449219 244.410156 72.449219 C 242.160156 72.449219 240.324219 74.269531 240.324219 76.527344 L 240.324219 138.488281 C 240.324219 140.738281 242.148438 142.570312 244.410156 142.570312 C 246.660156 142.570312 248.496094 140.746094 248.496094 138.488281 Z M 248.496094 76.527344 " fill-opacity="1" fill-rule="nonzero"/><path fill="#ffffff" d="M 183.820312 138.488281 C 183.820312 140.738281 185.644531 142.570312 187.90625 142.570312 C 190.164062 142.570312 191.988281 140.746094 191.988281 138.488281 L 191.988281 77.863281 C 191.988281 75.617188 190.164062 73.785156 187.90625 73.785156 C 185.644531 73.785156 183.820312 75.609375 183.820312 77.863281 Z M 183.820312 138.488281 " fill-opacity="1" fill-rule="nonzero"/><path fill="#ffffff" d="M 130.894531 103.4375 C 128.644531 103.4375 126.808594 105.261719 126.808594 107.515625 C 126.808594 109.765625 128.636719 111.597656 130.894531 111.597656 L 166.929688 111.597656 C 169.183594 111.597656 171.015625 109.773438 171.015625 107.515625 C 171.015625 105.269531 169.191406 103.4375 166.929688 103.4375 Z M 130.894531 103.4375 " fill-opacity="1" fill-rule="nonzero"/><path fill="#ffffff" d="M 187.894531 73.785156 C 185.644531 73.785156 183.8125 75.609375 183.8125 77.863281 C 183.8125 80.113281 185.636719 81.945312 187.894531 81.945312 L 208.0625 81.945312 C 211.695312 81.945312 214.996094 83.429688 217.394531 85.824219 C 219.792969 88.21875 221.28125 91.519531 221.28125 95.148438 C 221.28125 98.777344 219.792969 102.074219 217.394531 104.46875 C 214.996094 106.867188 211.695312 108.351562 208.0625 108.351562 L 187.894531 108.351562 C 185.644531 108.351562 183.8125 110.171875 183.8125 112.429688 C 183.8125 114.6875 185.636719 116.511719 187.894531 116.511719 L 208.0625 116.511719 C 213.945312 116.511719 219.289062 114.105469 223.167969 110.242188 C 227.042969 106.371094 229.441406 101.03125 229.441406 95.15625 C 229.441406 89.28125 227.035156 83.941406 223.167969 80.070312 C 219.289062 76.199219 213.945312 73.800781 208.0625 73.800781 L 187.894531 73.800781 Z M 187.894531 73.785156 " fill-opacity="1" fill-rule="nonzero"/></svg>