<svg xmlns="http://www.w3.org/2000/svg" xmlns:xlink="http://www.w3.org/1999/xlink" width="500" zoomAndPan="magnify" viewBox="0 0 375 374.999991" height="500" preserveAspectRatio="xMidYMid meet" version="1.0"><defs><clipPath id="66b2cb958f"><path d="M 202 17.671875 L 223 17.671875 L 223 38 L 202 38 Z M 202 17.671875 " clip-rule="nonzero"/></clipPath><clipPath id="4a6bfecd1d"><path d="M 91 17.671875 L 112 17.671875 L 112 38 L 91 38 Z M 91 17.671875 " clip-rule="nonzero"/></clipPath><clipPath id="83b04eb82c"><path d="M 202 340 L 223 340 L 223 360.421875 L 202 360.421875 Z M 202 340 " clip-rule="nonzero"/></clipPath><clipPath id="710b796ece"><path d="M 91 340 L 112 340 L 112 360.421875 L 91 360.421875 Z M 91 340 " clip-rule="nonzero"/></clipPath></defs><rect x="-37.5" width="450" fill="#ffffff" y="-37.499999" height="449.999989" fill-opacity="1"/><rect x="-37.5" width="450" fill="#ffffff" y="-37.499999" height="449.999989" fill-opacity="1"/><path fill="#424242" d="M 265.136719 255.574219 C 265.363281 255.40625 265.605469 255.261719 265.863281 255.144531 C 265.867188 255.140625 265.871094 255.140625 265.871094 255.140625 C 272.191406 251.414062 278.136719 247.398438 283.703125 243.238281 C 283.703125 243.238281 283.703125 243.234375 283.703125 243.238281 C 283.875 243.078125 284.0625 242.9375 284.257812 242.8125 C 284.265625 242.808594 284.273438 242.808594 284.28125 242.800781 C 295.207031 234.578125 304.65625 225.789062 312.550781 217.476562 L 326.257812 201.753906 C 329.730469 197.410156 332.488281 193.636719 334.5 190.757812 L 249.585938 190.757812 C 248.648438 206.632812 242.035156 221.429688 230.734375 232.773438 C 218.496094 245.054688 202.226562 251.816406 184.917969 251.816406 C 167.609375 251.816406 151.335938 245.054688 139.101562 232.773438 C 127.800781 221.429688 121.1875 206.632812 120.246094 190.757812 L 34.648438 190.757812 C 36.660156 193.636719 39.417969 197.410156 42.890625 201.753906 L 56.597656 217.476562 C 64.289062 225.578125 73.457031 234.125 84.03125 242.171875 C 84.039062 242.179688 84.050781 242.183594 84.058594 242.191406 C 84.285156 242.328125 84.496094 242.488281 84.6875 242.667969 C 84.695312 242.671875 84.699219 242.679688 84.707031 242.683594 C 90.484375 247.039062 96.675781 251.246094 103.277344 255.140625 C 103.277344 255.140625 103.28125 255.140625 103.28125 255.144531 C 103.542969 255.261719 103.785156 255.40625 104.011719 255.574219 C 104.011719 255.574219 104.015625 255.578125 104.019531 255.578125 C 126.398438 268.65625 153.386719 278.148438 184.574219 278.152344 C 215.761719 278.148438 242.75 268.65625 265.128906 255.578125 C 265.132812 255.578125 265.136719 255.574219 265.136719 255.574219 Z M 265.136719 255.574219 " fill-opacity="1" fill-rule="nonzero"/><path fill="#64b5f6" d="M 184.917969 129.695312 C 153.546875 129.695312 128.023438 155.316406 128.023438 186.804688 L 128.023438 186.808594 C 128.027344 218.300781 153.546875 243.921875 184.917969 243.921875 C 216.285156 243.921875 241.808594 218.300781 241.8125 186.808594 C 241.8125 155.316406 216.289062 129.695312 184.917969 129.695312 Z M 215.734375 186.808594 C 215.730469 203.855469 201.90625 217.722656 184.917969 217.722656 C 167.925781 217.722656 154.101562 203.855469 154.097656 186.8125 L 154.097656 186.808594 C 154.097656 169.761719 167.921875 155.890625 184.917969 155.890625 C 201.910156 155.890625 215.734375 169.761719 215.734375 186.804688 Z M 215.734375 186.808594 " fill-opacity="1" fill-rule="nonzero"/><path fill="#424242" d="M 34.660156 182.859375 L 120.246094 182.859375 C 121.1875 166.980469 127.796875 152.1875 139.097656 140.84375 C 151.335938 128.5625 167.609375 121.796875 184.917969 121.796875 C 202.226562 121.796875 218.496094 128.5625 230.734375 140.84375 C 242.035156 152.1875 248.648438 166.980469 249.585938 182.859375 L 334.492188 182.859375 C 328.550781 174.375 316.082031 158.082031 297.882812 141.957031 C 273.945312 120.75 234.855469 95.464844 184.574219 95.457031 C 134.292969 95.464844 95.203125 120.75 71.265625 141.957031 C 53.066406 158.082031 40.597656 174.375 34.660156 182.859375 Z M 34.660156 182.859375 " fill-opacity="1" fill-rule="nonzero"/><path fill="#424242" d="M 184.917969 163.789062 C 172.277344 163.789062 161.992188 174.113281 161.992188 186.804688 C 161.996094 199.5 172.277344 209.824219 184.917969 209.824219 C 197.554688 209.824219 207.835938 199.5 207.839844 186.808594 L 207.839844 186.804688 C 207.839844 174.113281 197.554688 163.789062 184.917969 163.789062 Z M 184.917969 163.789062 " fill-opacity="1" fill-rule="nonzero"/><path fill="#424242" d="M 36.738281 265.808594 C 33.679688 265.808594 31.191406 268.3125 31.191406 271.394531 C 31.191406 274.472656 33.679688 276.980469 36.738281 276.980469 C 39.796875 276.980469 42.285156 274.472656 42.285156 271.394531 C 42.285156 268.3125 39.796875 265.808594 36.738281 265.808594 Z M 36.738281 265.808594 " fill-opacity="1" fill-rule="nonzero"/><path fill="#424242" d="M 332.410156 107.808594 C 335.46875 107.808594 337.957031 105.300781 337.957031 102.222656 C 337.957031 99.140625 335.46875 96.632812 332.410156 96.632812 C 329.351562 96.632812 326.863281 99.140625 326.863281 102.222656 C 326.863281 105.304688 329.351562 107.808594 332.410156 107.808594 Z M 332.410156 107.808594 " fill-opacity="1" fill-rule="nonzero"/><path fill="#64b5f6" d="M 371.039062 284.449219 L 322.980469 284.449219 C 310.898438 284.449219 302.523438 280.832031 297.371094 273.378906 C 293.382812 267.613281 291.15625 259.527344 290.410156 248.054688 C 287.949219 249.9375 285.464844 251.753906 282.957031 253.503906 C 284.984375 271.886719 292.621094 292.347656 322.980469 292.347656 L 371.039062 292.347656 C 373.222656 292.347656 374.988281 290.578125 374.988281 288.398438 C 374.988281 286.21875 373.222656 284.449219 371.039062 284.449219 Z M 371.039062 284.449219 " fill-opacity="1" fill-rule="nonzero"/><path fill="#64b5f6" d="M 329.695312 265.09375 C 329.695312 267.273438 331.460938 269.042969 333.640625 269.042969 L 371.039062 269.042969 C 373.222656 269.042969 374.988281 267.273438 374.988281 265.09375 C 374.988281 262.914062 373.222656 261.144531 371.039062 261.144531 L 333.640625 261.144531 C 331.460938 261.144531 329.695312 262.914062 329.695312 265.09375 Z M 329.695312 265.09375 " fill-opacity="1" fill-rule="nonzero"/><path fill="#64b5f6" d="M 54.777344 115.023438 C 54.777344 112.84375 53.011719 111.074219 50.832031 111.074219 L 3.933594 111.074219 C 1.753906 111.074219 -0.0117188 112.84375 -0.0117188 115.023438 C -0.0117188 117.203125 1.753906 118.972656 3.933594 118.972656 L 50.828125 118.972656 C 53.011719 118.972656 54.777344 117.203125 54.777344 115.023438 Z M 54.777344 115.023438 " fill-opacity="1" fill-rule="nonzero"/><path fill="#64b5f6" d="M 3.933594 95.664062 L 52.289062 95.664062 C 70.503906 95.664062 80.261719 103.789062 83.648438 121.925781 C 85.980469 120.246094 88.324219 118.625 90.6875 117.0625 C 88.785156 109.15625 85.652344 102.984375 81.199219 98.3125 C 74.519531 91.316406 64.792969 87.769531 52.289062 87.769531 L 3.933594 87.769531 C 1.753906 87.769531 -0.0117188 89.539062 -0.0117188 91.71875 C -0.0117188 93.898438 1.753906 95.664062 3.933594 95.664062 Z M 3.933594 95.664062 " fill-opacity="1" fill-rule="nonzero"/><path fill="#424242" d="M 277.371094 48.402344 C 277.371094 49.054688 277.308594 49.699219 277.183594 50.335938 C 277.054688 50.976562 276.867188 51.59375 276.621094 52.195312 C 276.371094 52.796875 276.066406 53.367188 275.707031 53.910156 C 275.347656 54.449219 274.9375 54.949219 274.480469 55.410156 C 274.019531 55.871094 273.523438 56.28125 272.984375 56.644531 C 272.445312 57.003906 271.875 57.308594 271.277344 57.558594 C 270.679688 57.808594 270.058594 57.996094 269.425781 58.125 C 268.789062 58.25 268.148438 58.3125 267.5 58.3125 C 266.851562 58.3125 266.207031 58.25 265.570312 58.125 C 264.9375 57.996094 264.320312 57.808594 263.71875 57.558594 C 263.121094 57.308594 262.550781 57.003906 262.011719 56.644531 C 261.472656 56.28125 260.976562 55.871094 260.515625 55.410156 C 260.058594 54.949219 259.648438 54.449219 259.289062 53.910156 C 258.929688 53.367188 258.625 52.796875 258.375 52.195312 C 258.128906 51.59375 257.941406 50.976562 257.816406 50.335938 C 257.6875 49.699219 257.625 49.054688 257.625 48.402344 C 257.625 47.753906 257.6875 47.109375 257.816406 46.46875 C 257.941406 45.832031 258.128906 45.210938 258.375 44.609375 C 258.625 44.007812 258.929688 43.4375 259.289062 42.898438 C 259.648438 42.355469 260.058594 41.855469 260.515625 41.394531 C 260.976562 40.933594 261.472656 40.523438 262.011719 40.164062 C 262.550781 39.800781 263.121094 39.496094 263.71875 39.246094 C 264.320312 39 264.9375 38.808594 265.570312 38.683594 C 266.207031 38.554688 266.851562 38.492188 267.5 38.492188 C 268.148438 38.492188 268.789062 38.554688 269.425781 38.683594 C 270.058594 38.808594 270.679688 39 271.277344 39.246094 C 271.875 39.496094 272.445312 39.800781 272.984375 40.164062 C 273.523438 40.523438 274.019531 40.933594 274.480469 41.394531 C 274.9375 41.855469 275.347656 42.355469 275.707031 42.898438 C 276.066406 43.4375 276.371094 44.007812 276.621094 44.609375 C 276.867188 45.210938 277.054688 45.832031 277.183594 46.46875 C 277.308594 47.109375 277.371094 47.753906 277.371094 48.402344 Z M 277.371094 48.402344 " fill-opacity="1" fill-rule="nonzero"/><g clip-path="url(#66b2cb958f)"><path fill="#424242" d="M 212.214844 37.523438 C 217.660156 37.523438 222.089844 33.078125 222.089844 27.613281 C 222.089844 22.148438 217.660156 17.703125 212.214844 17.703125 C 206.769531 17.703125 202.34375 22.148438 202.34375 27.613281 C 202.34375 33.078125 206.769531 37.523438 212.214844 37.523438 Z M 212.214844 37.523438 " fill-opacity="1" fill-rule="nonzero"/></g><path fill="#424242" d="M 166.804688 48.402344 C 166.804688 49.054688 166.742188 49.699219 166.617188 50.335938 C 166.488281 50.976562 166.300781 51.59375 166.054688 52.195312 C 165.804688 52.796875 165.503906 53.367188 165.140625 53.910156 C 164.78125 54.449219 164.371094 54.949219 163.914062 55.410156 C 163.457031 55.871094 162.957031 56.28125 162.417969 56.644531 C 161.878906 57.003906 161.308594 57.308594 160.710938 57.558594 C 160.113281 57.808594 159.496094 57.996094 158.859375 58.125 C 158.222656 58.25 157.582031 58.3125 156.933594 58.3125 C 156.285156 58.3125 155.640625 58.25 155.007812 58.125 C 154.371094 57.996094 153.753906 57.808594 153.15625 57.558594 C 152.554688 57.308594 151.988281 57.003906 151.449219 56.644531 C 150.910156 56.28125 150.410156 55.871094 149.953125 55.410156 C 149.492188 54.949219 149.082031 54.449219 148.722656 53.910156 C 148.363281 53.367188 148.058594 52.796875 147.8125 52.195312 C 147.5625 51.59375 147.375 50.976562 147.25 50.335938 C 147.121094 49.699219 147.058594 49.054688 147.058594 48.402344 C 147.058594 47.753906 147.121094 47.109375 147.25 46.46875 C 147.375 45.832031 147.5625 45.210938 147.8125 44.609375 C 148.058594 44.007812 148.363281 43.4375 148.722656 42.898438 C 149.082031 42.355469 149.492188 41.855469 149.953125 41.394531 C 150.410156 40.933594 150.910156 40.523438 151.449219 40.164062 C 151.988281 39.800781 152.554688 39.496094 153.152344 39.246094 C 153.753906 39 154.371094 38.808594 155.007812 38.683594 C 155.640625 38.554688 156.285156 38.492188 156.933594 38.492188 C 157.582031 38.492188 158.222656 38.554688 158.859375 38.683594 C 159.496094 38.808594 160.113281 39 160.710938 39.246094 C 161.308594 39.496094 161.878906 39.800781 162.417969 40.164062 C 162.957031 40.523438 163.457031 40.933594 163.914062 41.394531 C 164.371094 41.855469 164.78125 42.355469 165.140625 42.898438 C 165.503906 43.4375 165.804688 44.007812 166.054688 44.609375 C 166.300781 45.210938 166.488281 45.832031 166.617188 46.46875 C 166.742188 47.109375 166.804688 47.753906 166.804688 48.402344 Z M 166.804688 48.402344 " fill-opacity="1" fill-rule="nonzero"/><path fill="#64b5f6" d="M 156.933594 66.210938 C 155.574219 66.210938 154.253906 66.058594 152.984375 65.765625 L 152.984375 90.734375 C 155.609375 90.203125 158.242188 89.738281 160.878906 89.339844 L 160.878906 65.765625 C 159.609375 66.058594 158.289062 66.210938 156.933594 66.210938 Z M 156.933594 66.210938 " fill-opacity="1" fill-rule="nonzero"/><path fill="#64b5f6" d="M 208.269531 44.976562 L 208.269531 89.339844 C 210.90625 89.738281 213.539062 90.203125 216.164062 90.734375 L 216.164062 44.976562 C 214.890625 45.269531 213.574219 45.421875 212.214844 45.421875 C 210.859375 45.421875 209.539062 45.269531 208.269531 44.976562 Z M 208.269531 44.976562 " fill-opacity="1" fill-rule="nonzero"/><path fill="#64b5f6" d="M 101.648438 45.421875 C 100.292969 45.421875 98.972656 45.269531 97.703125 44.976562 L 97.703125 112.632812 C 100.316406 111.054688 102.949219 109.550781 105.597656 108.121094 L 105.597656 44.976562 C 104.328125 45.269531 103.007812 45.421875 101.648438 45.421875 Z M 101.648438 45.421875 " fill-opacity="1" fill-rule="nonzero"/><path fill="#64b5f6" d="M 263.550781 65.765625 L 263.550781 108.121094 C 266.199219 109.550781 268.832031 111.054688 271.445312 112.632812 L 271.445312 65.765625 C 270.175781 66.058594 268.855469 66.210938 267.5 66.210938 C 266.140625 66.210938 264.820312 66.058594 263.550781 65.765625 Z M 263.550781 65.765625 " fill-opacity="1" fill-rule="nonzero"/><path fill="#64b5f6" d="M 319.578125 106.25 C 319.183594 104.976562 318.96875 103.625 318.96875 102.222656 C 318.96875 100.878906 319.164062 99.574219 319.53125 98.347656 C 308.707031 98.835938 300.15625 101.71875 294.070312 106.933594 C 289.769531 110.621094 286.691406 115.382812 284.75 121.386719 C 287.019531 123.007812 289.277344 124.6875 291.515625 126.425781 C 293.734375 117.035156 299.515625 107.21875 319.578125 106.25 Z M 319.578125 106.25 " fill-opacity="1" fill-rule="nonzero"/><g clip-path="url(#4a6bfecd1d)"><path fill="#424242" d="M 101.648438 37.523438 C 107.09375 37.523438 111.523438 33.078125 111.523438 27.613281 C 111.523438 22.148438 107.09375 17.703125 101.648438 17.703125 C 96.207031 17.703125 91.777344 22.148438 91.777344 27.613281 C 91.777344 33.078125 96.207031 37.523438 101.648438 37.523438 Z M 101.648438 37.523438 " fill-opacity="1" fill-rule="nonzero"/></g><path fill="#424242" d="M 277.371094 329.714844 C 277.371094 330.367188 277.308594 331.011719 277.183594 331.648438 C 277.054688 332.285156 276.867188 332.90625 276.621094 333.507812 C 276.371094 334.109375 276.066406 334.679688 275.707031 335.222656 C 275.347656 335.761719 274.9375 336.261719 274.480469 336.722656 C 274.019531 337.183594 273.523438 337.59375 272.984375 337.957031 C 272.445312 338.316406 271.875 338.621094 271.277344 338.871094 C 270.679688 339.121094 270.058594 339.308594 269.425781 339.433594 C 268.789062 339.5625 268.148438 339.625 267.5 339.625 C 266.851562 339.625 266.207031 339.5625 265.570312 339.433594 C 264.9375 339.308594 264.320312 339.121094 263.71875 338.871094 C 263.121094 338.621094 262.550781 338.316406 262.011719 337.957031 C 261.472656 337.59375 260.976562 337.183594 260.515625 336.722656 C 260.058594 336.261719 259.648438 335.761719 259.289062 335.222656 C 258.929688 334.679688 258.625 334.109375 258.375 333.507812 C 258.128906 332.90625 257.941406 332.285156 257.816406 331.648438 C 257.6875 331.011719 257.625 330.367188 257.625 329.714844 C 257.625 329.0625 257.6875 328.417969 257.816406 327.78125 C 257.941406 327.144531 258.128906 326.523438 258.375 325.921875 C 258.625 325.320312 258.929688 324.75 259.289062 324.207031 C 259.648438 323.667969 260.058594 323.167969 260.515625 322.707031 C 260.976562 322.246094 261.472656 321.835938 262.011719 321.472656 C 262.550781 321.113281 263.121094 320.808594 263.71875 320.558594 C 264.320312 320.308594 264.9375 320.121094 265.570312 319.996094 C 266.207031 319.867188 266.851562 319.804688 267.5 319.804688 C 268.148438 319.804688 268.789062 319.867188 269.425781 319.996094 C 270.058594 320.121094 270.679688 320.308594 271.277344 320.558594 C 271.875 320.808594 272.445312 321.113281 272.984375 321.472656 C 273.523438 321.835938 274.019531 322.246094 274.480469 322.707031 C 274.9375 323.167969 275.347656 323.667969 275.707031 324.207031 C 276.066406 324.75 276.371094 325.320312 276.621094 325.921875 C 276.867188 326.523438 277.054688 327.144531 277.183594 327.78125 C 277.308594 328.417969 277.371094 329.0625 277.371094 329.714844 Z M 277.371094 329.714844 " fill-opacity="1" fill-rule="nonzero"/><g clip-path="url(#83b04eb82c)"><path fill="#424242" d="M 212.214844 340.59375 C 206.769531 340.59375 202.34375 345.039062 202.34375 350.507812 C 202.34375 355.96875 206.769531 360.417969 212.214844 360.417969 C 217.660156 360.417969 222.089844 355.96875 222.089844 350.507812 C 222.089844 345.039062 217.660156 340.59375 212.214844 340.59375 Z M 212.214844 340.59375 " fill-opacity="1" fill-rule="nonzero"/></g><path fill="#424242" d="M 166.804688 329.714844 C 166.804688 330.367188 166.742188 331.011719 166.617188 331.648438 C 166.488281 332.285156 166.300781 332.90625 166.054688 333.507812 C 165.804688 334.109375 165.503906 334.679688 165.140625 335.222656 C 164.78125 335.761719 164.371094 336.261719 163.914062 336.722656 C 163.457031 337.183594 162.957031 337.59375 162.417969 337.957031 C 161.878906 338.316406 161.308594 338.621094 160.710938 338.871094 C 160.113281 339.121094 159.496094 339.308594 158.859375 339.433594 C 158.222656 339.5625 157.582031 339.625 156.933594 339.625 C 156.285156 339.625 155.640625 339.5625 155.007812 339.433594 C 154.371094 339.308594 153.753906 339.121094 153.15625 338.871094 C 152.554688 338.621094 151.988281 338.316406 151.449219 337.957031 C 150.910156 337.59375 150.410156 337.183594 149.953125 336.722656 C 149.492188 336.261719 149.082031 335.761719 148.722656 335.222656 C 148.363281 334.679688 148.058594 334.109375 147.8125 333.507812 C 147.5625 332.90625 147.375 332.285156 147.25 331.648438 C 147.121094 331.011719 147.058594 330.367188 147.058594 329.714844 C 147.058594 329.0625 147.121094 328.417969 147.25 327.78125 C 147.375 327.144531 147.5625 326.523438 147.8125 325.921875 C 148.058594 325.320312 148.363281 324.75 148.722656 324.207031 C 149.082031 323.667969 149.492188 323.167969 149.953125 322.707031 C 150.410156 322.246094 150.910156 321.835938 151.449219 321.472656 C 151.988281 321.113281 152.554688 320.808594 153.152344 320.558594 C 153.753906 320.308594 154.371094 320.121094 155.007812 319.996094 C 155.640625 319.867188 156.285156 319.804688 156.933594 319.804688 C 157.582031 319.804688 158.222656 319.867188 158.859375 319.996094 C 159.496094 320.121094 160.113281 320.308594 160.710938 320.558594 C 161.308594 320.808594 161.878906 321.113281 162.417969 321.472656 C 162.957031 321.835938 163.457031 322.246094 163.914062 322.707031 C 164.371094 323.167969 164.78125 323.667969 165.140625 324.207031 C 165.503906 324.75 165.804688 325.320312 166.054688 325.921875 C 166.300781 326.523438 166.488281 327.144531 166.617188 327.78125 C 166.742188 328.417969 166.804688 329.0625 166.804688 329.714844 Z M 166.804688 329.714844 " fill-opacity="1" fill-rule="nonzero"/><path fill="#64b5f6" d="M 105.597656 333.140625 L 105.597656 265.496094 C 105.222656 265.292969 104.84375 265.089844 104.46875 264.882812 C 102.199219 263.636719 99.941406 262.335938 97.703125 260.984375 L 97.703125 333.140625 C 98.972656 332.847656 100.292969 332.695312 101.648438 332.695312 C 103.007812 332.695312 104.328125 332.847656 105.597656 333.140625 Z M 105.597656 333.140625 " fill-opacity="1" fill-rule="nonzero"/><path fill="#64b5f6" d="M 212.214844 332.695312 C 213.574219 332.695312 214.890625 332.847656 216.164062 333.140625 L 216.164062 282.882812 C 213.539062 283.414062 210.90625 283.878906 208.269531 284.273438 L 208.269531 333.140625 C 209.539062 332.847656 210.859375 332.695312 212.214844 332.695312 Z M 212.214844 332.695312 " fill-opacity="1" fill-rule="nonzero"/><path fill="#64b5f6" d="M 160.878906 312.351562 L 160.878906 284.273438 C 158.238281 283.878906 155.609375 283.414062 152.984375 282.882812 L 152.984375 312.351562 C 154.253906 312.058594 155.574219 311.90625 156.933594 311.90625 C 158.289062 311.90625 159.609375 312.058594 160.878906 312.351562 Z M 160.878906 312.351562 " fill-opacity="1" fill-rule="nonzero"/><path fill="#64b5f6" d="M 263.550781 265.496094 L 263.550781 312.351562 C 264.820312 312.058594 266.140625 311.90625 267.5 311.90625 C 268.855469 311.90625 270.175781 312.058594 271.445312 312.351562 L 271.445312 260.984375 C 269.207031 262.335938 266.949219 263.636719 264.679688 264.882812 C 264.304688 265.089844 263.925781 265.292969 263.550781 265.496094 Z M 263.550781 265.496094 " fill-opacity="1" fill-rule="nonzero"/><path fill="#64b5f6" d="M 49.570312 267.367188 C 49.964844 268.640625 50.179688 269.992188 50.179688 271.394531 C 50.179688 272.738281 49.984375 274.039062 49.617188 275.269531 C 60.4375 274.78125 68.992188 271.898438 75.078125 266.683594 C 79.375 262.996094 82.457031 258.238281 84.398438 252.238281 C 82.121094 250.613281 79.867188 248.933594 77.628906 247.203125 C 75.40625 256.585938 69.621094 266.398438 49.570312 267.367188 Z M 49.570312 267.367188 " fill-opacity="1" fill-rule="nonzero"/><g clip-path="url(#710b796ece)"><path fill="#424242" d="M 101.648438 340.59375 C 96.207031 340.59375 91.777344 345.039062 91.777344 350.507812 C 91.777344 355.96875 96.207031 360.417969 101.648438 360.417969 C 107.09375 360.417969 111.523438 355.96875 111.523438 350.507812 C 111.523438 345.039062 107.09375 340.59375 101.648438 340.59375 Z M 101.648438 340.59375 " fill-opacity="1" fill-rule="nonzero"/></g></svg>