<svg xmlns="http://www.w3.org/2000/svg" xmlns:xlink="http://www.w3.org/1999/xlink" width="500" zoomAndPan="magnify" viewBox="0 0 375 374.999991" height="500" preserveAspectRatio="xMidYMid meet" version="1.0"><defs><clipPath id="e02c3b0b43"><path d="M 2 44 L 375 44 L 375 331 L 2 331 Z M 2 44 " clip-rule="nonzero"/></clipPath><clipPath id="61d06ec0f4"><path d="M 137.265625 239.097656 L 137.265625 178.925781 C 137.265625 175.542969 133.117188 174.011719 130.933594 176.523438 C 122.414062 186.351562 107.238281 186.351562 98.71875 176.523438 C 96.535156 174.011719 92.277344 175.542969 92.277344 178.925781 L 92.277344 239.097656 L 69.671875 239.097656 C 60.714844 218.894531 42.480469 209.503906 42.480469 174.667969 C 42.480469 136.121094 72.945312 104.453125 111.167969 102.484375 L 111.167969 47.886719 C 111.167969 45.917969 112.804688 44.28125 114.769531 44.28125 L 299.214844 44.28125 C 301.289062 44.28125 302.925781 45.917969 302.925781 47.886719 L 302.925781 132.515625 L 311.992188 122.6875 C 315.265625 119.195312 320.617188 124.21875 317.339844 127.710938 L 301.289062 144.855469 C 299.757812 145.730469 297.792969 145.511719 296.59375 144.203125 L 281.195312 127.710938 C 277.917969 124.21875 283.269531 119.195312 286.546875 122.6875 L 295.609375 132.515625 L 295.609375 51.597656 L 118.484375 51.597656 L 118.484375 102.484375 C 156.597656 104.453125 187.0625 136.121094 187.0625 174.667969 C 187.0625 209.503906 168.9375 218.894531 159.980469 239.097656 Z M 314.503906 330.71875 L 289.605469 330.71875 C 287.3125 330.71875 285.5625 328.644531 286 326.460938 L 288.183594 314.664062 C 287.3125 314.449219 286.4375 314.230469 285.5625 314.011719 L 281.523438 325.257812 C 280.757812 327.441406 278.246094 328.316406 276.28125 327.222656 L 254.769531 314.773438 C 252.804688 313.574219 252.367188 310.953125 253.785156 309.207031 L 261.539062 300.140625 C 260.882812 299.488281 260.230469 298.832031 259.683594 298.285156 L 250.507812 306.039062 C 248.761719 307.457031 246.140625 307.023438 245.050781 305.054688 L 232.601562 283.433594 C 231.398438 281.46875 232.382812 278.957031 234.457031 278.191406 L 245.703125 274.152344 C 245.484375 273.386719 245.269531 272.515625 245.050781 271.640625 L 233.363281 273.824219 C 231.070312 274.152344 228.996094 272.515625 228.996094 270.21875 L 228.996094 245.324219 C 228.996094 243.027344 231.070312 241.28125 233.363281 241.71875 L 245.050781 243.902344 C 245.269531 243.027344 245.484375 242.15625 245.8125 241.28125 L 234.457031 237.242188 C 232.382812 236.476562 231.398438 233.964844 232.601562 232 L 245.050781 210.488281 C 246.140625 208.519531 248.871094 207.976562 250.507812 209.503906 L 259.683594 217.257812 C 260.230469 216.601562 260.882812 215.945312 261.539062 215.402344 L 253.785156 206.226562 C 252.367188 204.480469 252.804688 201.859375 254.769531 200.769531 L 276.28125 188.320312 C 278.246094 187.117188 280.757812 188.101562 281.523438 190.175781 L 285.5625 201.421875 C 286.4375 201.203125 287.3125 200.988281 288.183594 200.769531 L 286 189.082031 C 285.5625 186.789062 287.3125 184.714844 289.605469 184.714844 L 314.503906 184.714844 C 316.796875 184.714844 318.433594 186.789062 318.105469 189.082031 L 315.921875 200.769531 C 316.796875 200.988281 317.667969 201.203125 318.542969 201.421875 L 322.472656 190.175781 C 323.238281 188.101562 325.75 187.117188 327.714844 188.320312 L 349.335938 200.769531 C 351.304688 201.859375 351.738281 204.480469 350.320312 206.226562 L 342.566406 215.402344 C 343.222656 215.945312 343.769531 216.601562 344.421875 217.257812 L 353.488281 209.503906 C 355.234375 207.976562 357.855469 208.519531 359.054688 210.488281 L 371.503906 232 C 372.597656 233.964844 371.722656 236.476562 369.539062 237.242188 L 358.292969 241.28125 C 358.511719 242.15625 358.839844 243.027344 358.945312 243.902344 L 370.742188 241.71875 C 372.925781 241.28125 375 243.027344 375 245.324219 L 375 270.21875 C 375 272.515625 372.925781 274.152344 370.742188 273.824219 L 358.945312 271.640625 C 358.839844 272.515625 358.511719 273.386719 358.292969 274.152344 L 369.539062 278.191406 C 371.722656 278.957031 372.597656 281.46875 371.503906 283.433594 L 359.054688 305.054688 C 357.855469 307.023438 355.234375 307.457031 353.488281 306.039062 L 344.421875 298.285156 C 343.769531 298.832031 343.222656 299.488281 342.566406 300.140625 L 350.320312 309.207031 C 351.738281 310.953125 351.304688 313.574219 349.335938 314.773438 L 327.714844 327.222656 C 325.75 328.316406 323.238281 327.441406 322.472656 325.257812 L 318.542969 314.011719 C 317.667969 314.230469 316.796875 314.449219 315.921875 314.664062 L 318.105469 326.460938 C 318.433594 328.644531 316.796875 330.71875 314.503906 330.71875 Z M 310.460938 296.101562 C 308.496094 296.101562 306.859375 294.464844 306.859375 292.386719 L 306.859375 266.179688 C 306.859375 264.105469 308.496094 262.46875 310.460938 262.46875 L 336.671875 262.46875 C 339.074219 262.46875 340.820312 264.761719 340.273438 267.054688 C 336.777344 281.359375 325.640625 292.496094 311.335938 295.992188 C 311.007812 295.992188 310.789062 296.101562 310.460938 296.101562 Z M 314.066406 269.785156 L 314.066406 287.472656 C 322.035156 284.199219 328.480469 277.753906 331.757812 269.785156 Z M 293.644531 296.101562 C 293.316406 296.101562 292.988281 295.992188 292.769531 295.992188 C 278.355469 292.496094 267.328125 281.359375 263.832031 267.054688 C 263.285156 264.761719 265.035156 262.578125 267.328125 262.578125 L 293.644531 262.578125 C 295.609375 262.578125 297.25 264.105469 297.25 266.179688 L 297.25 292.386719 C 297.25 294.464844 295.609375 296.101562 293.644531 296.101562 Z M 272.351562 269.785156 C 275.625 277.753906 282.070312 284.199219 289.929688 287.472656 L 289.929688 269.785156 Z M 336.777344 252.964844 L 310.460938 252.964844 C 308.386719 252.964844 306.859375 251.328125 306.859375 249.363281 L 306.859375 223.046875 C 306.859375 220.753906 309.042969 219.003906 311.335938 219.550781 C 325.53125 222.9375 336.5625 233.855469 340.164062 247.941406 C 341.039062 250.78125 339.074219 252.964844 336.777344 252.964844 Z M 314.066406 245.648438 L 331.757812 245.648438 C 328.480469 237.789062 322.035156 231.34375 314.066406 228.070312 Z M 293.644531 252.964844 L 267.328125 252.964844 C 265.035156 252.964844 263.285156 250.78125 263.832031 248.488281 C 267.328125 234.074219 278.355469 223.046875 292.769531 219.550781 C 295.0625 219.003906 297.25 220.753906 297.25 223.046875 L 297.25 249.363281 C 297.25 251.328125 295.609375 252.964844 293.644531 252.964844 Z M 272.351562 245.648438 L 289.929688 245.648438 L 289.929688 228.070312 C 282.070312 231.34375 275.625 237.789062 272.351562 245.648438 Z M 62.355469 103.90625 C 61.042969 103.90625 59.84375 103.25 59.1875 102.050781 L 48.8125 84.03125 C 46.410156 79.882812 52.746094 76.277344 55.148438 80.425781 L 65.519531 98.445312 C 66.941406 100.847656 65.085938 103.90625 62.355469 103.90625 Z M 23.914062 142.234375 C 23.371094 142.234375 22.714844 142.125 22.167969 141.800781 L 4.148438 131.425781 C 0 129.023438 3.605469 122.6875 7.753906 125.089844 L 25.773438 135.464844 C 28.9375 137.320312 27.628906 142.234375 23.914062 142.234375 Z M 205.738281 142.234375 C 202.023438 142.234375 200.605469 137.320312 203.878906 135.464844 L 221.898438 125.089844 C 226.046875 122.6875 229.652344 129.023438 225.503906 131.425781 L 207.484375 141.800781 C 206.9375 142.125 206.28125 142.234375 205.738281 142.234375 Z M 167.296875 103.90625 C 164.457031 103.90625 162.710938 100.847656 164.128906 98.445312 L 174.503906 80.425781 C 176.90625 76.277344 183.242188 79.882812 180.839844 84.03125 L 170.464844 102.050781 C 169.808594 103.25 168.5 103.90625 167.296875 103.90625 Z M 124.273438 322.964844 L 105.269531 322.964844 C 98.828125 322.964844 93.476562 317.941406 92.929688 311.5 L 136.722656 311.5 C 136.175781 317.941406 130.824219 322.964844 124.273438 322.964844 Z M 137.921875 305.382812 L 91.730469 305.382812 C 85.175781 305.382812 79.828125 300.359375 79.28125 293.917969 L 150.261719 293.917969 C 149.824219 300.359375 144.472656 305.382812 137.921875 305.382812 Z M 156.8125 287.800781 L 72.835938 287.800781 C 70.761719 287.800781 69.234375 286.164062 69.234375 284.089844 L 69.234375 276.335938 L 160.417969 276.335938 L 160.417969 284.089844 C 160.417969 286.164062 158.78125 287.800781 156.8125 287.800781 Z M 166.316406 270.21875 L 63.335938 270.21875 C 61.261719 270.21875 59.734375 268.582031 59.734375 266.507812 L 59.734375 248.925781 C 59.734375 246.960938 61.261719 245.324219 63.335938 245.324219 L 166.316406 245.324219 C 168.28125 245.324219 169.917969 246.960938 169.917969 248.925781 L 169.917969 266.507812 C 169.917969 268.582031 168.28125 270.21875 166.316406 270.21875 Z M 130.058594 239.097656 L 130.058594 186.789062 C 120.777344 192.6875 108.875 192.6875 99.59375 186.789062 L 99.59375 239.097656 Z M 130.058594 239.097656 " clip-rule="evenodd"/></clipPath><linearGradient x1="186.976912" gradientTransform="matrix(0.109202, 0, 0, 0.109202, 2.293248, 1.14664)" y1="187.023232" x2="3215.474427" gradientUnits="userSpaceOnUse" y2="3215.525191" id="742856967c"><stop stop-opacity="1" stop-color="rgb(30.198669%, 0%, 54.119873%)" offset="0"/><stop stop-opacity="1" stop-color="rgb(30.198669%, 0%, 54.119873%)" offset="0.125"/><stop stop-opacity="1" stop-color="rgb(30.345154%, 0.0946045%, 54.165649%)" offset="0.15625"/><stop stop-opacity="1" stop-color="rgb(30.841064%, 0.416565%, 54.321289%)" offset="0.160156"/><stop stop-opacity="1" stop-color="rgb(31.188965%, 0.643921%, 54.431152%)" offset="0.164062"/><stop stop-opacity="1" stop-color="rgb(31.536865%, 0.871277%, 54.53949%)" offset="0.167969"/><stop stop-opacity="1" stop-color="rgb(31.886292%, 1.098633%, 54.649353%)" offset="0.171875"/><stop stop-opacity="1" stop-color="rgb(32.234192%, 1.325989%, 54.759216%)" offset="0.175781"/><stop stop-opacity="1" stop-color="rgb(32.582092%, 1.553345%, 54.86908%)" offset="0.179688"/><stop stop-opacity="1" stop-color="rgb(32.929993%, 1.779175%, 54.978943%)" offset="0.183594"/><stop stop-opacity="1" stop-color="rgb(33.279419%, 2.006531%, 55.088806%)" offset="0.1875"/><stop stop-opacity="1" stop-color="rgb(33.627319%, 2.233887%, 55.197144%)" offset="0.191406"/><stop stop-opacity="1" stop-color="rgb(33.976746%, 2.461243%, 55.307007%)" offset="0.195312"/><stop stop-opacity="1" stop-color="rgb(34.324646%, 2.688599%, 55.41687%)" offset="0.199219"/><stop stop-opacity="1" stop-color="rgb(34.672546%, 2.915955%, 55.526733%)" offset="0.203125"/><stop stop-opacity="1" stop-color="rgb(35.020447%, 3.141785%, 55.636597%)" offset="0.207031"/><stop stop-opacity="1" stop-color="rgb(35.369873%, 3.369141%, 55.74646%)" offset="0.210937"/><stop stop-opacity="1" stop-color="rgb(35.717773%, 3.596497%, 55.854797%)" offset="0.214844"/><stop stop-opacity="1" stop-color="rgb(36.065674%, 3.823853%, 55.964661%)" offset="0.21875"/><stop stop-opacity="1" stop-color="rgb(36.413574%, 4.049683%, 56.074524%)" offset="0.222656"/><stop stop-opacity="1" stop-color="rgb(36.763%, 4.277039%, 56.184387%)" offset="0.226562"/><stop stop-opacity="1" stop-color="rgb(37.110901%, 4.504395%, 56.292725%)" offset="0.230469"/><stop stop-opacity="1" stop-color="rgb(37.458801%, 4.73175%, 56.402588%)" offset="0.234375"/><stop stop-opacity="1" stop-color="rgb(37.806702%, 4.959106%, 56.512451%)" offset="0.238281"/><stop stop-opacity="1" stop-color="rgb(38.156128%, 5.186462%, 56.622314%)" offset="0.242188"/><stop stop-opacity="1" stop-color="rgb(38.504028%, 5.412292%, 56.732178%)" offset="0.246094"/><stop stop-opacity="1" stop-color="rgb(38.851929%, 5.639648%, 56.842041%)" offset="0.25"/><stop stop-opacity="1" stop-color="rgb(39.199829%, 5.867004%, 56.950378%)" offset="0.253906"/><stop stop-opacity="1" stop-color="rgb(39.549255%, 6.09436%, 57.060242%)" offset="0.257812"/><stop stop-opacity="1" stop-color="rgb(39.897156%, 6.32019%, 57.170105%)" offset="0.261719"/><stop stop-opacity="1" stop-color="rgb(40.246582%, 6.547546%, 57.279968%)" offset="0.265625"/><stop stop-opacity="1" stop-color="rgb(40.594482%, 6.774902%, 57.389832%)" offset="0.269531"/><stop stop-opacity="1" stop-color="rgb(40.942383%, 7.002258%, 57.499695%)" offset="0.273438"/><stop stop-opacity="1" stop-color="rgb(41.290283%, 7.229614%, 57.608032%)" offset="0.277344"/><stop stop-opacity="1" stop-color="rgb(41.639709%, 7.45697%, 57.717896%)" offset="0.28125"/><stop stop-opacity="1" stop-color="rgb(41.98761%, 7.6828%, 57.827759%)" offset="0.285156"/><stop stop-opacity="1" stop-color="rgb(42.33551%, 7.910156%, 57.937622%)" offset="0.289062"/><stop stop-opacity="1" stop-color="rgb(42.683411%, 8.137512%, 58.047485%)" offset="0.292969"/><stop stop-opacity="1" stop-color="rgb(43.032837%, 8.364868%, 58.157349%)" offset="0.296875"/><stop stop-opacity="1" stop-color="rgb(43.380737%, 8.592224%, 58.265686%)" offset="0.300781"/><stop stop-opacity="1" stop-color="rgb(43.728638%, 8.81958%, 58.375549%)" offset="0.304688"/><stop stop-opacity="1" stop-color="rgb(44.076538%, 9.04541%, 58.485413%)" offset="0.308594"/><stop stop-opacity="1" stop-color="rgb(44.425964%, 9.272766%, 58.595276%)" offset="0.3125"/><stop stop-opacity="1" stop-color="rgb(44.773865%, 9.500122%, 58.705139%)" offset="0.316406"/><stop stop-opacity="1" stop-color="rgb(45.123291%, 9.727478%, 58.815002%)" offset="0.320312"/><stop stop-opacity="1" stop-color="rgb(45.471191%, 9.953308%, 58.92334%)" offset="0.324219"/><stop stop-opacity="1" stop-color="rgb(45.819092%, 10.180664%, 59.033203%)" offset="0.328125"/><stop stop-opacity="1" stop-color="rgb(46.166992%, 10.40802%, 59.143066%)" offset="0.332031"/><stop stop-opacity="1" stop-color="rgb(46.516418%, 10.635376%, 59.25293%)" offset="0.335938"/><stop stop-opacity="1" stop-color="rgb(46.864319%, 10.862732%, 59.361267%)" offset="0.339844"/><stop stop-opacity="1" stop-color="rgb(47.212219%, 11.090088%, 59.47113%)" offset="0.34375"/><stop stop-opacity="1" stop-color="rgb(47.56012%, 11.315918%, 59.580994%)" offset="0.347656"/><stop stop-opacity="1" stop-color="rgb(47.909546%, 11.543274%, 59.690857%)" offset="0.351562"/><stop stop-opacity="1" stop-color="rgb(48.257446%, 11.77063%, 59.80072%)" offset="0.355469"/><stop stop-opacity="1" stop-color="rgb(48.605347%, 11.997986%, 59.910583%)" offset="0.359375"/><stop stop-opacity="1" stop-color="rgb(48.953247%, 12.223816%, 60.018921%)" offset="0.363281"/><stop stop-opacity="1" stop-color="rgb(49.302673%, 12.451172%, 60.128784%)" offset="0.367188"/><stop stop-opacity="1" stop-color="rgb(49.650574%, 12.678528%, 60.238647%)" offset="0.371094"/><stop stop-opacity="1" stop-color="rgb(49.998474%, 12.905884%, 60.348511%)" offset="0.375"/><stop stop-opacity="1" stop-color="rgb(50.346375%, 13.13324%, 60.458374%)" offset="0.378906"/><stop stop-opacity="1" stop-color="rgb(50.695801%, 13.360596%, 60.568237%)" offset="0.382812"/><stop stop-opacity="1" stop-color="rgb(51.043701%, 13.586426%, 60.676575%)" offset="0.386719"/><stop stop-opacity="1" stop-color="rgb(51.393127%, 13.813782%, 60.786438%)" offset="0.390625"/><stop stop-opacity="1" stop-color="rgb(51.741028%, 14.041138%, 60.896301%)" offset="0.394531"/><stop stop-opacity="1" stop-color="rgb(52.088928%, 14.268494%, 61.006165%)" offset="0.398438"/><stop stop-opacity="1" stop-color="rgb(52.436829%, 14.49585%, 61.116028%)" offset="0.402344"/><stop stop-opacity="1" stop-color="rgb(52.786255%, 14.723206%, 61.225891%)" offset="0.40625"/><stop stop-opacity="1" stop-color="rgb(53.134155%, 14.949036%, 61.334229%)" offset="0.410156"/><stop stop-opacity="1" stop-color="rgb(53.482056%, 15.176392%, 61.444092%)" offset="0.414062"/><stop stop-opacity="1" stop-color="rgb(53.829956%, 15.403748%, 61.553955%)" offset="0.417969"/><stop stop-opacity="1" stop-color="rgb(54.179382%, 15.631104%, 61.663818%)" offset="0.421875"/><stop stop-opacity="1" stop-color="rgb(54.527283%, 15.856934%, 61.773682%)" offset="0.425781"/><stop stop-opacity="1" stop-color="rgb(54.875183%, 16.08429%, 61.883545%)" offset="0.429688"/><stop stop-opacity="1" stop-color="rgb(55.223083%, 16.311646%, 61.991882%)" offset="0.433594"/><stop stop-opacity="1" stop-color="rgb(55.57251%, 16.539001%, 62.101746%)" offset="0.4375"/><stop stop-opacity="1" stop-color="rgb(55.92041%, 16.766357%, 62.211609%)" offset="0.441406"/><stop stop-opacity="1" stop-color="rgb(56.268311%, 16.993713%, 62.321472%)" offset="0.445312"/><stop stop-opacity="1" stop-color="rgb(56.616211%, 17.219543%, 62.42981%)" offset="0.449219"/><stop stop-opacity="1" stop-color="rgb(56.965637%, 17.446899%, 62.539673%)" offset="0.453125"/><stop stop-opacity="1" stop-color="rgb(57.313538%, 17.674255%, 62.649536%)" offset="0.457031"/><stop stop-opacity="1" stop-color="rgb(57.662964%, 17.901611%, 62.759399%)" offset="0.460937"/><stop stop-opacity="1" stop-color="rgb(58.010864%, 18.127441%, 62.869263%)" offset="0.464844"/><stop stop-opacity="1" stop-color="rgb(58.358765%, 18.354797%, 62.979126%)" offset="0.46875"/><stop stop-opacity="1" stop-color="rgb(58.706665%, 18.582153%, 63.087463%)" offset="0.472656"/><stop stop-opacity="1" stop-color="rgb(59.056091%, 18.809509%, 63.197327%)" offset="0.476563"/><stop stop-opacity="1" stop-color="rgb(59.403992%, 19.036865%, 63.30719%)" offset="0.480469"/><stop stop-opacity="1" stop-color="rgb(59.751892%, 19.264221%, 63.417053%)" offset="0.484375"/><stop stop-opacity="1" stop-color="rgb(60.099792%, 19.490051%, 63.526917%)" offset="0.488281"/><stop stop-opacity="1" stop-color="rgb(60.449219%, 19.717407%, 63.63678%)" offset="0.492187"/><stop stop-opacity="1" stop-color="rgb(60.797119%, 19.944763%, 63.745117%)" offset="0.496094"/><stop stop-opacity="1" stop-color="rgb(61.14502%, 20.172119%, 63.85498%)" offset="0.5"/><stop stop-opacity="1" stop-color="rgb(61.49292%, 20.399475%, 63.964844%)" offset="0.503906"/><stop stop-opacity="1" stop-color="rgb(61.842346%, 20.626831%, 64.074707%)" offset="0.507812"/><stop stop-opacity="1" stop-color="rgb(62.190247%, 20.852661%, 64.18457%)" offset="0.511719"/><stop stop-opacity="1" stop-color="rgb(62.539673%, 21.080017%, 64.294434%)" offset="0.515625"/><stop stop-opacity="1" stop-color="rgb(62.887573%, 21.307373%, 64.402771%)" offset="0.519531"/><stop stop-opacity="1" stop-color="rgb(63.235474%, 21.534729%, 64.512634%)" offset="0.523438"/><stop stop-opacity="1" stop-color="rgb(63.583374%, 21.760559%, 64.622498%)" offset="0.527344"/><stop stop-opacity="1" stop-color="rgb(63.9328%, 21.987915%, 64.732361%)" offset="0.53125"/><stop stop-opacity="1" stop-color="rgb(64.280701%, 22.215271%, 64.840698%)" offset="0.535156"/><stop stop-opacity="1" stop-color="rgb(64.628601%, 22.442627%, 64.950562%)" offset="0.539062"/><stop stop-opacity="1" stop-color="rgb(65.008545%, 22.691345%, 65.071106%)" offset="0.542969"/><stop stop-opacity="1" stop-color="rgb(65.388489%, 22.941589%, 65.193176%)" offset="0.546875"/><stop stop-opacity="1" stop-color="rgb(65.83252%, 23.236084%, 65.338135%)" offset="0.550781"/><stop stop-opacity="1" stop-color="rgb(66.278076%, 23.530579%, 65.483093%)" offset="0.554688"/><stop stop-opacity="1" stop-color="rgb(66.723633%, 23.825073%, 65.628052%)" offset="0.558594"/><stop stop-opacity="1" stop-color="rgb(67.169189%, 24.121094%, 65.77301%)" offset="0.5625"/><stop stop-opacity="1" stop-color="rgb(67.61322%, 24.415588%, 65.917969%)" offset="0.566406"/><stop stop-opacity="1" stop-color="rgb(68.058777%, 24.711609%, 66.062927%)" offset="0.570312"/><stop stop-opacity="1" stop-color="rgb(68.504333%, 25.006104%, 66.207886%)" offset="0.574219"/><stop stop-opacity="1" stop-color="rgb(68.94989%, 25.300598%, 66.35437%)" offset="0.578125"/><stop stop-opacity="1" stop-color="rgb(69.393921%, 25.595093%, 66.499329%)" offset="0.582031"/><stop stop-opacity="1" stop-color="rgb(69.839478%, 25.891113%, 66.644287%)" offset="0.585938"/><stop stop-opacity="1" stop-color="rgb(70.285034%, 26.185608%, 66.789246%)" offset="0.589844"/><stop stop-opacity="1" stop-color="rgb(70.730591%, 26.481628%, 66.934204%)" offset="0.59375"/><stop stop-opacity="1" stop-color="rgb(71.174622%, 26.776123%, 67.079163%)" offset="0.597656"/><stop stop-opacity="1" stop-color="rgb(71.620178%, 27.070618%, 67.224121%)" offset="0.601562"/><stop stop-opacity="1" stop-color="rgb(72.065735%, 27.365112%, 67.36908%)" offset="0.605469"/><stop stop-opacity="1" stop-color="rgb(72.511292%, 27.661133%, 67.514038%)" offset="0.609375"/><stop stop-opacity="1" stop-color="rgb(72.955322%, 27.955627%, 67.658997%)" offset="0.613281"/><stop stop-opacity="1" stop-color="rgb(73.400879%, 28.251648%, 67.803955%)" offset="0.617188"/><stop stop-opacity="1" stop-color="rgb(73.84491%, 28.546143%, 67.948914%)" offset="0.621094"/><stop stop-opacity="1" stop-color="rgb(74.290466%, 28.840637%, 68.093872%)" offset="0.625"/><stop stop-opacity="1" stop-color="rgb(74.736023%, 29.135132%, 68.238831%)" offset="0.628906"/><stop stop-opacity="1" stop-color="rgb(75.18158%, 29.431152%, 68.383789%)" offset="0.632812"/><stop stop-opacity="1" stop-color="rgb(75.62561%, 29.725647%, 68.528748%)" offset="0.636719"/><stop stop-opacity="1" stop-color="rgb(76.071167%, 30.021667%, 68.673706%)" offset="0.640625"/><stop stop-opacity="1" stop-color="rgb(76.516724%, 30.316162%, 68.818665%)" offset="0.644531"/><stop stop-opacity="1" stop-color="rgb(76.96228%, 30.610657%, 68.963623%)" offset="0.648438"/><stop stop-opacity="1" stop-color="rgb(77.406311%, 30.905151%, 69.108582%)" offset="0.652344"/><stop stop-opacity="1" stop-color="rgb(77.851868%, 31.201172%, 69.25354%)" offset="0.65625"/><stop stop-opacity="1" stop-color="rgb(78.297424%, 31.495667%, 69.398499%)" offset="0.660156"/><stop stop-opacity="1" stop-color="rgb(78.742981%, 31.791687%, 69.543457%)" offset="0.664062"/><stop stop-opacity="1" stop-color="rgb(79.187012%, 32.086182%, 69.688416%)" offset="0.667969"/><stop stop-opacity="1" stop-color="rgb(79.632568%, 32.380676%, 69.833374%)" offset="0.671875"/><stop stop-opacity="1" stop-color="rgb(80.078125%, 32.675171%, 69.978333%)" offset="0.675781"/><stop stop-opacity="1" stop-color="rgb(80.523682%, 32.971191%, 70.124817%)" offset="0.679688"/><stop stop-opacity="1" stop-color="rgb(80.967712%, 33.265686%, 70.269775%)" offset="0.683594"/><stop stop-opacity="1" stop-color="rgb(81.413269%, 33.561707%, 70.414734%)" offset="0.6875"/><stop stop-opacity="1" stop-color="rgb(81.8573%, 33.856201%, 70.559692%)" offset="0.691406"/><stop stop-opacity="1" stop-color="rgb(82.302856%, 34.150696%, 70.704651%)" offset="0.695312"/><stop stop-opacity="1" stop-color="rgb(82.748413%, 34.44519%, 70.849609%)" offset="0.699219"/><stop stop-opacity="1" stop-color="rgb(83.19397%, 34.741211%, 70.994568%)" offset="0.703125"/><stop stop-opacity="1" stop-color="rgb(83.638%, 35.035706%, 71.139526%)" offset="0.707031"/><stop stop-opacity="1" stop-color="rgb(84.083557%, 35.331726%, 71.284485%)" offset="0.710938"/><stop stop-opacity="1" stop-color="rgb(84.529114%, 35.626221%, 71.429443%)" offset="0.714844"/><stop stop-opacity="1" stop-color="rgb(84.97467%, 35.920715%, 71.574402%)" offset="0.71875"/><stop stop-opacity="1" stop-color="rgb(85.418701%, 36.21521%, 71.71936%)" offset="0.722656"/><stop stop-opacity="1" stop-color="rgb(85.864258%, 36.51123%, 71.864319%)" offset="0.726562"/><stop stop-opacity="1" stop-color="rgb(86.309814%, 36.805725%, 72.009277%)" offset="0.730469"/><stop stop-opacity="1" stop-color="rgb(86.755371%, 37.101746%, 72.154236%)" offset="0.734375"/><stop stop-opacity="1" stop-color="rgb(87.199402%, 37.39624%, 72.299194%)" offset="0.738281"/><stop stop-opacity="1" stop-color="rgb(87.644958%, 37.692261%, 72.444153%)" offset="0.742188"/><stop stop-opacity="1" stop-color="rgb(88.090515%, 37.986755%, 72.589111%)" offset="0.746094"/><stop stop-opacity="1" stop-color="rgb(88.536072%, 38.28125%, 72.73407%)" offset="0.75"/><stop stop-opacity="1" stop-color="rgb(88.980103%, 38.575745%, 72.879028%)" offset="0.753906"/><stop stop-opacity="1" stop-color="rgb(89.425659%, 38.871765%, 73.023987%)" offset="0.757812"/><stop stop-opacity="1" stop-color="rgb(89.86969%, 39.16626%, 73.168945%)" offset="0.761719"/><stop stop-opacity="1" stop-color="rgb(90.315247%, 39.46228%, 73.313904%)" offset="0.765625"/><stop stop-opacity="1" stop-color="rgb(90.760803%, 39.756775%, 73.458862%)" offset="0.769531"/><stop stop-opacity="1" stop-color="rgb(91.20636%, 40.05127%, 73.603821%)" offset="0.773438"/><stop stop-opacity="1" stop-color="rgb(91.650391%, 40.345764%, 73.748779%)" offset="0.777344"/><stop stop-opacity="1" stop-color="rgb(92.095947%, 40.641785%, 73.895264%)" offset="0.78125"/><stop stop-opacity="1" stop-color="rgb(92.541504%, 40.936279%, 74.040222%)" offset="0.785156"/><stop stop-opacity="1" stop-color="rgb(92.987061%, 41.2323%, 74.185181%)" offset="0.789062"/><stop stop-opacity="1" stop-color="rgb(93.431091%, 41.526794%, 74.330139%)" offset="0.792969"/><stop stop-opacity="1" stop-color="rgb(93.876648%, 41.821289%, 74.475098%)" offset="0.796875"/><stop stop-opacity="1" stop-color="rgb(94.322205%, 42.115784%, 74.620056%)" offset="0.800781"/><stop stop-opacity="1" stop-color="rgb(94.767761%, 42.411804%, 74.765015%)" offset="0.804688"/><stop stop-opacity="1" stop-color="rgb(95.211792%, 42.706299%, 74.909973%)" offset="0.808594"/><stop stop-opacity="1" stop-color="rgb(95.657349%, 43.002319%, 75.054932%)" offset="0.8125"/><stop stop-opacity="1" stop-color="rgb(96.102905%, 43.296814%, 75.19989%)" offset="0.816406"/><stop stop-opacity="1" stop-color="rgb(96.548462%, 43.591309%, 75.344849%)" offset="0.820312"/><stop stop-opacity="1" stop-color="rgb(96.992493%, 43.885803%, 75.489807%)" offset="0.824219"/><stop stop-opacity="1" stop-color="rgb(97.438049%, 44.181824%, 75.634766%)" offset="0.828125"/><stop stop-opacity="1" stop-color="rgb(97.88208%, 44.476318%, 75.779724%)" offset="0.832031"/><stop stop-opacity="1" stop-color="rgb(98.327637%, 44.772339%, 75.924683%)" offset="0.835938"/><stop stop-opacity="1" stop-color="rgb(98.773193%, 45.066833%, 76.069641%)" offset="0.839844"/><stop stop-opacity="1" stop-color="rgb(99.21875%, 45.361328%, 76.2146%)" offset="0.84375"/><stop stop-opacity="1" stop-color="rgb(99.609375%, 45.619202%, 76.341248%)" offset="0.847656"/><stop stop-opacity="1" stop-color="rgb(100%, 45.878601%, 76.469421%)" offset="0.851562"/><stop stop-opacity="1" stop-color="rgb(100%, 45.878601%, 76.469421%)" offset="0.859375"/><stop stop-opacity="1" stop-color="rgb(100%, 45.878601%, 76.469421%)" offset="0.875"/><stop stop-opacity="1" stop-color="rgb(100%, 45.878601%, 76.469421%)" offset="1"/></linearGradient></defs><rect x="-37.5" width="450" fill="#ffffff" y="-37.499999" height="449.999989" fill-opacity="1"/><rect x="-37.5" width="450" fill="#ffffff" y="-37.499999" height="449.999989" fill-opacity="1"/><g clip-path="url(#e02c3b0b43)"><g clip-path="url(#61d06ec0f4)"><path fill="url(#742856967c)" d="M 0 44.28125 L 0 330.71875 L 375 330.71875 L 375 44.28125 Z M 0 44.28125 " fill-rule="nonzero"/></g></g></svg>