<svg xmlns="http://www.w3.org/2000/svg" xmlns:xlink="http://www.w3.org/1999/xlink" width="500" zoomAndPan="magnify" viewBox="0 0 375 374.999991" height="500" preserveAspectRatio="xMidYMid meet" version="1.0"><defs><clipPath id="4927f8b499"><path d="M 195 132 L 369.828125 132 L 369.828125 244 L 195 244 Z M 195 132 " clip-rule="nonzero"/></clipPath></defs><rect x="-37.5" width="450" fill="#ffffff" y="-37.499999" height="449.999989" fill-opacity="1"/><rect x="-37.5" width="450" fill="#ffffff" y="-37.499999" height="449.999989" fill-opacity="1"/><path fill="#5e42b2" d="M 214.285156 240.105469 C 205.585938 240.105469 198.523438 233.054688 198.523438 224.34375 L 198.523438 151.320312 C 198.523438 142.617188 205.578125 135.558594 214.285156 135.558594 L 306.839844 135.558594 C 287.304688 94.785156 245.773438 66.5625 197.539062 66.5625 C 130.5625 66.5625 76.273438 120.855469 76.273438 187.828125 C 76.273438 254.800781 130.566406 309.09375 197.539062 309.09375 C 245.765625 309.09375 287.296875 280.867188 306.839844 240.097656 L 214.285156 240.097656 Z M 214.285156 240.105469 " fill-opacity="1" fill-rule="nonzero"/><path fill="#2b227f" d="M 210.980469 278.953125 C 154.339844 278.953125 108.425781 233.039062 108.425781 176.398438 C 108.425781 119.757812 154.339844 73.84375 210.980469 73.84375 C 253.101562 73.84375 289.25 99.257812 305.035156 135.566406 L 306.839844 135.566406 C 287.304688 94.792969 245.773438 66.566406 197.539062 66.566406 C 130.5625 66.566406 76.273438 120.863281 76.273438 187.835938 C 76.273438 254.808594 130.566406 309.101562 197.539062 309.101562 C 245.765625 309.101562 287.296875 280.871094 306.839844 240.105469 L 291.261719 240.105469 C 272.476562 263.75 243.527344 278.953125 210.980469 278.953125 Z M 210.980469 278.953125 " fill-opacity="1" fill-rule="nonzero"/><path fill="#392a8c" d="M 215.558594 21.757812 C 215.558594 22.347656 215.53125 22.9375 215.472656 23.523438 C 215.414062 24.113281 215.328125 24.695312 215.214844 25.273438 C 215.097656 25.851562 214.953125 26.421875 214.785156 26.988281 C 214.613281 27.554688 214.414062 28.109375 214.1875 28.652344 C 213.960938 29.199219 213.710938 29.730469 213.433594 30.25 C 213.15625 30.769531 212.851562 31.277344 212.523438 31.765625 C 212.195312 32.257812 211.84375 32.730469 211.46875 33.1875 C 211.097656 33.644531 210.699219 34.078125 210.285156 34.496094 C 209.867188 34.914062 209.429688 35.308594 208.972656 35.683594 C 208.519531 36.058594 208.042969 36.410156 207.554688 36.738281 C 207.0625 37.066406 206.558594 37.367188 206.039062 37.644531 C 205.515625 37.921875 204.984375 38.175781 204.441406 38.402344 C 203.894531 38.628906 203.339844 38.824219 202.773438 38.996094 C 202.210938 39.167969 201.640625 39.3125 201.058594 39.425781 C 200.480469 39.542969 199.898438 39.628906 199.3125 39.6875 C 198.722656 39.742188 198.136719 39.773438 197.546875 39.773438 C 196.957031 39.773438 196.367188 39.742188 195.78125 39.6875 C 195.191406 39.628906 194.609375 39.542969 194.03125 39.425781 C 193.453125 39.3125 192.882812 39.167969 192.316406 38.996094 C 191.753906 38.824219 191.199219 38.628906 190.652344 38.402344 C 190.109375 38.175781 189.574219 37.921875 189.054688 37.644531 C 188.535156 37.367188 188.027344 37.066406 187.539062 36.738281 C 187.046875 36.410156 186.574219 36.058594 186.117188 35.683594 C 185.664062 35.308594 185.226562 34.914062 184.808594 34.496094 C 184.390625 34.078125 183.996094 33.644531 183.621094 33.1875 C 183.246094 32.730469 182.894531 32.257812 182.570312 31.765625 C 182.242188 31.277344 181.9375 30.769531 181.660156 30.25 C 181.382812 29.730469 181.128906 29.199219 180.902344 28.652344 C 180.679688 28.109375 180.480469 27.554688 180.308594 26.988281 C 180.136719 26.421875 179.992188 25.851562 179.878906 25.273438 C 179.765625 24.695312 179.675781 24.113281 179.621094 23.523438 C 179.5625 22.9375 179.53125 22.347656 179.53125 21.757812 C 179.53125 21.167969 179.5625 20.582031 179.621094 19.992188 C 179.675781 19.40625 179.765625 18.824219 179.878906 18.246094 C 179.992188 17.667969 180.136719 17.09375 180.308594 16.53125 C 180.480469 15.964844 180.679688 15.410156 180.902344 14.867188 C 181.128906 14.320312 181.382812 13.789062 181.660156 13.269531 C 181.9375 12.746094 182.242188 12.242188 182.570312 11.75 C 182.894531 11.261719 183.246094 10.789062 183.621094 10.332031 C 183.996094 9.875 184.390625 9.4375 184.808594 9.023438 C 185.226562 8.605469 185.664062 8.207031 186.117188 7.835938 C 186.574219 7.460938 187.046875 7.109375 187.539062 6.78125 C 188.027344 6.453125 188.535156 6.152344 189.054688 5.871094 C 189.574219 5.59375 190.109375 5.34375 190.652344 5.117188 C 191.199219 4.890625 191.753906 4.691406 192.316406 4.519531 C 192.882812 4.351562 193.453125 4.207031 194.03125 4.09375 C 194.609375 3.976562 195.195312 3.890625 195.78125 3.832031 C 196.367188 3.773438 196.957031 3.746094 197.546875 3.746094 C 198.136719 3.746094 198.722656 3.773438 199.3125 3.832031 C 199.898438 3.890625 200.480469 3.976562 201.058594 4.09375 C 201.640625 4.207031 202.210938 4.351562 202.773438 4.519531 C 203.339844 4.691406 203.894531 4.890625 204.441406 5.117188 C 204.984375 5.34375 205.515625 5.59375 206.039062 5.871094 C 206.558594 6.152344 207.0625 6.453125 207.554688 6.78125 C 208.042969 7.109375 208.519531 7.460938 208.972656 7.835938 C 209.429688 8.207031 209.867188 8.605469 210.285156 9.023438 C 210.699219 9.4375 211.097656 9.875 211.46875 10.332031 C 211.84375 10.789062 212.195312 11.261719 212.523438 11.75 C 212.851562 12.242188 213.15625 12.746094 213.433594 13.269531 C 213.710938 13.789062 213.960938 14.320312 214.1875 14.867188 C 214.414062 15.410156 214.613281 15.964844 214.785156 16.53125 C 214.953125 17.09375 215.097656 17.667969 215.214844 18.246094 C 215.328125 18.824219 215.414062 19.40625 215.472656 19.992188 C 215.53125 20.582031 215.558594 21.167969 215.558594 21.757812 Z M 215.558594 21.757812 " fill-opacity="1" fill-rule="nonzero"/><path fill="#392a8c" d="M 215.558594 353.910156 C 215.558594 354.5 215.53125 355.089844 215.472656 355.675781 C 215.414062 356.265625 215.328125 356.847656 215.214844 357.425781 C 215.097656 358.003906 214.953125 358.574219 214.785156 359.140625 C 214.613281 359.703125 214.414062 360.257812 214.1875 360.804688 C 213.960938 361.347656 213.710938 361.882812 213.433594 362.402344 C 213.15625 362.921875 212.851562 363.429688 212.523438 363.917969 C 212.195312 364.410156 211.84375 364.882812 211.46875 365.339844 C 211.097656 365.792969 210.699219 366.230469 210.285156 366.648438 C 209.867188 367.066406 209.429688 367.460938 208.972656 367.835938 C 208.519531 368.210938 208.042969 368.5625 207.554688 368.890625 C 207.0625 369.214844 206.558594 369.519531 206.039062 369.796875 C 205.515625 370.074219 204.984375 370.328125 204.441406 370.554688 C 203.894531 370.777344 203.339844 370.976562 202.773438 371.148438 C 202.210938 371.320312 201.640625 371.464844 201.058594 371.578125 C 200.480469 371.695312 199.898438 371.78125 199.3125 371.835938 C 198.722656 371.894531 198.136719 371.925781 197.546875 371.925781 C 196.957031 371.925781 196.367188 371.894531 195.78125 371.835938 C 195.191406 371.78125 194.609375 371.695312 194.03125 371.578125 C 193.453125 371.464844 192.882812 371.320312 192.316406 371.148438 C 191.753906 370.976562 191.199219 370.777344 190.652344 370.554688 C 190.109375 370.328125 189.574219 370.074219 189.054688 369.796875 C 188.535156 369.519531 188.027344 369.214844 187.539062 368.890625 C 187.046875 368.5625 186.574219 368.210938 186.117188 367.835938 C 185.664062 367.460938 185.226562 367.066406 184.808594 366.648438 C 184.390625 366.230469 183.996094 365.792969 183.621094 365.339844 C 183.246094 364.882812 182.894531 364.410156 182.570312 363.917969 C 182.242188 363.429688 181.9375 362.921875 181.660156 362.402344 C 181.382812 361.882812 181.128906 361.347656 180.902344 360.804688 C 180.679688 360.257812 180.480469 359.703125 180.308594 359.140625 C 180.136719 358.574219 179.992188 358.003906 179.878906 357.425781 C 179.765625 356.847656 179.675781 356.265625 179.621094 355.675781 C 179.5625 355.089844 179.53125 354.5 179.53125 353.910156 C 179.53125 353.320312 179.5625 352.734375 179.621094 352.144531 C 179.675781 351.558594 179.765625 350.976562 179.878906 350.398438 C 179.992188 349.816406 180.136719 349.246094 180.308594 348.683594 C 180.480469 348.117188 180.679688 347.5625 180.902344 347.019531 C 181.128906 346.472656 181.382812 345.941406 181.660156 345.417969 C 181.9375 344.898438 182.242188 344.394531 182.570312 343.902344 C 182.894531 343.414062 183.246094 342.941406 183.621094 342.484375 C 183.996094 342.027344 184.390625 341.589844 184.808594 341.171875 C 185.226562 340.757812 185.664062 340.359375 186.117188 339.988281 C 186.574219 339.613281 187.046875 339.261719 187.539062 338.933594 C 188.027344 338.605469 188.535156 338.304688 189.054688 338.023438 C 189.574219 337.746094 190.109375 337.496094 190.652344 337.269531 C 191.199219 337.042969 191.753906 336.84375 192.316406 336.671875 C 192.882812 336.503906 193.453125 336.359375 194.03125 336.242188 C 194.609375 336.128906 195.195312 336.042969 195.78125 335.984375 C 196.367188 335.925781 196.957031 335.898438 197.546875 335.898438 C 198.136719 335.898438 198.722656 335.925781 199.3125 335.984375 C 199.898438 336.042969 200.480469 336.128906 201.058594 336.242188 C 201.640625 336.359375 202.210938 336.503906 202.773438 336.671875 C 203.339844 336.84375 203.894531 337.042969 204.441406 337.269531 C 204.984375 337.496094 205.515625 337.746094 206.039062 338.023438 C 206.558594 338.304688 207.0625 338.605469 207.554688 338.933594 C 208.042969 339.261719 208.519531 339.613281 208.972656 339.988281 C 209.429688 340.359375 209.867188 340.757812 210.285156 341.171875 C 210.699219 341.589844 211.097656 342.027344 211.46875 342.484375 C 211.84375 342.941406 212.195312 343.414062 212.523438 343.902344 C 212.851562 344.394531 213.15625 344.898438 213.433594 345.417969 C 213.710938 345.941406 213.960938 346.472656 214.1875 347.019531 C 214.414062 347.5625 214.613281 348.117188 214.785156 348.683594 C 214.953125 349.246094 215.097656 349.816406 215.214844 350.398438 C 215.328125 350.976562 215.414062 351.558594 215.472656 352.144531 C 215.53125 352.734375 215.558594 353.320312 215.558594 353.910156 Z M 215.558594 353.910156 " fill-opacity="1" fill-rule="nonzero"/><path fill="#392a8c" d="M 49.476562 187.835938 C 49.476562 188.425781 49.449219 189.015625 49.390625 189.601562 C 49.332031 190.1875 49.246094 190.769531 49.128906 191.347656 C 49.015625 191.929688 48.871094 192.5 48.703125 193.0625 C 48.53125 193.628906 48.332031 194.183594 48.105469 194.730469 C 47.878906 195.273438 47.628906 195.804688 47.351562 196.328125 C 47.070312 196.847656 46.769531 197.351562 46.441406 197.84375 C 46.113281 198.332031 45.761719 198.808594 45.386719 199.261719 C 45.015625 199.71875 44.617188 200.15625 44.199219 200.574219 C 43.785156 200.988281 43.347656 201.386719 42.890625 201.757812 C 42.433594 202.132812 41.960938 202.484375 41.472656 202.8125 C 40.980469 203.140625 40.476562 203.445312 39.953125 203.722656 C 39.433594 204 38.902344 204.25 38.355469 204.476562 C 37.8125 204.703125 37.257812 204.902344 36.691406 205.074219 C 36.128906 205.246094 35.554688 205.386719 34.976562 205.503906 C 34.398438 205.617188 33.816406 205.703125 33.230469 205.761719 C 32.640625 205.820312 32.054688 205.847656 31.464844 205.847656 C 30.875 205.847656 30.285156 205.820312 29.699219 205.761719 C 29.109375 205.703125 28.527344 205.617188 27.949219 205.503906 C 27.371094 205.386719 26.800781 205.246094 26.234375 205.074219 C 25.667969 204.902344 25.113281 204.703125 24.570312 204.476562 C 24.023438 204.25 23.492188 204 22.972656 203.722656 C 22.453125 203.445312 21.945312 203.140625 21.457031 202.8125 C 20.964844 202.484375 20.492188 202.132812 20.035156 201.757812 C 19.578125 201.386719 19.144531 200.988281 18.726562 200.574219 C 18.308594 200.15625 17.914062 199.71875 17.539062 199.261719 C 17.164062 198.808594 16.8125 198.332031 16.484375 197.84375 C 16.15625 197.351562 15.855469 196.847656 15.578125 196.328125 C 15.300781 195.804688 15.046875 195.273438 14.820312 194.730469 C 14.59375 194.183594 14.398438 193.628906 14.226562 193.0625 C 14.054688 192.5 13.910156 191.929688 13.796875 191.347656 C 13.679688 190.769531 13.59375 190.1875 13.535156 189.601562 C 13.480469 189.015625 13.449219 188.425781 13.449219 187.835938 C 13.449219 187.246094 13.480469 186.65625 13.535156 186.070312 C 13.59375 185.480469 13.679688 184.898438 13.796875 184.320312 C 13.910156 183.742188 14.054688 183.171875 14.226562 182.605469 C 14.398438 182.042969 14.59375 181.488281 14.820312 180.941406 C 15.046875 180.398438 15.300781 179.863281 15.578125 179.34375 C 15.855469 178.824219 16.15625 178.316406 16.484375 177.828125 C 16.8125 177.335938 17.164062 176.863281 17.539062 176.40625 C 17.914062 175.953125 18.308594 175.515625 18.726562 175.097656 C 19.144531 174.679688 19.578125 174.285156 20.035156 173.910156 C 20.492188 173.535156 20.964844 173.183594 21.457031 172.859375 C 21.945312 172.53125 22.453125 172.226562 22.972656 171.949219 C 23.492188 171.671875 24.023438 171.417969 24.570312 171.191406 C 25.113281 170.96875 25.667969 170.769531 26.234375 170.597656 C 26.800781 170.425781 27.371094 170.28125 27.949219 170.167969 C 28.527344 170.054688 29.109375 169.964844 29.699219 169.910156 C 30.285156 169.851562 30.875 169.820312 31.464844 169.820312 C 32.054688 169.820312 32.640625 169.851562 33.230469 169.910156 C 33.816406 169.964844 34.398438 170.054688 34.976562 170.167969 C 35.554688 170.28125 36.128906 170.425781 36.691406 170.597656 C 37.257812 170.769531 37.8125 170.96875 38.355469 171.191406 C 38.902344 171.417969 39.433594 171.671875 39.953125 171.949219 C 40.476562 172.226562 40.980469 172.53125 41.472656 172.859375 C 41.960938 173.183594 42.433594 173.535156 42.890625 173.910156 C 43.347656 174.285156 43.785156 174.679688 44.199219 175.097656 C 44.617188 175.515625 45.015625 175.953125 45.386719 176.40625 C 45.761719 176.863281 46.113281 177.335938 46.441406 177.828125 C 46.769531 178.316406 47.070312 178.824219 47.351562 179.34375 C 47.628906 179.863281 47.878906 180.398438 48.105469 180.941406 C 48.332031 181.488281 48.53125 182.042969 48.703125 182.605469 C 48.871094 183.171875 49.015625 183.742188 49.128906 184.320312 C 49.246094 184.898438 49.332031 185.480469 49.390625 186.070312 C 49.449219 186.65625 49.476562 187.246094 49.476562 187.835938 Z M 49.476562 187.835938 " fill-opacity="1" fill-rule="nonzero"/><path fill="#392a8c" d="M 80.152344 287.316406 C 75.542969 287.316406 70.921875 289.070312 67.417969 292.582031 C 60.398438 299.609375 60.398438 311.03125 67.417969 318.058594 C 70.816406 321.457031 75.339844 323.328125 80.140625 323.328125 L 80.152344 323.328125 C 84.960938 323.328125 89.484375 321.449219 92.882812 318.046875 C 96.285156 314.640625 98.152344 310.121094 98.152344 305.316406 C 98.152344 300.507812 96.285156 295.976562 92.878906 292.582031 C 89.371094 289.078125 84.753906 287.320312 80.148438 287.320312 Z M 80.152344 287.316406 " fill-opacity="1" fill-rule="nonzero"/><path fill="#392a8c" d="M 80.066406 52.4375 L 80.054688 52.4375 C 75.246094 52.4375 70.722656 54.3125 67.324219 57.71875 C 60.304688 64.746094 60.304688 76.167969 67.324219 83.195312 C 74.339844 90.199219 85.777344 90.207031 92.796875 83.179688 C 99.816406 76.15625 99.816406 64.730469 92.796875 57.707031 C 89.398438 54.308594 84.875 52.4375 80.074219 52.4375 Z M 80.066406 52.4375 " fill-opacity="1" fill-rule="nonzero"/><path fill="#ffffff" d="M 214.292969 135.566406 L 350.871094 135.566406 C 351.90625 135.566406 352.929688 135.664062 353.945312 135.867188 C 354.960938 136.070312 355.945312 136.367188 356.902344 136.765625 C 357.859375 137.160156 358.765625 137.644531 359.628906 138.222656 C 360.488281 138.796875 361.285156 139.449219 362.015625 140.179688 C 362.746094 140.914062 363.402344 141.707031 363.976562 142.570312 C 364.550781 143.429688 365.035156 144.339844 365.433594 145.292969 C 365.828125 146.25 366.128906 147.234375 366.328125 148.25 C 366.53125 149.265625 366.632812 150.289062 366.632812 151.324219 L 366.632812 224.351562 C 366.632812 225.386719 366.53125 226.410156 366.328125 227.425781 C 366.128906 228.441406 365.828125 229.425781 365.433594 230.382812 C 365.035156 231.339844 364.550781 232.246094 363.976562 233.109375 C 363.402344 233.96875 362.746094 234.765625 362.015625 235.496094 C 361.285156 236.226562 360.488281 236.882812 359.628906 237.457031 C 358.765625 238.03125 357.859375 238.515625 356.902344 238.914062 C 355.945312 239.308594 354.960938 239.609375 353.945312 239.808594 C 352.929688 240.011719 351.90625 240.113281 350.871094 240.113281 L 214.292969 240.113281 C 213.257812 240.113281 212.234375 240.011719 211.21875 239.808594 C 210.203125 239.609375 209.21875 239.308594 208.261719 238.914062 C 207.304688 238.515625 206.398438 238.03125 205.535156 237.457031 C 204.675781 236.882812 203.878906 236.226562 203.148438 235.496094 C 202.417969 234.765625 201.761719 233.96875 201.1875 233.109375 C 200.613281 232.246094 200.128906 231.339844 199.730469 230.382812 C 199.335938 229.425781 199.035156 228.441406 198.835938 227.425781 C 198.632812 226.410156 198.53125 225.386719 198.53125 224.351562 L 198.53125 151.324219 C 198.53125 150.289062 198.632812 149.265625 198.835938 148.25 C 199.035156 147.234375 199.335938 146.25 199.730469 145.292969 C 200.128906 144.339844 200.613281 143.429688 201.1875 142.570312 C 201.761719 141.707031 202.414062 140.914062 203.148438 140.179688 C 203.878906 139.449219 204.675781 138.796875 205.535156 138.222656 C 206.398438 137.644531 207.304688 137.160156 208.261719 136.765625 C 209.21875 136.367188 210.203125 136.070312 211.21875 135.867188 C 212.234375 135.664062 213.257812 135.566406 214.292969 135.566406 Z M 214.292969 135.566406 " fill-opacity="1" fill-rule="nonzero"/><path fill="#e8e8e8" d="M 214.292969 135.566406 L 350.871094 135.566406 C 351.90625 135.566406 352.929688 135.664062 353.945312 135.867188 C 354.960938 136.070312 355.945312 136.367188 356.902344 136.765625 C 357.859375 137.160156 358.765625 137.644531 359.628906 138.222656 C 360.488281 138.796875 361.285156 139.449219 362.015625 140.179688 C 362.746094 140.914062 363.402344 141.707031 363.976562 142.570312 C 364.550781 143.429688 365.035156 144.339844 365.433594 145.292969 C 365.828125 146.25 366.128906 147.234375 366.328125 148.25 C 366.53125 149.265625 366.632812 150.289062 366.632812 151.324219 L 366.632812 224.351562 C 366.632812 225.386719 366.53125 226.410156 366.328125 227.425781 C 366.128906 228.441406 365.828125 229.425781 365.433594 230.382812 C 365.035156 231.339844 364.550781 232.246094 363.976562 233.109375 C 363.402344 233.96875 362.746094 234.765625 362.015625 235.496094 C 361.285156 236.226562 360.488281 236.882812 359.628906 237.457031 C 358.765625 238.03125 357.859375 238.515625 356.902344 238.914062 C 355.945312 239.308594 354.960938 239.609375 353.945312 239.808594 C 352.929688 240.011719 351.90625 240.113281 350.871094 240.113281 L 214.292969 240.113281 C 213.257812 240.113281 212.234375 240.011719 211.21875 239.808594 C 210.203125 239.609375 209.21875 239.308594 208.261719 238.914062 C 207.304688 238.515625 206.398438 238.03125 205.535156 237.457031 C 204.675781 236.882812 203.878906 236.226562 203.148438 235.496094 C 202.417969 234.765625 201.761719 233.96875 201.1875 233.109375 C 200.613281 232.246094 200.128906 231.339844 199.730469 230.382812 C 199.335938 229.425781 199.035156 228.441406 198.835938 227.425781 C 198.632812 226.410156 198.53125 225.386719 198.53125 224.351562 L 198.53125 151.324219 C 198.53125 150.289062 198.632812 149.265625 198.835938 148.25 C 199.035156 147.234375 199.335938 146.25 199.730469 145.292969 C 200.128906 144.339844 200.613281 143.429688 201.1875 142.570312 C 201.761719 141.707031 202.414062 140.914062 203.148438 140.179688 C 203.878906 139.449219 204.675781 138.796875 205.535156 138.222656 C 206.398438 137.644531 207.304688 137.160156 208.261719 136.765625 C 209.21875 136.367188 210.203125 136.070312 211.21875 135.867188 C 212.234375 135.664062 213.257812 135.566406 214.292969 135.566406 Z M 214.292969 135.566406 " fill-opacity="1" fill-rule="nonzero"/><path fill="#b3b3b3" d="M 235.871094 222.097656 C 227.171875 222.097656 220.113281 215.046875 220.113281 206.339844 L 220.113281 135.566406 L 214.285156 135.566406 C 205.585938 135.566406 198.523438 142.617188 198.523438 151.324219 L 198.523438 224.351562 C 198.523438 233.054688 205.578125 240.113281 214.285156 240.113281 L 350.871094 240.113281 C 359.574219 240.113281 366.632812 233.058594 366.632812 224.351562 L 366.632812 222.097656 Z M 235.871094 222.097656 " fill-opacity="1" fill-rule="nonzero"/><g clip-path="url(#4927f8b499)"><path stroke-linecap="round" transform="matrix(6.70391, 0, 0, 6.70391, -14.974566, -26.689944)" fill="none" stroke-linejoin="round" d="M 34.199076 24.20324 L 54.571981 24.20324 C 54.726392 24.20324 54.879055 24.217807 55.030552 24.248107 C 55.182049 24.278406 55.328885 24.32269 55.471642 24.382124 C 55.6144 24.440975 55.749582 24.513227 55.878355 24.599464 C 56.006545 24.685119 56.125412 24.782427 56.234374 24.891388 C 56.343335 25.000933 56.441226 25.119217 56.52688 25.24799 C 56.612534 25.37618 56.684787 25.511945 56.744221 25.654119 C 56.803072 25.796877 56.847938 25.943713 56.877655 26.09521 C 56.907954 26.246707 56.923104 26.39937 56.923104 26.553781 L 56.923104 37.447027 C 56.923104 37.601438 56.907954 37.754101 56.877655 37.905598 C 56.847938 38.057095 56.803072 38.203931 56.744221 38.346689 C 56.684787 38.489446 56.612534 38.624628 56.52688 38.753401 C 56.441226 38.881591 56.343335 39.000458 56.234374 39.10942 C 56.125412 39.218381 56.006545 39.316272 55.878355 39.401926 C 55.749582 39.487581 55.6144 39.559833 55.471642 39.619267 C 55.328885 39.678118 55.182049 39.722984 55.030552 39.752701 C 54.879055 39.783 54.726392 39.79815 54.571981 39.79815 L 34.199076 39.79815 C 34.044665 39.79815 33.892002 39.783 33.740505 39.752701 C 33.589008 39.722984 33.442172 39.678118 33.299415 39.619267 C 33.156657 39.559833 33.021475 39.487581 32.892702 39.401926 C 32.764512 39.316272 32.645645 39.218381 32.536683 39.10942 C 32.427722 39.000458 32.329831 38.881591 32.244177 38.753401 C 32.158523 38.624628 32.08627 38.489446 32.026836 38.346689 C 31.967985 38.203931 31.923119 38.057095 31.893402 37.905598 C 31.863103 37.754101 31.847953 37.601438 31.847953 37.447027 L 31.847953 26.553781 C 31.847953 26.39937 31.863103 26.246707 31.893402 26.09521 C 31.923119 25.943713 31.967985 25.796877 32.026836 25.654119 C 32.08627 25.511945 32.158523 25.37618 32.244177 25.24799 C 32.329831 25.119217 32.427139 25.000933 32.536683 24.891388 C 32.645645 24.782427 32.764512 24.685119 32.892702 24.599464 C 33.021475 24.513227 33.156657 24.440975 33.299415 24.382124 C 33.442172 24.32269 33.589008 24.278406 33.740505 24.248107 C 33.892002 24.217807 34.044665 24.20324 34.199076 24.20324 Z M 34.199076 24.20324 " stroke="#000000" stroke-width="1" stroke-opacity="1" stroke-miterlimit="4"/></g><path stroke-linecap="round" transform="matrix(6.70391, 0, 0, 6.70391, -14.974566, -26.689944)" fill="none" stroke-linejoin="round" d="M 34.387865 7.226791 C 34.387865 7.314776 34.383786 7.402761 34.375046 7.490163 C 34.366306 7.578148 34.353487 7.664968 34.336589 7.751205 C 34.319109 7.837442 34.297549 7.922513 34.272494 8.007002 C 34.246856 8.091491 34.217139 8.174232 34.183344 8.255225 C 34.149548 8.336801 34.112256 8.416045 34.070886 8.493542 C 34.029515 8.571039 33.984066 8.646788 33.935121 8.719623 C 33.886176 8.793041 33.833734 8.863545 33.777797 8.931719 C 33.722442 8.999893 33.663008 9.064571 33.601244 9.126918 C 33.538897 9.189265 33.473637 9.248116 33.405463 9.304053 C 33.337872 9.359991 33.266784 9.412432 33.193949 9.461378 C 33.120531 9.510323 33.045365 9.555189 32.967868 9.59656 C 32.889789 9.63793 32.810544 9.675805 32.729551 9.7096 C 32.647976 9.743396 32.565235 9.77253 32.480746 9.798168 C 32.39684 9.823806 32.311768 9.845365 32.224948 9.862263 C 32.138711 9.879743 32.051892 9.892562 31.964489 9.901303 C 31.876504 9.90946 31.789102 9.914122 31.701117 9.914122 C 31.613132 9.914122 31.525147 9.90946 31.437744 9.901303 C 31.349759 9.892562 31.26294 9.879743 31.176703 9.862263 C 31.090466 9.845365 31.005394 9.823806 30.920905 9.798168 C 30.836999 9.77253 30.754258 9.743396 30.672683 9.7096 C 30.59169 9.675805 30.511862 9.63793 30.434365 9.59656 C 30.356869 9.555189 30.28112 9.510323 30.208285 9.461378 C 30.134867 9.412432 30.064362 9.359991 29.996188 9.304053 C 29.928597 9.248116 29.863337 9.189265 29.80099 9.126918 C 29.738643 9.064571 29.679792 8.999893 29.623854 8.931719 C 29.567917 8.863545 29.515475 8.793041 29.467113 8.719623 C 29.418168 8.646788 29.372718 8.571039 29.331348 8.493542 C 29.289977 8.416045 29.252103 8.336801 29.218307 8.255225 C 29.185095 8.174232 29.155378 8.091491 29.12974 8.007002 C 29.104102 7.922513 29.082542 7.837442 29.065645 7.751205 C 29.048747 7.664968 29.035345 7.578148 29.027188 7.490163 C 29.018447 7.402761 29.013786 7.314776 29.013786 7.226791 C 29.013786 7.138806 29.018447 7.051403 29.027188 6.963418 C 29.035345 6.876016 29.048747 6.789196 29.065645 6.702959 C 29.082542 6.616722 29.104102 6.531068 29.12974 6.447162 C 29.155378 6.362673 29.185095 6.279932 29.218307 6.198939 C 29.252103 6.117364 29.289977 6.038119 29.331348 5.960622 C 29.372718 5.882543 29.418168 5.807377 29.467113 5.733959 C 29.515475 5.661123 29.567917 5.590619 29.623854 5.522445 C 29.679792 5.454271 29.738643 5.389011 29.80099 5.327246 C 29.863337 5.264899 29.928597 5.205466 29.996188 5.150111 C 30.064362 5.094173 30.134867 5.041732 30.208285 4.992787 C 30.28112 4.943841 30.356869 4.898975 30.434365 4.857022 C 30.511862 4.815651 30.59169 4.77836 30.672683 4.744564 C 30.754258 4.710768 30.836999 4.681052 30.920905 4.655414 C 31.005394 4.630358 31.090466 4.608799 31.176703 4.591901 C 31.26294 4.574421 31.350342 4.561602 31.437744 4.552862 C 31.525147 4.544121 31.613132 4.540043 31.701117 4.540043 C 31.789102 4.540043 31.876504 4.544121 31.964489 4.552862 C 32.051892 4.561602 32.138711 4.574421 32.224948 4.591901 C 32.311768 4.608799 32.39684 4.630358 32.480746 4.655414 C 32.565235 4.681052 32.647976 4.710768 32.729551 4.744564 C 32.810544 4.77836 32.889789 4.815651 32.967868 4.857022 C 33.045365 4.898975 33.120531 4.943841 33.193949 4.992787 C 33.266784 5.041732 33.337872 5.094173 33.405463 5.150111 C 33.473637 5.205466 33.538897 5.264899 33.601244 5.327246 C 33.663008 5.389011 33.722442 5.454271 33.777797 5.522445 C 33.833734 5.590619 33.886176 5.661123 33.935121 5.733959 C 33.984066 5.807377 34.029515 5.882543 34.070886 5.960622 C 34.112256 6.038119 34.149548 6.117364 34.183344 6.198939 C 34.217139 6.279932 34.246856 6.362673 34.272494 6.447162 C 34.297549 6.531068 34.319109 6.616722 34.336589 6.702959 C 34.353487 6.789196 34.366306 6.876016 34.375046 6.963418 C 34.383786 7.051403 34.387865 7.138806 34.387865 7.226791 Z M 34.387865 7.226791 " stroke="#000000" stroke-width="1" stroke-opacity="1" stroke-miterlimit="4"/><path stroke-linecap="round" transform="matrix(6.70391, 0, 0, 6.70391, -14.974566, -26.689944)" fill="none" stroke-linejoin="round" d="M 34.387865 56.772852 C 34.387865 56.860837 34.383786 56.948822 34.375046 57.036224 C 34.366306 57.124209 34.353487 57.211029 34.336589 57.297266 C 34.319109 57.383503 34.297549 57.468574 34.272494 57.553063 C 34.246856 57.63697 34.217139 57.719711 34.183344 57.801286 C 34.149548 57.882279 34.112256 57.962106 34.070886 58.039603 C 34.029515 58.1171 33.984066 58.192849 33.935121 58.265684 C 33.886176 58.339102 33.833734 58.409606 33.777797 58.47778 C 33.722442 58.545371 33.663008 58.610632 33.601244 58.672979 C 33.538897 58.735326 33.473637 58.794177 33.405463 58.850114 C 33.337872 58.906052 33.266784 58.958493 33.193949 59.007439 C 33.120531 59.055801 33.045365 59.10125 32.967868 59.142621 C 32.889789 59.183991 32.810544 59.221866 32.729551 59.255661 C 32.647976 59.288874 32.565235 59.318591 32.480746 59.344229 C 32.39684 59.369867 32.311768 59.391426 32.224948 59.408324 C 32.138711 59.425804 32.051892 59.438623 31.964489 59.446781 C 31.876504 59.455521 31.789102 59.460183 31.701117 59.460183 C 31.613132 59.460183 31.525147 59.455521 31.437744 59.446781 C 31.349759 59.438623 31.26294 59.425804 31.176703 59.408324 C 31.090466 59.391426 31.005394 59.369867 30.920905 59.344229 C 30.836999 59.318591 30.754258 59.288874 30.672683 59.255661 C 30.59169 59.221866 30.511862 59.183991 30.434365 59.142621 C 30.356869 59.10125 30.28112 59.055801 30.208285 59.007439 C 30.134867 58.958493 30.064362 58.906052 29.996188 58.850114 C 29.928597 58.794177 29.863337 58.735326 29.80099 58.672979 C 29.738643 58.610632 29.679792 58.545371 29.623854 58.47778 C 29.567917 58.409606 29.515475 58.339102 29.467113 58.265684 C 29.418168 58.192849 29.372718 58.1171 29.331348 58.039603 C 29.289977 57.962106 29.252103 57.882279 29.218307 57.801286 C 29.185095 57.719711 29.155378 57.63697 29.12974 57.553063 C 29.104102 57.468574 29.082542 57.383503 29.065645 57.297266 C 29.048747 57.211029 29.035345 57.124209 29.027188 57.036224 C 29.018447 56.948822 29.013786 56.860837 29.013786 56.772852 C 29.013786 56.684867 29.018447 56.597464 29.027188 56.509479 C 29.035345 56.422077 29.048747 56.335257 29.065645 56.24902 C 29.082542 56.162201 29.104102 56.077129 29.12974 55.993223 C 29.155378 55.908734 29.185095 55.825993 29.218307 55.745 C 29.252103 55.663425 29.289977 55.58418 29.331348 55.5061 C 29.372718 55.428604 29.418168 55.353438 29.467113 55.28002 C 29.515475 55.207184 29.567917 55.13668 29.623854 55.068506 C 29.679792 55.000332 29.738643 54.935072 29.80099 54.872725 C 29.863337 54.81096 29.928597 54.751527 29.996188 54.696172 C 30.064362 54.640234 30.134867 54.587793 30.208285 54.538848 C 30.28112 54.489902 30.356869 54.445036 30.434365 54.403083 C 30.511862 54.361712 30.59169 54.324421 30.672683 54.290625 C 30.754258 54.256829 30.836999 54.227113 30.920905 54.201475 C 31.005394 54.176419 31.090466 54.15486 31.176703 54.13738 C 31.26294 54.120482 31.350342 54.107663 31.437744 54.098923 C 31.525147 54.090182 31.613132 54.086104 31.701117 54.086104 C 31.789102 54.086104 31.876504 54.090182 31.964489 54.098923 C 32.051892 54.107663 32.138711 54.120482 32.224948 54.13738 C 32.311768 54.15486 32.39684 54.176419 32.480746 54.201475 C 32.565235 54.227113 32.647976 54.256829 32.729551 54.290625 C 32.810544 54.324421 32.889789 54.361712 32.967868 54.403083 C 33.045365 54.445036 33.120531 54.489902 33.193949 54.538848 C 33.266784 54.587793 33.337872 54.640234 33.405463 54.696172 C 33.473637 54.751527 33.538897 54.81096 33.601244 54.872725 C 33.663008 54.935072 33.722442 55.000332 33.777797 55.068506 C 33.833734 55.13668 33.886176 55.207184 33.935121 55.28002 C 33.984066 55.353438 34.029515 55.428604 34.070886 55.5061 C 34.112256 55.58418 34.149548 55.663425 34.183344 55.745 C 34.217139 55.825993 34.246856 55.908734 34.272494 55.993223 C 34.297549 56.077129 34.319109 56.162201 34.336589 56.24902 C 34.353487 56.335257 34.366306 56.422077 34.375046 56.509479 C 34.383786 56.597464 34.387865 56.684867 34.387865 56.772852 Z M 34.387865 56.772852 " stroke="#000000" stroke-width="1" stroke-opacity="1" stroke-miterlimit="4"/><path stroke-linecap="round" transform="matrix(6.70391, 0, 0, 6.70391, -14.974566, -26.689944)" fill="none" stroke-linejoin="round" d="M 9.613961 32.000113 C 9.613961 32.088098 9.609882 32.176083 9.601142 32.263485 C 9.592401 32.350887 9.579582 32.437707 9.562102 32.523944 C 9.545204 32.610764 9.523645 32.695835 9.498589 32.779742 C 9.472951 32.864231 9.443235 32.946971 9.409439 33.028547 C 9.375643 33.10954 9.338352 33.188785 9.296981 33.266864 C 9.255028 33.344361 9.210162 33.419527 9.161216 33.492945 C 9.112271 33.56578 9.05983 33.636867 9.003892 33.704458 C 8.948537 33.772632 8.889104 33.837893 8.826757 33.90024 C 8.764992 33.962004 8.699732 34.021438 8.631558 34.076792 C 8.563384 34.13273 8.49288 34.185171 8.420044 34.234117 C 8.346627 34.283062 8.27146 34.328511 8.193381 34.369882 C 8.115884 34.411252 8.03664 34.448544 7.955064 34.482339 C 7.874071 34.516135 7.79133 34.545852 7.706841 34.57149 C 7.622935 34.597128 7.537281 34.618104 7.451044 34.635585 C 7.364807 34.652483 7.277987 34.665302 7.190585 34.674042 C 7.1026 34.682782 7.015197 34.686861 6.927212 34.686861 C 6.839227 34.686861 6.751242 34.682782 6.66384 34.674042 C 6.575855 34.665302 6.489035 34.652483 6.402798 34.635585 C 6.316561 34.618104 6.23149 34.597128 6.147001 34.57149 C 6.062512 34.545852 5.979771 34.516135 5.898778 34.482339 C 5.817203 34.448544 5.737958 34.411252 5.660461 34.369882 C 5.582964 34.328511 5.507216 34.283062 5.43438 34.234117 C 5.360962 34.185171 5.290458 34.13273 5.222284 34.076792 C 5.15411 34.021438 5.089432 33.962004 5.027085 33.90024 C 4.964738 33.837893 4.905887 33.772632 4.84995 33.704458 C 4.794012 33.636867 4.741571 33.56578 4.692626 33.492945 C 4.64368 33.419527 4.598814 33.344361 4.557443 33.266864 C 4.516073 33.188785 4.478199 33.10954 4.444403 33.028547 C 4.410607 32.946971 4.381473 32.864231 4.355835 32.779742 C 4.330197 32.695835 4.308638 32.610764 4.29174 32.523944 C 4.27426 32.437707 4.261441 32.350887 4.2527 32.263485 C 4.244543 32.176083 4.239881 32.088098 4.239881 32.000113 C 4.239881 31.912128 4.244543 31.824143 4.2527 31.73674 C 4.261441 31.648755 4.27426 31.561936 4.29174 31.475699 C 4.308638 31.389462 4.330197 31.30439 4.355835 31.219901 C 4.381473 31.135995 4.410607 31.053254 4.444403 30.971678 C 4.478199 30.890685 4.516073 30.810858 4.557443 30.733361 C 4.598814 30.655864 4.64368 30.580116 4.692626 30.507281 C 4.741571 30.433863 4.794012 30.363358 4.84995 30.295184 C 4.905887 30.227593 4.964738 30.162333 5.027085 30.099986 C 5.089432 30.037639 5.15411 29.978788 5.222284 29.92285 C 5.290458 29.866913 5.360962 29.814471 5.43438 29.766109 C 5.507216 29.717163 5.582964 29.671714 5.660461 29.630344 C 5.737958 29.588973 5.817203 29.551099 5.898778 29.517303 C 5.979771 29.48409 6.062512 29.454374 6.147001 29.428736 C 6.23149 29.403097 6.316561 29.381538 6.402798 29.36464 C 6.489035 29.347743 6.575855 29.334341 6.66384 29.326183 C 6.751242 29.317443 6.839227 29.312782 6.927212 29.312782 C 7.015197 29.312782 7.1026 29.317443 7.190585 29.326183 C 7.277987 29.334341 7.364807 29.347743 7.451044 29.36464 C 7.537281 29.381538 7.622935 29.403097 7.706841 29.428736 C 7.79133 29.454374 7.874071 29.48409 7.955064 29.517303 C 8.03664 29.551099 8.115884 29.588973 8.193381 29.630344 C 8.27146 29.671714 8.346627 29.717163 8.420044 29.766109 C 8.49288 29.814471 8.563384 29.866913 8.631558 29.92285 C 8.699732 29.978788 8.764992 30.037639 8.826757 30.099986 C 8.889104 30.162333 8.948537 30.227593 9.003892 30.295184 C 9.05983 30.363358 9.112271 30.433863 9.161216 30.507281 C 9.210162 30.580116 9.255028 30.655864 9.296981 30.733361 C 9.338352 30.810858 9.375643 30.890685 9.409439 30.971678 C 9.443235 31.053254 9.472951 31.135995 9.498589 31.219901 C 9.523645 31.30439 9.545204 31.389462 9.562102 31.475699 C 9.579582 31.561936 9.592401 31.648755 9.601142 31.73674 C 9.609882 31.824143 9.613961 31.912128 9.613961 32.000113 Z M 9.613961 32.000113 " stroke="#000000" stroke-width="1" stroke-opacity="1" stroke-miterlimit="4"/><path stroke-linecap="round" transform="matrix(6.70391, 0, 0, 6.70391, -14.974566, -26.689944)" fill="none" stroke-linejoin="round" d="M 14.189765 46.839283 C 13.5022 46.839283 12.812887 47.100908 12.29022 47.624739 C 11.24314 48.672985 11.24314 50.376748 12.29022 51.424993 C 12.797154 51.931927 13.4719 52.211032 14.188017 52.211032 L 14.189765 52.211032 C 14.907047 52.211032 15.581793 51.930762 16.088727 51.423245 C 16.596243 50.915146 16.874765 50.240983 16.874765 49.524284 C 16.874765 48.807002 16.596243 48.13109 16.088144 47.624739 C 15.564895 47.102073 14.876165 46.839866 14.189182 46.839866 Z M 14.189765 46.839283 " stroke="#000000" stroke-width="1" stroke-opacity="1" stroke-miterlimit="4"/><path stroke-linecap="round" transform="matrix(6.70391, 0, 0, 6.70391, -14.974566, -26.689944)" fill="none" stroke-linejoin="round" d="M 14.176946 11.803178 L 14.175198 11.803178 C 13.457916 11.803178 12.78317 12.082865 12.276236 12.590964 C 11.229156 13.63921 11.229156 15.342973 12.276236 16.391218 C 13.322734 17.435968 15.028827 17.437133 16.075908 16.388888 C 17.122988 15.341225 17.122988 13.636879 16.075908 12.589216 C 15.568974 12.082283 14.894228 11.803178 14.178111 11.803178 Z M 14.176946 11.803178 " stroke="#000000" stroke-width="1" stroke-opacity="1" stroke-miterlimit="4"/><path stroke-linecap="round" transform="matrix(6.70391, 0, 0, 6.70391, -14.974566, -26.689944)" fill="none" stroke-linejoin="round" d="M 17.698095 11.560782 C 20.359788 9.734073 23.396146 8.413715 26.669072 7.737803 " stroke="#000000" stroke-width="1" stroke-opacity="1" stroke-miterlimit="4"/><path stroke-linecap="round" transform="matrix(6.70391, 0, 0, 6.70391, -14.974566, -26.689944)" fill="none" stroke-linejoin="round" d="M 7.53495 26.524064 C 8.199208 23.579188 9.38788 20.834171 10.997831 18.389819 " stroke="#000000" stroke-width="1" stroke-opacity="1" stroke-miterlimit="4"/><path stroke-linecap="round" transform="matrix(6.70391, 0, 0, 6.70391, -14.974566, -26.689944)" fill="none" stroke-linejoin="round" d="M 10.985012 45.591761 C 9.376809 43.146243 8.189885 40.398896 7.529123 37.452271 " stroke="#000000" stroke-width="1" stroke-opacity="1" stroke-miterlimit="4"/><path stroke-linecap="round" transform="matrix(6.70391, 0, 0, 6.70391, -14.974566, -26.689944)" fill="none" stroke-linejoin="round" d="M 26.667907 56.261839 C 23.664762 55.641865 20.860895 54.478831 18.362936 52.879951 " stroke="#000000" stroke-width="1" stroke-opacity="1" stroke-miterlimit="4"/><path stroke-linecap="round" transform="matrix(6.70391, 0, 0, 6.70391, -14.974566, -26.689944)" fill="none" stroke-linejoin="round" d="M 47.233097 22.764015 C 44.080203 17.46685 38.312231 13.91074 31.699952 13.91074 C 21.70928 13.91074 13.611161 22.010024 13.611161 32.000113 C 13.611161 41.990201 21.709863 50.088903 31.699952 50.088903 C 38.191033 50.088903 43.869272 46.660983 47.05771 41.524055 " stroke="#000000" stroke-width="1" stroke-opacity="1" stroke-miterlimit="4"/><path stroke-linecap="round" transform="matrix(6.70391, 0, 0, 6.70391, -14.974566, -26.689944)" fill="none" stroke-linejoin="round" d="M 37.569893 22.455776 C 36.349756 17.32992 34.179848 13.910157 31.701117 13.910157 C 27.879886 13.910157 24.781764 22.008859 24.781764 31.998947 C 24.781764 41.989036 27.879886 50.087737 31.701117 50.087737 C 34.183926 50.087737 36.356166 46.659235 37.575137 41.521142 " stroke="#000000" stroke-width="1" stroke-opacity="1" stroke-miterlimit="4"/><path stroke-linecap="round" transform="matrix(6.70391, 0, 0, 6.70391, -14.974566, -26.689944)" fill="none" stroke-linejoin="round" d="M 29.852266 25.116886 C 20.729791 25.471157 13.611161 28.417782 13.611161 32.000113 C 13.611161 35.581861 20.729791 38.529068 29.852849 38.882756 " stroke="#000000" stroke-width="1" stroke-opacity="1" stroke-miterlimit="4"/><path fill="#000000" d="M 267.695312 175.445312 C 267.695312 181.332031 264.523438 185.972656 259.542969 187.78125 C 264.523438 189.707031 267.695312 194.230469 267.695312 200.109375 L 267.695312 210.300781 C 267.695312 219.921875 261.695312 224.558594 251.621094 224.558594 C 241.542969 224.558594 235.542969 219.921875 235.542969 210.300781 L 235.542969 200.566406 L 244.488281 200.566406 L 244.488281 210.070312 C 244.488281 214.375 246.640625 216.871094 251.613281 216.871094 C 256.585938 216.871094 258.738281 214.382812 258.738281 210.070312 L 258.738281 199.660156 C 258.738281 195.023438 255.347656 191.621094 250.707031 191.621094 L 243.46875 191.621094 L 243.46875 183.933594 L 250.707031 184.046875 C 255.347656 184.046875 258.738281 180.542969 258.738281 175.894531 L 258.738281 165.484375 C 258.738281 161.1875 256.585938 158.808594 251.613281 158.808594 C 246.640625 158.808594 244.488281 161.179688 244.488281 165.484375 L 244.488281 175.105469 L 235.542969 175.105469 L 235.542969 165.257812 C 235.542969 155.636719 241.542969 151.109375 251.621094 151.109375 C 261.695312 151.109375 267.695312 155.636719 267.695312 165.257812 Z M 267.695312 175.445312 " fill-opacity="1" fill-rule="nonzero"/><path fill="#000000" d="M 276.980469 218.902344 C 276.980469 215.621094 279.355469 213.242188 282.640625 213.242188 C 285.921875 213.242188 288.191406 215.617188 288.191406 218.902344 C 288.191406 222.1875 285.929688 224.558594 282.640625 224.558594 C 279.347656 224.558594 276.980469 222.1875 276.980469 218.902344 Z M 276.980469 218.902344 " fill-opacity="1" fill-rule="nonzero"/><path fill="#000000" d="M 297.460938 210.300781 L 297.460938 165.257812 C 297.460938 155.636719 303.460938 151.109375 313.539062 151.109375 C 323.613281 151.109375 329.613281 155.636719 329.613281 165.257812 L 329.613281 210.300781 C 329.613281 219.921875 323.613281 224.558594 313.539062 224.558594 C 303.460938 224.558594 297.460938 219.921875 297.460938 210.300781 Z M 320.664062 210.070312 L 320.664062 165.484375 C 320.664062 161.1875 318.511719 158.808594 313.539062 158.808594 C 308.5625 158.808594 306.410156 161.179688 306.410156 165.484375 L 306.410156 210.070312 C 306.410156 214.375 308.5625 216.871094 313.539062 216.871094 C 318.511719 216.871094 320.664062 214.382812 320.664062 210.070312 Z M 320.664062 210.070312 " fill-opacity="1" fill-rule="nonzero"/></svg>