<svg xmlns="http://www.w3.org/2000/svg" xmlns:xlink="http://www.w3.org/1999/xlink" width="500" zoomAndPan="magnify" viewBox="0 0 375 374.999991" height="500" preserveAspectRatio="xMidYMid meet" version="1.0"><defs><clipPath id="7fe1a1144c"><path d="M 0 18 L 375 18 L 375 357 L 0 357 Z M 0 18 " clip-rule="nonzero"/></clipPath><clipPath id="1ed5d649a8"><path d="M 142.8125 181.40625 C 118.828125 181.40625 99.375 161.875 99.375 137.96875 L 99.375 110.9375 C 130.625 105.46875 152.96875 97.890625 165.78125 88.359375 C 167.109375 87.34375 168.28125 86.328125 169.375 85.390625 C 171.328125 94.453125 175.859375 105.15625 186.09375 107.96875 L 186.09375 138.046875 C 186.09375 161.953125 166.640625 181.40625 142.8125 181.40625 Z M 85.625 136.015625 L 90.078125 136.015625 L 90.078125 120.9375 L 85.625 120.9375 C 85.390625 120.9375 85.078125 120.9375 84.84375 120.9375 C 84.140625 121.328125 83.359375 121.5625 82.5 121.5625 C 79.84375 122.734375 78.046875 125.390625 78.046875 128.4375 C 78.125 132.65625 81.484375 136.015625 85.625 136.015625 Z M 90.078125 107.109375 C 90.078125 104.84375 91.71875 102.890625 93.90625 102.578125 C 163.125 91.171875 167.578125 73.125 167.8125 72.03125 C 167.890625 69.53125 169.84375 67.578125 172.34375 67.5 C 174.84375 67.5 176.953125 69.453125 177.03125 71.953125 L 177.03125 72.109375 C 177.03125 73.046875 177.65625 98.90625 190.9375 99.453125 C 193.4375 99.53125 195.390625 101.5625 195.390625 104.0625 L 195.390625 111.71875 L 199.921875 111.71875 L 199.921875 78.4375 C 199.921875 75.9375 199.6875 73.75 199.296875 71.71875 C 195.46875 52.421875 178.203125 53.75 177.5 53.828125 C 175.078125 54.0625 172.890625 52.34375 172.5 49.921875 C 171.484375 43.515625 164.21875 39.84375 162.65625 39.140625 C 142.265625 34.609375 124.53125 35.703125 109.84375 42.34375 C 96.015625 48.59375 87.109375 62.5 87.109375 77.734375 L 87.109375 111.71875 L 90.078125 111.71875 Z M 195.390625 136.015625 L 200 136.015625 C 204.140625 136.015625 207.5 132.65625 207.5 128.515625 C 207.5 124.375 204.140625 121.015625 200 121.015625 L 195.390625 121.015625 Z M 126.328125 188.046875 L 126.328125 196.40625 C 126.328125 196.484375 126.328125 196.640625 126.328125 196.796875 L 126.328125 199.453125 C 126.328125 208.515625 133.671875 215.859375 142.734375 215.859375 C 151.796875 215.859375 159.140625 208.515625 159.140625 199.453125 L 159.140625 196.71875 C 159.140625 196.640625 159.140625 196.484375 159.140625 196.40625 L 159.140625 188.046875 C 153.984375 189.765625 148.4375 190.625 142.734375 190.625 C 137.03125 190.625 131.484375 189.765625 126.328125 188.046875 Z M 62.8125 318.59375 C 62.890625 318.359375 62.890625 318.125 62.890625 317.890625 C 62.890625 317.734375 62.8125 317.5 62.8125 317.34375 L 62.8125 256.484375 C 62.8125 254.84375 64.21875 253.4375 65.859375 253.4375 L 220.3125 253.4375 C 221.953125 253.4375 223.359375 254.84375 223.359375 256.484375 L 223.359375 334.84375 C 223.359375 336.484375 221.953125 337.890625 220.3125 337.890625 L 65.78125 337.890625 C 64.140625 337.890625 62.734375 336.484375 62.734375 334.84375 L 62.8125 334.84375 Z M 148.59375 280.703125 C 147.34375 282.96875 148.125 285.78125 150.3125 287.03125 L 165.546875 295.859375 L 150.3125 304.6875 C 148.046875 306.015625 147.34375 308.828125 148.59375 311.015625 C 149.453125 312.5 151.015625 313.359375 152.578125 313.359375 C 153.359375 313.359375 154.140625 313.125 154.84375 312.734375 L 177.03125 299.921875 C 178.515625 299.140625 179.375 297.578125 179.375 295.9375 C 179.375 294.296875 178.4375 292.8125 177.03125 291.953125 L 154.84375 279.140625 C 152.65625 277.8125 149.84375 278.59375 148.59375 280.703125 Z M 140.78125 270.703125 L 128.90625 318.90625 C 128.28125 321.328125 129.765625 323.828125 132.265625 324.453125 C 132.65625 324.53125 132.96875 324.609375 133.359375 324.609375 C 135.390625 324.609375 137.265625 323.203125 137.8125 321.09375 L 149.6875 272.890625 C 150.3125 270.46875 148.828125 267.96875 146.328125 267.34375 C 143.828125 266.71875 141.328125 268.203125 140.78125 270.703125 Z M 99.21875 296.09375 C 99.21875 297.734375 100.15625 299.21875 101.5625 300.078125 L 123.75 312.890625 C 124.453125 313.28125 125.234375 313.515625 126.015625 313.515625 C 127.578125 313.515625 129.140625 312.65625 130 311.171875 C 131.25 308.90625 130.46875 306.09375 128.28125 304.84375 L 113.046875 296.015625 L 128.28125 287.1875 C 130.546875 285.859375 131.25 283.046875 130 280.859375 C 128.671875 278.59375 125.859375 277.890625 123.671875 279.140625 L 101.484375 291.953125 C 100.078125 292.734375 99.21875 294.296875 99.21875 296.09375 Z M 53.515625 277.34375 L 44.296875 277.34375 C 44.296875 288.828125 46.171875 302.03125 53.515625 309.453125 Z M 53.515625 256.484375 C 53.515625 249.6875 59.0625 244.21875 65.78125 244.21875 L 220.3125 244.21875 C 227.109375 244.21875 232.578125 249.765625 232.578125 256.484375 L 232.578125 268.125 L 240.703125 268.125 C 240.703125 267.65625 240.625 267.1875 240.625 266.71875 C 239.140625 249.140625 231.953125 232.65625 220.46875 220.3125 C 200.9375 199.375 178.59375 199.21875 168.28125 200.546875 C 167.734375 214.140625 156.484375 225.078125 142.734375 225.078125 C 128.984375 225.078125 117.734375 214.140625 117.109375 200.546875 C 106.796875 199.21875 84.453125 199.453125 64.921875 220.3125 C 53.515625 232.5 46.328125 248.75 44.765625 265.9375 C 44.6875 266.640625 44.609375 267.34375 44.609375 268.046875 L 53.515625 268.046875 Z M 241.09375 277.34375 L 232.65625 277.34375 L 232.65625 308.59375 C 239.375 301.09375 241.09375 288.359375 241.09375 277.34375 Z M 0 356.25 L 277.890625 356.25 L 277.890625 347.1875 L 0 347.1875 Z M 233.515625 49.21875 L 375 49.21875 L 375 137.578125 C 375 139.296875 373.59375 140.703125 371.875 140.703125 L 236.640625 140.703125 C 234.921875 140.703125 233.515625 139.296875 233.515625 137.578125 Z M 267.734375 102.734375 L 257.734375 107.265625 C 256.015625 108.046875 255 109.6875 255 111.5625 C 255 113.4375 256.09375 115.078125 257.8125 115.78125 L 304.140625 135.234375 C 304.765625 135.46875 305.3125 135.625 305.9375 135.625 C 306.640625 135.625 307.265625 135.46875 307.890625 135.15625 L 351.015625 114.6875 C 352.65625 113.984375 353.671875 112.34375 353.671875 110.546875 C 353.671875 108.75 352.65625 107.109375 351.015625 106.328125 L 341.71875 101.953125 L 351.015625 97.578125 C 352.65625 96.875 353.671875 95.234375 353.671875 93.4375 C 353.671875 91.640625 352.65625 90.078125 351.015625 89.296875 L 341.71875 84.921875 L 351.015625 80.546875 C 352.65625 79.84375 353.671875 78.203125 353.671875 76.40625 C 353.671875 74.609375 352.65625 73.046875 351.015625 72.265625 L 307.96875 52.03125 C 306.796875 51.484375 305.390625 51.484375 304.140625 52.03125 L 257.8125 72.96875 C 256.09375 73.75 255.078125 75.46875 255.078125 77.265625 C 255.078125 79.140625 256.171875 80.78125 257.890625 81.484375 L 267.734375 85.625 L 257.734375 90.15625 C 256.015625 90.9375 255 92.65625 255 94.453125 C 255 96.328125 256.09375 97.96875 257.8125 98.671875 Z M 307.890625 118.046875 C 307.265625 118.359375 306.640625 118.515625 305.9375 118.515625 C 305.3125 118.515625 304.765625 118.359375 304.140625 118.125 L 279.296875 107.65625 L 271.171875 111.328125 L 305.859375 125.859375 L 338.125 110.78125 L 330.78125 107.34375 Z M 305.78125 108.75 L 338.046875 93.59375 L 330.703125 90.15625 L 307.8125 100.859375 C 307.265625 101.25 306.5625 101.328125 305.9375 101.328125 C 305.3125 101.328125 304.765625 101.171875 304.140625 100.9375 L 297.03125 97.96875 L 296.953125 97.96875 L 279.21875 90.546875 L 271.09375 94.21875 L 280.9375 98.359375 Z M 281.09375 81.328125 L 300.546875 89.53125 L 305.78125 91.71875 L 328.828125 80.9375 L 338.046875 76.5625 L 305.859375 61.40625 L 271.09375 77.109375 L 280.78125 81.171875 C 280.9375 81.25 281.015625 81.328125 281.09375 81.328125 Z M 375 21.875 L 375 39.921875 L 233.515625 39.921875 L 233.515625 21.796875 C 233.515625 20.15625 234.921875 18.75 236.640625 18.75 L 371.875 18.75 C 373.59375 18.75 375 20.15625 375 21.875 Z M 253.828125 30.3125 C 253.828125 27.578125 251.640625 25.390625 248.90625 25.390625 C 246.171875 25.390625 243.984375 27.578125 243.984375 30.3125 C 243.984375 33.046875 246.171875 35.234375 248.90625 35.234375 C 251.640625 35.234375 253.828125 33.046875 253.828125 30.3125 Z M 271.875 30.3125 C 271.875 27.578125 269.6875 25.390625 266.953125 25.390625 C 264.21875 25.390625 262.03125 27.578125 262.03125 30.3125 C 262.03125 33.046875 264.21875 35.234375 266.953125 35.234375 C 269.6875 35.234375 271.875 33.046875 271.875 30.3125 Z M 290 30.3125 C 290 27.578125 287.8125 25.390625 285.078125 25.390625 C 282.34375 25.390625 280.15625 27.578125 280.15625 30.3125 C 280.15625 33.046875 282.34375 35.234375 285.078125 35.234375 C 287.734375 35.234375 289.921875 33.046875 290 30.3125 Z M 369.765625 30.390625 C 369.765625 27.8125 367.734375 25.78125 365.15625 25.78125 L 302.96875 25.78125 C 300.390625 25.78125 298.359375 27.8125 298.359375 30.390625 C 298.359375 32.96875 300.390625 35 302.96875 35 L 365.15625 35 C 367.65625 35 369.765625 32.890625 369.765625 30.390625 Z M 369.765625 30.390625 " clip-rule="nonzero"/></clipPath><linearGradient x1="275" gradientTransform="matrix(0.78125, 0, 0, 0.78125, -27.343743, -27.343749)" y1="59.000004" x2="275" gradientUnits="userSpaceOnUse" y2="491.000015" id="3f90c9faf7"><stop stop-opacity="1" stop-color="rgb(7.058716%, 41.958618%, 100%)" offset="0"/><stop stop-opacity="1" stop-color="rgb(7.3349%, 41.836548%, 100%)" offset="0.00390625"/><stop stop-opacity="1" stop-color="rgb(7.611084%, 41.714478%, 100%)" offset="0.0078125"/><stop stop-opacity="1" stop-color="rgb(7.885742%, 41.590881%, 100%)" offset="0.0117188"/><stop stop-opacity="1" stop-color="rgb(8.161926%, 41.468811%, 100%)" offset="0.015625"/><stop stop-opacity="1" stop-color="rgb(8.43811%, 41.346741%, 100%)" offset="0.0195313"/><stop stop-opacity="1" stop-color="rgb(8.714294%, 41.22467%, 100%)" offset="0.0234375"/><stop stop-opacity="1" stop-color="rgb(8.988953%, 41.101074%, 100%)" offset="0.0273438"/><stop stop-opacity="1" stop-color="rgb(9.265137%, 40.979004%, 100%)" offset="0.03125"/><stop stop-opacity="1" stop-color="rgb(9.539795%, 40.855408%, 100%)" offset="0.0351563"/><stop stop-opacity="1" stop-color="rgb(9.815979%, 40.733337%, 100%)" offset="0.0390625"/><stop stop-opacity="1" stop-color="rgb(10.092163%, 40.611267%, 100%)" offset="0.0429688"/><stop stop-opacity="1" stop-color="rgb(10.368347%, 40.489197%, 100%)" offset="0.046875"/><stop stop-opacity="1" stop-color="rgb(10.643005%, 40.365601%, 100%)" offset="0.0507813"/><stop stop-opacity="1" stop-color="rgb(10.919189%, 40.24353%, 100%)" offset="0.0546875"/><stop stop-opacity="1" stop-color="rgb(11.195374%, 40.119934%, 100%)" offset="0.0585938"/><stop stop-opacity="1" stop-color="rgb(11.471558%, 39.997864%, 100%)" offset="0.0625"/><stop stop-opacity="1" stop-color="rgb(11.746216%, 39.875793%, 100%)" offset="0.0664063"/><stop stop-opacity="1" stop-color="rgb(12.0224%, 39.753723%, 100%)" offset="0.0703125"/><stop stop-opacity="1" stop-color="rgb(12.298584%, 39.630127%, 100%)" offset="0.0742188"/><stop stop-opacity="1" stop-color="rgb(12.574768%, 39.508057%, 100%)" offset="0.078125"/><stop stop-opacity="1" stop-color="rgb(12.849426%, 39.385986%, 100%)" offset="0.0820313"/><stop stop-opacity="1" stop-color="rgb(13.12561%, 39.263916%, 100%)" offset="0.0859375"/><stop stop-opacity="1" stop-color="rgb(13.400269%, 39.14032%, 100%)" offset="0.0898438"/><stop stop-opacity="1" stop-color="rgb(13.676453%, 39.01825%, 100%)" offset="0.09375"/><stop stop-opacity="1" stop-color="rgb(13.952637%, 38.894653%, 100%)" offset="0.0976563"/><stop stop-opacity="1" stop-color="rgb(14.228821%, 38.772583%, 100%)" offset="0.101563"/><stop stop-opacity="1" stop-color="rgb(14.503479%, 38.650513%, 100%)" offset="0.105469"/><stop stop-opacity="1" stop-color="rgb(14.779663%, 38.528442%, 100%)" offset="0.109375"/><stop stop-opacity="1" stop-color="rgb(15.055847%, 38.404846%, 100%)" offset="0.113281"/><stop stop-opacity="1" stop-color="rgb(15.332031%, 38.282776%, 100%)" offset="0.117188"/><stop stop-opacity="1" stop-color="rgb(15.606689%, 38.160706%, 100%)" offset="0.121094"/><stop stop-opacity="1" stop-color="rgb(15.882874%, 38.038635%, 100%)" offset="0.125"/><stop stop-opacity="1" stop-color="rgb(16.157532%, 37.915039%, 100%)" offset="0.128906"/><stop stop-opacity="1" stop-color="rgb(16.433716%, 37.792969%, 100%)" offset="0.132812"/><stop stop-opacity="1" stop-color="rgb(16.7099%, 37.669373%, 100%)" offset="0.136719"/><stop stop-opacity="1" stop-color="rgb(16.986084%, 37.547302%, 100%)" offset="0.140625"/><stop stop-opacity="1" stop-color="rgb(17.260742%, 37.425232%, 100%)" offset="0.144531"/><stop stop-opacity="1" stop-color="rgb(17.536926%, 37.303162%, 100%)" offset="0.148438"/><stop stop-opacity="1" stop-color="rgb(17.81311%, 37.179565%, 100%)" offset="0.152344"/><stop stop-opacity="1" stop-color="rgb(18.089294%, 37.057495%, 100%)" offset="0.15625"/><stop stop-opacity="1" stop-color="rgb(18.363953%, 36.935425%, 100%)" offset="0.160156"/><stop stop-opacity="1" stop-color="rgb(18.640137%, 36.813354%, 100%)" offset="0.164062"/><stop stop-opacity="1" stop-color="rgb(18.916321%, 36.689758%, 100%)" offset="0.167969"/><stop stop-opacity="1" stop-color="rgb(19.192505%, 36.567688%, 100%)" offset="0.171875"/><stop stop-opacity="1" stop-color="rgb(19.467163%, 36.444092%, 100%)" offset="0.175781"/><stop stop-opacity="1" stop-color="rgb(19.743347%, 36.322021%, 100%)" offset="0.179688"/><stop stop-opacity="1" stop-color="rgb(20.018005%, 36.199951%, 100%)" offset="0.183594"/><stop stop-opacity="1" stop-color="rgb(20.294189%, 36.077881%, 100%)" offset="0.1875"/><stop stop-opacity="1" stop-color="rgb(20.570374%, 35.954285%, 100%)" offset="0.191406"/><stop stop-opacity="1" stop-color="rgb(20.846558%, 35.832214%, 100%)" offset="0.195312"/><stop stop-opacity="1" stop-color="rgb(21.121216%, 35.708618%, 100%)" offset="0.199219"/><stop stop-opacity="1" stop-color="rgb(21.3974%, 35.586548%, 100%)" offset="0.203125"/><stop stop-opacity="1" stop-color="rgb(21.673584%, 35.464478%, 100%)" offset="0.207031"/><stop stop-opacity="1" stop-color="rgb(21.949768%, 35.342407%, 100%)" offset="0.210938"/><stop stop-opacity="1" stop-color="rgb(22.224426%, 35.218811%, 100%)" offset="0.214844"/><stop stop-opacity="1" stop-color="rgb(22.50061%, 35.096741%, 100%)" offset="0.21875"/><stop stop-opacity="1" stop-color="rgb(22.776794%, 34.97467%, 100%)" offset="0.222656"/><stop stop-opacity="1" stop-color="rgb(23.052979%, 34.8526%, 100%)" offset="0.226563"/><stop stop-opacity="1" stop-color="rgb(23.327637%, 34.729004%, 100%)" offset="0.230469"/><stop stop-opacity="1" stop-color="rgb(23.603821%, 34.606934%, 100%)" offset="0.234375"/><stop stop-opacity="1" stop-color="rgb(23.878479%, 34.483337%, 100%)" offset="0.238281"/><stop stop-opacity="1" stop-color="rgb(24.154663%, 34.361267%, 100%)" offset="0.242188"/><stop stop-opacity="1" stop-color="rgb(24.430847%, 34.239197%, 100%)" offset="0.246094"/><stop stop-opacity="1" stop-color="rgb(24.707031%, 34.117126%, 100%)" offset="0.25"/><stop stop-opacity="1" stop-color="rgb(24.981689%, 33.99353%, 100%)" offset="0.253906"/><stop stop-opacity="1" stop-color="rgb(25.257874%, 33.87146%, 100%)" offset="0.257812"/><stop stop-opacity="1" stop-color="rgb(25.534058%, 33.74939%, 100%)" offset="0.261719"/><stop stop-opacity="1" stop-color="rgb(25.810242%, 33.627319%, 100%)" offset="0.265625"/><stop stop-opacity="1" stop-color="rgb(26.0849%, 33.503723%, 100%)" offset="0.269531"/><stop stop-opacity="1" stop-color="rgb(26.361084%, 33.381653%, 100%)" offset="0.273438"/><stop stop-opacity="1" stop-color="rgb(26.635742%, 33.258057%, 100%)" offset="0.277344"/><stop stop-opacity="1" stop-color="rgb(26.911926%, 33.135986%, 100%)" offset="0.28125"/><stop stop-opacity="1" stop-color="rgb(27.18811%, 33.013916%, 100%)" offset="0.285156"/><stop stop-opacity="1" stop-color="rgb(27.464294%, 32.891846%, 100%)" offset="0.289063"/><stop stop-opacity="1" stop-color="rgb(27.738953%, 32.76825%, 100%)" offset="0.292969"/><stop stop-opacity="1" stop-color="rgb(28.015137%, 32.646179%, 100%)" offset="0.296875"/><stop stop-opacity="1" stop-color="rgb(28.291321%, 32.522583%, 100%)" offset="0.300781"/><stop stop-opacity="1" stop-color="rgb(28.567505%, 32.400513%, 100%)" offset="0.304688"/><stop stop-opacity="1" stop-color="rgb(28.842163%, 32.278442%, 100%)" offset="0.308594"/><stop stop-opacity="1" stop-color="rgb(29.118347%, 32.156372%, 100%)" offset="0.3125"/><stop stop-opacity="1" stop-color="rgb(29.394531%, 32.032776%, 100%)" offset="0.316406"/><stop stop-opacity="1" stop-color="rgb(29.670715%, 31.910706%, 100%)" offset="0.320313"/><stop stop-opacity="1" stop-color="rgb(29.945374%, 31.788635%, 100%)" offset="0.324219"/><stop stop-opacity="1" stop-color="rgb(30.221558%, 31.666565%, 100%)" offset="0.328125"/><stop stop-opacity="1" stop-color="rgb(30.496216%, 31.542969%, 100%)" offset="0.332031"/><stop stop-opacity="1" stop-color="rgb(30.7724%, 31.420898%, 100%)" offset="0.335938"/><stop stop-opacity="1" stop-color="rgb(31.048584%, 31.297302%, 100%)" offset="0.339844"/><stop stop-opacity="1" stop-color="rgb(31.324768%, 31.175232%, 100%)" offset="0.34375"/><stop stop-opacity="1" stop-color="rgb(31.599426%, 31.053162%, 100%)" offset="0.347656"/><stop stop-opacity="1" stop-color="rgb(31.87561%, 30.931091%, 100%)" offset="0.351563"/><stop stop-opacity="1" stop-color="rgb(32.151794%, 30.807495%, 100%)" offset="0.355469"/><stop stop-opacity="1" stop-color="rgb(32.427979%, 30.685425%, 100%)" offset="0.359375"/><stop stop-opacity="1" stop-color="rgb(32.702637%, 30.563354%, 100%)" offset="0.363281"/><stop stop-opacity="1" stop-color="rgb(32.978821%, 30.441284%, 100%)" offset="0.367188"/><stop stop-opacity="1" stop-color="rgb(33.255005%, 30.317688%, 100%)" offset="0.371094"/><stop stop-opacity="1" stop-color="rgb(33.531189%, 30.195618%, 100%)" offset="0.375"/><stop stop-opacity="1" stop-color="rgb(33.805847%, 30.072021%, 100%)" offset="0.378906"/><stop stop-opacity="1" stop-color="rgb(34.082031%, 29.949951%, 100%)" offset="0.382813"/><stop stop-opacity="1" stop-color="rgb(34.356689%, 29.827881%, 100%)" offset="0.386719"/><stop stop-opacity="1" stop-color="rgb(34.632874%, 29.705811%, 100%)" offset="0.390625"/><stop stop-opacity="1" stop-color="rgb(34.909058%, 29.582214%, 100%)" offset="0.394531"/><stop stop-opacity="1" stop-color="rgb(35.185242%, 29.460144%, 100%)" offset="0.398438"/><stop stop-opacity="1" stop-color="rgb(35.4599%, 29.336548%, 100%)" offset="0.402344"/><stop stop-opacity="1" stop-color="rgb(35.736084%, 29.214478%, 100%)" offset="0.40625"/><stop stop-opacity="1" stop-color="rgb(36.012268%, 29.092407%, 100%)" offset="0.410156"/><stop stop-opacity="1" stop-color="rgb(36.288452%, 28.970337%, 100%)" offset="0.414063"/><stop stop-opacity="1" stop-color="rgb(36.56311%, 28.846741%, 100%)" offset="0.417969"/><stop stop-opacity="1" stop-color="rgb(36.839294%, 28.72467%, 100%)" offset="0.421875"/><stop stop-opacity="1" stop-color="rgb(37.113953%, 28.6026%, 100%)" offset="0.425781"/><stop stop-opacity="1" stop-color="rgb(37.390137%, 28.48053%, 100%)" offset="0.429688"/><stop stop-opacity="1" stop-color="rgb(37.666321%, 28.356934%, 100%)" offset="0.433594"/><stop stop-opacity="1" stop-color="rgb(37.942505%, 28.234863%, 100%)" offset="0.4375"/><stop stop-opacity="1" stop-color="rgb(38.217163%, 28.111267%, 100%)" offset="0.441406"/><stop stop-opacity="1" stop-color="rgb(38.493347%, 27.989197%, 100%)" offset="0.445313"/><stop stop-opacity="1" stop-color="rgb(38.769531%, 27.867126%, 100%)" offset="0.449219"/><stop stop-opacity="1" stop-color="rgb(39.045715%, 27.745056%, 100%)" offset="0.453125"/><stop stop-opacity="1" stop-color="rgb(39.320374%, 27.62146%, 100%)" offset="0.457031"/><stop stop-opacity="1" stop-color="rgb(39.596558%, 27.49939%, 100%)" offset="0.460938"/><stop stop-opacity="1" stop-color="rgb(39.872742%, 27.377319%, 100%)" offset="0.464844"/><stop stop-opacity="1" stop-color="rgb(40.148926%, 27.255249%, 100%)" offset="0.46875"/><stop stop-opacity="1" stop-color="rgb(40.423584%, 27.131653%, 100%)" offset="0.472656"/><stop stop-opacity="1" stop-color="rgb(40.699768%, 27.009583%, 100%)" offset="0.476563"/><stop stop-opacity="1" stop-color="rgb(40.974426%, 26.885986%, 100%)" offset="0.480469"/><stop stop-opacity="1" stop-color="rgb(41.25061%, 26.763916%, 100%)" offset="0.484375"/><stop stop-opacity="1" stop-color="rgb(41.526794%, 26.641846%, 100%)" offset="0.488281"/><stop stop-opacity="1" stop-color="rgb(41.802979%, 26.519775%, 100%)" offset="0.492188"/><stop stop-opacity="1" stop-color="rgb(42.077637%, 26.396179%, 100%)" offset="0.496094"/><stop stop-opacity="1" stop-color="rgb(42.353821%, 26.274109%, 100%)" offset="0.5"/><stop stop-opacity="1" stop-color="rgb(42.630005%, 26.150513%, 100%)" offset="0.503906"/><stop stop-opacity="1" stop-color="rgb(42.906189%, 26.028442%, 100%)" offset="0.507812"/><stop stop-opacity="1" stop-color="rgb(43.180847%, 25.906372%, 100%)" offset="0.511719"/><stop stop-opacity="1" stop-color="rgb(43.457031%, 25.784302%, 100%)" offset="0.515625"/><stop stop-opacity="1" stop-color="rgb(43.733215%, 25.660706%, 100%)" offset="0.519531"/><stop stop-opacity="1" stop-color="rgb(44.009399%, 25.538635%, 100%)" offset="0.523438"/><stop stop-opacity="1" stop-color="rgb(44.284058%, 25.416565%, 100%)" offset="0.527344"/><stop stop-opacity="1" stop-color="rgb(44.560242%, 25.294495%, 100%)" offset="0.53125"/><stop stop-opacity="1" stop-color="rgb(44.8349%, 25.170898%, 100%)" offset="0.535156"/><stop stop-opacity="1" stop-color="rgb(45.111084%, 25.048828%, 100%)" offset="0.539062"/><stop stop-opacity="1" stop-color="rgb(45.387268%, 24.925232%, 100%)" offset="0.542969"/><stop stop-opacity="1" stop-color="rgb(45.663452%, 24.803162%, 100%)" offset="0.546875"/><stop stop-opacity="1" stop-color="rgb(45.93811%, 24.681091%, 100%)" offset="0.550781"/><stop stop-opacity="1" stop-color="rgb(46.214294%, 24.559021%, 100%)" offset="0.554688"/><stop stop-opacity="1" stop-color="rgb(46.490479%, 24.435425%, 100%)" offset="0.558594"/><stop stop-opacity="1" stop-color="rgb(46.766663%, 24.313354%, 100%)" offset="0.5625"/><stop stop-opacity="1" stop-color="rgb(47.041321%, 24.191284%, 100%)" offset="0.566406"/><stop stop-opacity="1" stop-color="rgb(47.317505%, 24.069214%, 100%)" offset="0.570313"/><stop stop-opacity="1" stop-color="rgb(47.592163%, 23.945618%, 100%)" offset="0.574219"/><stop stop-opacity="1" stop-color="rgb(47.868347%, 23.823547%, 100%)" offset="0.578125"/><stop stop-opacity="1" stop-color="rgb(48.144531%, 23.699951%, 100%)" offset="0.582031"/><stop stop-opacity="1" stop-color="rgb(48.420715%, 23.577881%, 100%)" offset="0.585938"/><stop stop-opacity="1" stop-color="rgb(48.695374%, 23.455811%, 100%)" offset="0.589844"/><stop stop-opacity="1" stop-color="rgb(48.971558%, 23.33374%, 100%)" offset="0.59375"/><stop stop-opacity="1" stop-color="rgb(49.247742%, 23.210144%, 100%)" offset="0.597656"/><stop stop-opacity="1" stop-color="rgb(49.523926%, 23.088074%, 100%)" offset="0.601563"/><stop stop-opacity="1" stop-color="rgb(49.798584%, 22.964478%, 100%)" offset="0.605469"/><stop stop-opacity="1" stop-color="rgb(50.074768%, 22.842407%, 100%)" offset="0.609375"/><stop stop-opacity="1" stop-color="rgb(50.350952%, 22.720337%, 100%)" offset="0.613281"/><stop stop-opacity="1" stop-color="rgb(50.627136%, 22.598267%, 100%)" offset="0.617188"/><stop stop-opacity="1" stop-color="rgb(50.901794%, 22.47467%, 100%)" offset="0.621094"/><stop stop-opacity="1" stop-color="rgb(51.177979%, 22.3526%, 100%)" offset="0.625"/><stop stop-opacity="1" stop-color="rgb(51.452637%, 22.23053%, 100%)" offset="0.628906"/><stop stop-opacity="1" stop-color="rgb(51.728821%, 22.108459%, 100%)" offset="0.632813"/><stop stop-opacity="1" stop-color="rgb(52.005005%, 21.984863%, 100%)" offset="0.636719"/><stop stop-opacity="1" stop-color="rgb(52.281189%, 21.862793%, 100%)" offset="0.640625"/><stop stop-opacity="1" stop-color="rgb(52.555847%, 21.739197%, 100%)" offset="0.644531"/><stop stop-opacity="1" stop-color="rgb(52.832031%, 21.617126%, 100%)" offset="0.648438"/><stop stop-opacity="1" stop-color="rgb(53.108215%, 21.495056%, 100%)" offset="0.652344"/><stop stop-opacity="1" stop-color="rgb(53.384399%, 21.372986%, 100%)" offset="0.65625"/><stop stop-opacity="1" stop-color="rgb(53.659058%, 21.24939%, 100%)" offset="0.660156"/><stop stop-opacity="1" stop-color="rgb(53.935242%, 21.127319%, 100%)" offset="0.664063"/><stop stop-opacity="1" stop-color="rgb(54.211426%, 21.005249%, 100%)" offset="0.667969"/><stop stop-opacity="1" stop-color="rgb(54.48761%, 20.883179%, 100%)" offset="0.671875"/><stop stop-opacity="1" stop-color="rgb(54.762268%, 20.759583%, 100%)" offset="0.675781"/><stop stop-opacity="1" stop-color="rgb(55.038452%, 20.637512%, 100%)" offset="0.679688"/><stop stop-opacity="1" stop-color="rgb(55.31311%, 20.513916%, 100%)" offset="0.683594"/><stop stop-opacity="1" stop-color="rgb(55.589294%, 20.391846%, 100%)" offset="0.6875"/><stop stop-opacity="1" stop-color="rgb(55.865479%, 20.269775%, 100%)" offset="0.691406"/><stop stop-opacity="1" stop-color="rgb(56.141663%, 20.147705%, 100%)" offset="0.695313"/><stop stop-opacity="1" stop-color="rgb(56.416321%, 20.024109%, 100%)" offset="0.699219"/><stop stop-opacity="1" stop-color="rgb(56.692505%, 19.902039%, 100%)" offset="0.703125"/><stop stop-opacity="1" stop-color="rgb(56.968689%, 19.778442%, 100%)" offset="0.707031"/><stop stop-opacity="1" stop-color="rgb(57.244873%, 19.656372%, 100%)" offset="0.710938"/><stop stop-opacity="1" stop-color="rgb(57.519531%, 19.534302%, 100%)" offset="0.714844"/><stop stop-opacity="1" stop-color="rgb(57.795715%, 19.412231%, 100%)" offset="0.71875"/><stop stop-opacity="1" stop-color="rgb(58.070374%, 19.288635%, 100%)" offset="0.722656"/><stop stop-opacity="1" stop-color="rgb(58.346558%, 19.166565%, 100%)" offset="0.726563"/><stop stop-opacity="1" stop-color="rgb(58.622742%, 19.044495%, 100%)" offset="0.730469"/><stop stop-opacity="1" stop-color="rgb(58.898926%, 18.922424%, 100%)" offset="0.734375"/><stop stop-opacity="1" stop-color="rgb(59.173584%, 18.798828%, 100%)" offset="0.738281"/><stop stop-opacity="1" stop-color="rgb(59.449768%, 18.676758%, 100%)" offset="0.742188"/><stop stop-opacity="1" stop-color="rgb(59.725952%, 18.553162%, 100%)" offset="0.746094"/><stop stop-opacity="1" stop-color="rgb(60.002136%, 18.431091%, 100%)" offset="0.75"/><stop stop-opacity="1" stop-color="rgb(60.276794%, 18.309021%, 100%)" offset="0.753906"/><stop stop-opacity="1" stop-color="rgb(60.552979%, 18.186951%, 100%)" offset="0.757813"/><stop stop-opacity="1" stop-color="rgb(60.829163%, 18.063354%, 100%)" offset="0.761719"/><stop stop-opacity="1" stop-color="rgb(61.105347%, 17.941284%, 100%)" offset="0.765625"/><stop stop-opacity="1" stop-color="rgb(61.380005%, 17.819214%, 100%)" offset="0.769531"/><stop stop-opacity="1" stop-color="rgb(61.656189%, 17.697144%, 100%)" offset="0.773438"/><stop stop-opacity="1" stop-color="rgb(61.930847%, 17.573547%, 100%)" offset="0.777344"/><stop stop-opacity="1" stop-color="rgb(62.207031%, 17.451477%, 100%)" offset="0.78125"/><stop stop-opacity="1" stop-color="rgb(62.483215%, 17.327881%, 100%)" offset="0.785156"/><stop stop-opacity="1" stop-color="rgb(62.759399%, 17.205811%, 100%)" offset="0.789063"/><stop stop-opacity="1" stop-color="rgb(63.034058%, 17.08374%, 100%)" offset="0.792969"/><stop stop-opacity="1" stop-color="rgb(63.310242%, 16.96167%, 100%)" offset="0.796875"/><stop stop-opacity="1" stop-color="rgb(63.586426%, 16.838074%, 100%)" offset="0.800781"/><stop stop-opacity="1" stop-color="rgb(63.86261%, 16.716003%, 100%)" offset="0.804688"/><stop stop-opacity="1" stop-color="rgb(64.137268%, 16.593933%, 100%)" offset="0.808594"/><stop stop-opacity="1" stop-color="rgb(64.413452%, 16.471863%, 100%)" offset="0.8125"/><stop stop-opacity="1" stop-color="rgb(64.689636%, 16.348267%, 100%)" offset="0.816406"/><stop stop-opacity="1" stop-color="rgb(64.96582%, 16.226196%, 100%)" offset="0.820313"/><stop stop-opacity="1" stop-color="rgb(65.240479%, 16.1026%, 100%)" offset="0.824219"/><stop stop-opacity="1" stop-color="rgb(65.516663%, 15.98053%, 100%)" offset="0.828125"/><stop stop-opacity="1" stop-color="rgb(65.791321%, 15.858459%, 100%)" offset="0.832031"/><stop stop-opacity="1" stop-color="rgb(66.067505%, 15.736389%, 100%)" offset="0.835938"/><stop stop-opacity="1" stop-color="rgb(66.343689%, 15.612793%, 100%)" offset="0.839844"/><stop stop-opacity="1" stop-color="rgb(66.619873%, 15.490723%, 100%)" offset="0.84375"/><stop stop-opacity="1" stop-color="rgb(66.894531%, 15.367126%, 100%)" offset="0.847656"/><stop stop-opacity="1" stop-color="rgb(67.170715%, 15.245056%, 100%)" offset="0.851563"/><stop stop-opacity="1" stop-color="rgb(67.446899%, 15.122986%, 100%)" offset="0.855469"/><stop stop-opacity="1" stop-color="rgb(67.723083%, 15.000916%, 100%)" offset="0.859375"/><stop stop-opacity="1" stop-color="rgb(67.997742%, 14.877319%, 100%)" offset="0.863281"/><stop stop-opacity="1" stop-color="rgb(68.273926%, 14.755249%, 100%)" offset="0.867188"/><stop stop-opacity="1" stop-color="rgb(68.548584%, 14.633179%, 100%)" offset="0.871094"/><stop stop-opacity="1" stop-color="rgb(68.824768%, 14.511108%, 100%)" offset="0.875"/><stop stop-opacity="1" stop-color="rgb(69.100952%, 14.387512%, 100%)" offset="0.878906"/><stop stop-opacity="1" stop-color="rgb(69.377136%, 14.265442%, 100%)" offset="0.882812"/><stop stop-opacity="1" stop-color="rgb(69.651794%, 14.141846%, 100%)" offset="0.886719"/><stop stop-opacity="1" stop-color="rgb(69.927979%, 14.019775%, 100%)" offset="0.890625"/><stop stop-opacity="1" stop-color="rgb(70.204163%, 13.897705%, 100%)" offset="0.894531"/><stop stop-opacity="1" stop-color="rgb(70.480347%, 13.775635%, 100%)" offset="0.898438"/><stop stop-opacity="1" stop-color="rgb(70.755005%, 13.652039%, 100%)" offset="0.902344"/><stop stop-opacity="1" stop-color="rgb(71.031189%, 13.529968%, 100%)" offset="0.90625"/><stop stop-opacity="1" stop-color="rgb(71.307373%, 13.407898%, 100%)" offset="0.910156"/><stop stop-opacity="1" stop-color="rgb(71.583557%, 13.285828%, 100%)" offset="0.914062"/><stop stop-opacity="1" stop-color="rgb(71.858215%, 13.162231%, 100%)" offset="0.917969"/><stop stop-opacity="1" stop-color="rgb(72.134399%, 13.040161%, 100%)" offset="0.921875"/><stop stop-opacity="1" stop-color="rgb(72.409058%, 12.916565%, 100%)" offset="0.925781"/><stop stop-opacity="1" stop-color="rgb(72.685242%, 12.794495%, 100%)" offset="0.929688"/><stop stop-opacity="1" stop-color="rgb(72.961426%, 12.672424%, 100%)" offset="0.933594"/><stop stop-opacity="1" stop-color="rgb(73.23761%, 12.550354%, 100%)" offset="0.9375"/><stop stop-opacity="1" stop-color="rgb(73.512268%, 12.426758%, 100%)" offset="0.941406"/><stop stop-opacity="1" stop-color="rgb(73.788452%, 12.304688%, 100%)" offset="0.945312"/><stop stop-opacity="1" stop-color="rgb(74.064636%, 12.181091%, 100%)" offset="0.949219"/><stop stop-opacity="1" stop-color="rgb(74.34082%, 12.059021%, 100%)" offset="0.953125"/><stop stop-opacity="1" stop-color="rgb(74.615479%, 11.936951%, 100%)" offset="0.957031"/><stop stop-opacity="1" stop-color="rgb(74.891663%, 11.81488%, 100%)" offset="0.960938"/><stop stop-opacity="1" stop-color="rgb(75.167847%, 11.691284%, 100%)" offset="0.964844"/><stop stop-opacity="1" stop-color="rgb(75.444031%, 11.569214%, 100%)" offset="0.96875"/><stop stop-opacity="1" stop-color="rgb(75.718689%, 11.447144%, 100%)" offset="0.972656"/><stop stop-opacity="1" stop-color="rgb(75.994873%, 11.325073%, 100%)" offset="0.976562"/><stop stop-opacity="1" stop-color="rgb(76.269531%, 11.201477%, 100%)" offset="0.980469"/><stop stop-opacity="1" stop-color="rgb(76.545715%, 11.079407%, 100%)" offset="0.984375"/><stop stop-opacity="1" stop-color="rgb(76.821899%, 10.955811%, 100%)" offset="0.988281"/><stop stop-opacity="1" stop-color="rgb(77.098083%, 10.83374%, 100%)" offset="0.992188"/><stop stop-opacity="1" stop-color="rgb(77.372742%, 10.71167%, 100%)" offset="0.996094"/><stop stop-opacity="1" stop-color="rgb(77.648926%, 10.5896%, 100%)" offset="1"/></linearGradient></defs><rect x="-37.5" width="450" fill="#ffffff" y="-37.499999" height="449.999989" fill-opacity="1"/><rect x="-37.5" width="450" fill="#ffffff" y="-37.499999" height="449.999989" fill-opacity="1"/><g clip-path="url(#7fe1a1144c)"><g clip-path="url(#1ed5d649a8)"><path fill="url(#3f90c9faf7)" d="M 0 18.75 L 0 356.25 L 375 356.25 L 375 18.75 Z M 0 18.75 " fill-rule="nonzero"/></g></g></svg>