<svg xmlns="http://www.w3.org/2000/svg" xmlns:xlink="http://www.w3.org/1999/xlink" width="500" zoomAndPan="magnify" viewBox="0 0 375 374.999991" height="500" preserveAspectRatio="xMidYMid meet" version="1.0"><defs><clipPath id="e702ed34d2"><path d="M 10.308594 131 L 47 131 L 47 168 L 10.308594 168 Z M 10.308594 131 " clip-rule="nonzero"/></clipPath><clipPath id="8b0efa11c6"><path d="M 338 131 L 374.808594 131 L 374.808594 168 L 338 168 Z M 338 131 " clip-rule="nonzero"/></clipPath></defs><rect x="-37.5" width="450" fill="#ffffff" y="-37.499999" height="449.999989" fill-opacity="1"/><rect x="-37.5" width="450" fill="#ffffff" y="-37.499999" height="449.999989" fill-opacity="1"/><path fill="#568ab1" d="M 124.121094 178.757812 C 122.199219 178.757812 120.492188 177.261719 120.492188 175.125 L 120.492188 126.015625 L 83.335938 126.015625 C 81.414062 126.015625 79.707031 124.519531 79.707031 122.597656 L 79.707031 88.003906 C 79.707031 86.082031 81.414062 84.589844 83.335938 84.589844 C 85.257812 84.589844 86.753906 86.082031 86.753906 88.003906 L 86.753906 118.96875 L 124.121094 118.96875 C 126.042969 118.96875 127.753906 120.460938 127.753906 122.597656 L 127.753906 175.125 C 127.753906 177.261719 126.042969 178.757812 124.121094 178.757812 Z M 124.121094 178.757812 " fill-opacity="1" fill-rule="evenodd"/><path fill="#568ab1" d="M 260.996094 178.757812 C 258.859375 178.757812 257.367188 177.261719 257.367188 175.125 L 257.367188 122.597656 C 257.367188 120.460938 258.859375 118.96875 260.996094 118.96875 L 298.152344 118.96875 L 298.152344 88.003906 C 298.152344 86.082031 299.859375 84.589844 301.78125 84.589844 C 303.703125 84.589844 305.410156 86.082031 305.410156 88.003906 L 305.410156 122.597656 C 305.410156 124.519531 303.703125 126.015625 301.78125 126.015625 L 264.414062 126.015625 L 264.414062 175.125 C 264.414062 177.261719 262.917969 178.757812 260.996094 178.757812 Z M 260.996094 178.757812 " fill-opacity="1" fill-rule="evenodd"/><path fill="#568ab1" d="M 192.453125 149.074219 C 190.53125 149.074219 189.035156 147.582031 189.035156 145.445312 L 189.035156 88.003906 C 189.035156 86.082031 190.53125 84.589844 192.453125 84.589844 C 194.585938 84.589844 196.082031 86.082031 196.082031 88.003906 L 196.082031 145.445312 C 196.082031 147.582031 194.585938 149.074219 192.453125 149.074219 Z M 192.453125 149.074219 " fill-opacity="1" fill-rule="evenodd"/><path fill="#52d6ff" d="M 281.070312 277.410156 C 222.132812 277.410156 162.984375 277.410156 104.050781 277.410156 C 79.921875 277.410156 60.277344 257.761719 60.277344 233.632812 C 60.277344 209.503906 79.921875 189.859375 104.050781 189.859375 C 106.183594 189.859375 108.535156 190.074219 110.667969 190.5 C 110.667969 190.289062 110.667969 190.289062 110.667969 190.289062 C 110.667969 171.921875 125.617188 156.976562 144.195312 156.976562 C 148.464844 156.976562 152.523438 157.617188 156.578125 159.324219 C 162.34375 144.804688 176.652344 134.769531 192.453125 134.769531 C 208.46875 134.769531 222.773438 144.804688 228.539062 159.324219 C 232.382812 157.617188 236.652344 156.976562 240.925781 156.976562 C 259.289062 156.976562 274.234375 171.921875 274.234375 190.289062 C 274.234375 190.289062 274.234375 190.289062 274.234375 190.5 C 276.585938 190.074219 278.933594 189.859375 281.070312 189.859375 C 305.199219 189.859375 324.84375 209.503906 324.84375 233.632812 C 324.84375 257.761719 305.199219 277.410156 281.070312 277.410156 Z M 281.070312 277.410156 " fill-opacity="1" fill-rule="evenodd"/><path fill="#b5d5f5" d="M 192.453125 91.636719 C 183.058594 91.636719 175.371094 83.949219 175.371094 74.550781 C 175.371094 65.15625 183.058594 57.46875 192.453125 57.46875 C 201.847656 57.46875 209.535156 65.15625 209.535156 74.550781 C 209.535156 83.949219 201.847656 91.636719 192.453125 91.636719 Z M 192.453125 91.636719 " fill-opacity="1" fill-rule="evenodd"/><path fill="#b5d5f5" d="M 301.78125 91.636719 C 292.386719 91.636719 284.699219 83.949219 284.699219 74.550781 C 284.699219 65.15625 292.386719 57.46875 301.78125 57.46875 C 311.175781 57.46875 318.863281 65.15625 318.863281 74.550781 C 318.863281 83.949219 311.175781 91.636719 301.78125 91.636719 Z M 301.78125 91.636719 " fill-opacity="1" fill-rule="evenodd"/><path fill="#b5d5f5" d="M 83.335938 91.636719 C 73.941406 91.636719 66.253906 83.949219 66.253906 74.550781 C 66.253906 65.15625 73.941406 57.46875 83.335938 57.46875 C 92.734375 57.46875 100.421875 65.15625 100.421875 74.550781 C 100.421875 83.949219 92.734375 91.636719 83.335938 91.636719 Z M 83.335938 91.636719 " fill-opacity="1" fill-rule="evenodd"/><path fill="#76bedd" d="M 105.332031 153.347656 L 101.703125 153.347656 C 99.566406 153.347656 98.070312 151.636719 98.070312 149.714844 C 98.070312 147.792969 99.566406 146.085938 101.703125 146.085938 L 105.332031 146.085938 C 107.253906 146.085938 108.746094 147.792969 108.746094 149.714844 C 108.746094 151.636719 107.253906 153.347656 105.332031 153.347656 Z M 105.332031 153.347656 " fill-opacity="1" fill-rule="evenodd"/><path fill="#27a2db" d="M 84.40625 153.347656 L 80.773438 153.347656 C 78.851562 153.347656 77.359375 151.636719 77.359375 149.714844 C 77.359375 147.792969 78.851562 146.085938 80.773438 146.085938 L 84.40625 146.085938 C 86.539062 146.085938 88.035156 147.792969 88.035156 149.714844 C 88.035156 151.636719 86.539062 153.347656 84.40625 153.347656 Z M 84.40625 153.347656 " fill-opacity="1" fill-rule="nonzero"/><path fill="#0068c0" d="M 63.691406 153.347656 L 60.0625 153.347656 C 58.140625 153.347656 56.433594 151.636719 56.433594 149.714844 C 56.433594 147.792969 58.140625 146.085938 60.0625 146.085938 L 63.691406 146.085938 C 65.613281 146.085938 67.324219 147.792969 67.324219 149.714844 C 67.324219 151.636719 65.613281 153.347656 63.691406 153.347656 Z M 63.691406 153.347656 " fill-opacity="1" fill-rule="evenodd"/><g clip-path="url(#e702ed34d2)"><path fill="#b5d5f5" d="M 28.460938 167.867188 C 18.421875 167.867188 10.308594 159.753906 10.308594 149.714844 C 10.308594 139.679688 18.421875 131.566406 28.460938 131.566406 C 38.28125 131.566406 46.394531 139.679688 46.394531 149.714844 C 46.394531 159.753906 38.28125 167.867188 28.460938 167.867188 Z M 28.460938 167.867188 " fill-opacity="1" fill-rule="evenodd"/></g><path fill="#76bedd" d="M 283.417969 153.347656 L 279.789062 153.347656 C 277.867188 153.347656 276.15625 151.636719 276.15625 149.714844 C 276.15625 147.792969 277.867188 146.085938 279.789062 146.085938 L 283.417969 146.085938 C 285.339844 146.085938 287.046875 147.792969 287.046875 149.714844 C 287.046875 151.636719 285.339844 153.347656 283.417969 153.347656 Z M 283.417969 153.347656 " fill-opacity="1" fill-rule="evenodd"/><path fill="#27a2db" d="M 304.128906 153.347656 L 300.5 153.347656 C 298.578125 153.347656 297.082031 151.636719 297.082031 149.714844 C 297.082031 147.792969 298.578125 146.085938 300.5 146.085938 L 304.128906 146.085938 C 306.265625 146.085938 307.761719 147.792969 307.761719 149.714844 C 307.761719 151.636719 306.265625 153.347656 304.128906 153.347656 Z M 304.128906 153.347656 " fill-opacity="1" fill-rule="nonzero"/><path fill="#0068c0" d="M 325.054688 153.347656 L 321.425781 153.347656 C 319.503906 153.347656 317.796875 151.636719 317.796875 149.714844 C 317.796875 147.792969 319.503906 146.085938 321.425781 146.085938 L 325.054688 146.085938 C 326.976562 146.085938 328.6875 147.792969 328.6875 149.714844 C 328.6875 151.636719 326.976562 153.347656 325.054688 153.347656 Z M 325.054688 153.347656 " fill-opacity="1" fill-rule="evenodd"/><g clip-path="url(#8b0efa11c6)"><path fill="#ddedfc" d="M 356.660156 167.867188 C 346.621094 167.867188 338.507812 159.753906 338.507812 149.714844 C 338.507812 139.679688 346.621094 131.566406 356.660156 131.566406 C 366.695312 131.566406 374.808594 139.679688 374.808594 149.714844 C 374.808594 159.753906 366.695312 167.867188 356.660156 167.867188 Z M 356.660156 167.867188 " fill-opacity="1" fill-rule="evenodd"/></g><path fill="#49629c" d="M 192.453125 287.230469 C 184.980469 287.230469 179 281.253906 179 273.777344 C 179 266.304688 184.980469 260.324219 192.453125 260.324219 C 199.925781 260.324219 206.117188 266.304688 206.117188 273.777344 C 206.117188 281.253906 199.925781 287.230469 192.453125 287.230469 Z M 216.796875 287.015625 C 215.941406 287.015625 214.875 286.589844 214.234375 285.949219 C 212.738281 284.667969 212.738281 282.320312 214.234375 281.039062 C 216.15625 279.117188 217.222656 276.554688 217.222656 273.777344 C 217.222656 271.003906 216.15625 268.652344 214.234375 266.730469 C 212.738281 265.238281 212.738281 263.101562 214.234375 261.605469 C 215.726562 260.324219 217.863281 260.324219 219.359375 261.605469 C 222.5625 264.808594 224.269531 269.292969 224.269531 273.777344 C 224.269531 278.476562 222.5625 282.746094 219.359375 285.949219 C 218.503906 286.589844 217.648438 287.015625 216.796875 287.015625 Z M 231.957031 302.179688 C 230.886719 302.179688 230.035156 301.75 229.394531 301.109375 C 227.898438 299.617188 227.898438 297.480469 229.394531 295.984375 C 235.371094 290.21875 238.574219 282.105469 238.574219 273.777344 C 238.574219 265.449219 235.371094 257.550781 229.394531 251.570312 C 227.898438 250.078125 227.898438 247.941406 229.394531 246.445312 C 230.675781 245.164062 233.023438 245.164062 234.304688 246.445312 C 241.777344 253.707031 245.621094 263.527344 245.621094 273.777344 C 245.621094 284.027344 241.777344 293.851562 234.304688 301.109375 C 233.664062 301.75 232.808594 302.179688 231.957031 302.179688 Z M 246.902344 317.339844 C 246.050781 317.339844 245.195312 316.910156 244.554688 316.273438 C 243.058594 314.777344 243.058594 312.640625 244.554688 311.148438 C 254.375 301.109375 259.929688 287.871094 259.929688 273.777344 C 259.929688 259.683594 254.375 246.445312 244.554688 236.410156 C 243.058594 234.914062 243.058594 232.78125 244.554688 231.285156 C 245.835938 230.003906 248.183594 230.003906 249.464844 231.285156 C 260.78125 242.601562 267.1875 257.761719 267.1875 273.777344 C 267.1875 289.792969 260.78125 304.953125 249.464844 316.273438 C 248.824219 316.910156 247.972656 317.339844 246.902344 317.339844 Z M 168.324219 287.015625 C 167.46875 287.015625 166.402344 286.589844 165.761719 285.949219 C 162.558594 282.746094 160.636719 278.476562 160.636719 273.777344 C 160.636719 269.292969 162.558594 264.808594 165.761719 261.605469 C 167.253906 260.324219 169.390625 260.324219 170.886719 261.605469 C 172.167969 263.101562 172.167969 265.238281 170.886719 266.730469 C 168.964844 268.652344 167.894531 271.003906 167.894531 273.777344 C 167.894531 276.554688 168.964844 279.117188 170.886719 281.039062 C 172.167969 282.320312 172.167969 284.667969 170.886719 285.949219 C 170.03125 286.589844 169.175781 287.015625 168.324219 287.015625 Z M 153.164062 302.179688 C 152.308594 302.179688 151.242188 301.75 150.601562 301.109375 C 143.339844 293.851562 139.28125 284.027344 139.28125 273.777344 C 139.28125 263.527344 143.339844 253.707031 150.601562 246.445312 C 152.09375 245.164062 154.230469 245.164062 155.726562 246.445312 C 157.007812 247.941406 157.007812 250.078125 155.726562 251.570312 C 149.746094 257.550781 146.542969 265.449219 146.542969 273.777344 C 146.542969 282.105469 149.746094 290.21875 155.726562 295.984375 C 157.007812 297.480469 157.007812 299.617188 155.726562 301.109375 C 155.085938 301.75 154.015625 302.179688 153.164062 302.179688 Z M 138 317.339844 C 137.148438 317.339844 136.292969 316.910156 135.4375 316.273438 C 124.121094 304.953125 117.929688 289.792969 117.929688 273.777344 C 117.929688 257.761719 124.121094 242.601562 135.4375 231.285156 C 136.933594 230.003906 139.070312 230.003906 140.5625 231.285156 C 141.84375 232.78125 141.84375 234.914062 140.5625 236.410156 C 130.527344 246.445312 124.976562 259.683594 124.976562 273.777344 C 124.976562 287.871094 130.527344 301.109375 140.5625 311.148438 C 141.84375 312.640625 141.84375 314.777344 140.5625 316.273438 C 139.921875 316.910156 138.855469 317.339844 138 317.339844 Z M 138 317.339844 " fill-opacity="1" fill-rule="evenodd"/></svg>