<svg xmlns="http://www.w3.org/2000/svg" xmlns:xlink="http://www.w3.org/1999/xlink" width="500" zoomAndPan="magnify" viewBox="0 0 375 374.999991" height="500" preserveAspectRatio="xMidYMid meet" version="1.0"><defs><clipPath id="cbca82f520"><path d="M 293 18 L 360.972656 18 L 360.972656 131 L 293 131 Z M 293 18 " clip-rule="nonzero"/></clipPath><clipPath id="b9845fe0f3"><path d="M 167 13.722656 L 208 13.722656 L 208 81 L 167 81 Z M 167 13.722656 " clip-rule="nonzero"/></clipPath><clipPath id="0bdb30fe8e"><path d="M 13.722656 18 L 81 18 L 81 131 L 13.722656 131 Z M 13.722656 18 " clip-rule="nonzero"/></clipPath><clipPath id="c5e13e34d1"><path d="M 13.722656 167 L 81 167 L 81 208 L 13.722656 208 Z M 13.722656 167 " clip-rule="nonzero"/></clipPath><clipPath id="ba3139c17c"><path d="M 13.722656 244 L 81 244 L 81 357 L 13.722656 357 Z M 13.722656 244 " clip-rule="nonzero"/></clipPath><clipPath id="e86087f93d"><path d="M 167 293 L 208 293 L 208 360.972656 L 167 360.972656 Z M 167 293 " clip-rule="nonzero"/></clipPath><clipPath id="f0777666a5"><path d="M 293 244 L 360.972656 244 L 360.972656 357 L 293 357 Z M 293 244 " clip-rule="nonzero"/></clipPath><clipPath id="2ac089fe71"><path d="M 293 167 L 360.972656 167 L 360.972656 208 L 293 208 Z M 293 167 " clip-rule="nonzero"/></clipPath></defs><rect x="-37.5" width="450" fill="#ffffff" y="-37.499999" height="449.999989" fill-opacity="1"/><rect x="-37.5" width="450" fill="#ffffff" y="-37.499999" height="449.999989" fill-opacity="1"/><path fill="#2a7abd" d="M 194.148438 150.03125 L 194.148438 222.246094 C 212.175781 220.101562 226.203125 204.734375 226.203125 186.140625 C 226.203125 167.542969 212.175781 152.175781 194.148438 150.03125 Z M 194.148438 150.03125 " fill-opacity="1" fill-rule="evenodd"/><path fill="#1d5074" d="M 194.148438 141.328125 C 216.953125 143.511719 234.847656 162.769531 234.847656 186.132812 C 234.847656 209.496094 216.953125 228.753906 194.148438 230.9375 L 194.148438 248.382812 C 194.148438 251.007812 193.59375 253.5 192.601562 255.769531 L 197.390625 255.769531 L 197.390625 245.113281 C 197.390625 243.054688 198.847656 241.28125 200.863281 240.878906 C 207.984375 239.449219 214.667969 236.675781 220.726562 232.644531 C 222.441406 231.503906 224.726562 231.726562 226.179688 233.183594 L 233.722656 240.726562 L 244.421875 230.027344 L 236.878906 222.484375 C 235.425781 221.03125 235.195312 218.746094 236.339844 217.03125 C 240.375 210.964844 243.148438 204.285156 244.574219 197.167969 C 244.976562 195.152344 246.75 193.695312 248.808594 193.695312 L 259.464844 193.695312 L 259.464844 178.566406 L 248.808594 178.566406 C 246.75 178.566406 244.976562 177.113281 244.574219 175.09375 C 243.148438 167.976562 240.375 161.292969 236.339844 155.230469 C 235.199219 153.515625 235.425781 151.234375 236.878906 149.777344 L 244.421875 142.242188 L 233.722656 131.542969 L 226.179688 139.078125 C 224.726562 140.535156 222.441406 140.765625 220.726562 139.628906 C 214.660156 135.585938 207.984375 132.820312 200.863281 131.394531 C 198.847656 130.988281 197.390625 129.210938 197.390625 127.15625 L 197.390625 116.5 L 191.253906 116.5 C 193.082031 119.367188 194.148438 122.761719 194.148438 126.398438 Z M 194.148438 141.328125 " fill-opacity="1" fill-rule="evenodd"/><path fill="#2a7abd" d="M 236.769531 122.378906 L 253.585938 139.195312 C 254.394531 140.007812 254.855469 141.105469 254.855469 142.25 C 254.855469 143.394531 254.398438 144.496094 253.585938 145.304688 L 245.421875 153.46875 C 248.464844 158.625 250.746094 164.136719 252.246094 169.929688 L 263.78125 169.929688 C 266.171875 169.929688 268.101562 171.867188 268.101562 174.25 L 268.101562 198.027344 C 268.101562 200.410156 266.171875 202.347656 263.78125 202.347656 L 252.246094 202.347656 C 250.746094 208.140625 248.464844 213.652344 245.421875 218.8125 L 253.585938 226.972656 C 254.394531 227.78125 254.855469 228.882812 254.855469 230.027344 C 254.855469 231.171875 254.398438 232.277344 253.585938 233.089844 L 236.769531 249.898438 C 235.085938 251.582031 232.347656 251.582031 230.660156 249.898438 L 222.5 241.734375 C 217.339844 244.773438 211.828125 247.058594 206.039062 248.558594 L 206.039062 260.089844 C 206.039062 262.476562 204.097656 264.414062 201.714844 264.414062 L 184.820312 264.414062 C 182.125 265.957031 179.015625 266.84375 175.691406 266.84375 C 168.890625 266.84375 162.941406 263.140625 159.742188 257.648438 C 158.769531 257.765625 157.789062 257.84375 156.808594 257.84375 C 143.863281 257.84375 133.257812 247.59375 132.683594 234.789062 C 125.59375 231.238281 120.746094 224.097656 120.746094 215.886719 C 120.746094 214.539062 120.882812 213.210938 121.132812 211.929688 C 112.480469 208.515625 106.59375 200.144531 106.59375 190.484375 C 106.59375 182.207031 111.046875 174.710938 117.921875 170.636719 C 116.039062 167.386719 114.960938 163.617188 114.960938 159.597656 C 114.960938 148.625 122.984375 139.496094 133.46875 137.761719 C 134.367188 125.476562 144.632812 115.757812 157.140625 115.757812 C 158.257812 115.757812 159.367188 115.839844 160.46875 115.996094 C 163.796875 111.148438 169.382812 107.957031 175.691406 107.957031 C 176.097656 107.957031 176.484375 107.972656 176.882812 108 C 177.21875 107.914062 177.574219 107.863281 177.941406 107.863281 L 201.714844 107.863281 C 204.097656 107.863281 206.039062 109.800781 206.039062 112.1875 L 206.039062 123.71875 C 211.828125 125.210938 217.339844 127.503906 222.5 130.542969 L 230.660156 122.378906 C 232.347656 120.695312 235.085938 120.695312 236.769531 122.378906 Z M 274.097656 285.070312 C 280.148438 285.070312 285.070312 280.140625 285.070312 274.097656 L 285.070312 100.601562 C 285.070312 94.550781 280.148438 89.628906 274.097656 89.628906 L 100.601562 89.628906 C 94.550781 89.628906 89.628906 94.550781 89.628906 100.601562 L 89.628906 274.097656 C 89.628906 280.148438 94.550781 285.070312 100.601562 285.070312 Z M 274.097656 285.070312 " fill-opacity="1" fill-rule="evenodd"/><path fill="#1d5074" d="M 185.503906 248.390625 L 185.503906 126.398438 C 185.503906 120.996094 181.101562 116.59375 175.691406 116.59375 C 170.28125 116.59375 165.886719 120.996094 165.886719 126.398438 C 165.886719 127.15625 165.972656 127.90625 166.148438 128.632812 C 166.695312 130.960938 165.253906 133.289062 162.933594 133.835938 C 160.613281 134.382812 158.28125 132.941406 157.730469 130.621094 C 157.40625 129.246094 157.242188 127.828125 157.242188 126.40625 C 157.242188 125.730469 157.277344 125.066406 157.359375 124.410156 C 157.285156 124.410156 157.21875 124.40625 157.148438 124.40625 C 149.316406 124.40625 142.863281 130.398438 142.121094 138.035156 C 146.011719 138.9375 149.597656 140.875 152.523438 143.71875 C 154.238281 145.382812 154.273438 148.121094 152.609375 149.835938 C 150.945312 151.550781 148.207031 151.585938 146.492188 149.921875 C 143.964844 147.464844 140.621094 146.105469 137.089844 146.105469 C 129.648438 146.105469 123.597656 152.15625 123.597656 159.597656 C 123.597656 167.039062 129.648438 173.085938 137.089844 173.085938 C 139.476562 173.085938 141.414062 175.023438 141.414062 177.40625 C 141.414062 179.792969 139.476562 181.730469 137.089844 181.730469 C 132.113281 181.730469 127.515625 180.078125 123.8125 177.292969 C 118.675781 179.574219 115.234375 184.71875 115.234375 190.484375 C 115.234375 196.605469 119.007812 201.886719 124.535156 203.96875 C 128.511719 198.3125 135.234375 194.589844 142.839844 194.589844 C 145.226562 194.589844 147.164062 196.527344 147.164062 198.914062 C 147.164062 201.296875 145.226562 203.234375 142.839844 203.234375 C 135.421875 203.234375 129.390625 208.910156 129.390625 215.886719 C 129.390625 222.859375 135.421875 228.542969 142.839844 228.542969 C 145.066406 228.542969 147.191406 228.046875 149.144531 227.066406 C 151.277344 226 153.878906 226.863281 154.945312 228.996094 C 156.011719 231.128906 155.144531 233.730469 153.011719 234.796875 C 149.894531 236.351562 146.378906 237.183594 142.839844 237.183594 C 142.457031 237.183594 142.078125 237.175781 141.703125 237.152344 C 143.28125 244.039062 149.445312 249.199219 156.804688 249.199219 C 156.953125 249.199219 157.105469 249.183594 157.257812 249.183594 C 157.242188 248.925781 157.234375 248.660156 157.234375 248.398438 C 157.234375 245.472656 157.949219 242.554688 159.289062 239.960938 C 160.382812 237.84375 162.992188 237.007812 165.109375 238.109375 C 167.226562 239.207031 168.0625 241.8125 166.960938 243.933594 C 166.242188 245.324219 165.875 246.828125 165.875 248.398438 C 165.875 253.800781 170.273438 258.203125 175.679688 258.203125 C 181.082031 258.203125 185.492188 253.800781 185.492188 248.398438 Z M 152.328125 161.148438 C 159.597656 161.148438 165.707031 156.285156 166.867188 149.578125 C 167.269531 147.222656 169.511719 145.652344 171.867188 146.054688 C 174.214844 146.457031 175.800781 148.699219 175.390625 151.046875 C 173.515625 161.902344 163.8125 169.785156 152.328125 169.785156 C 151.363281 169.785156 150.390625 169.726562 149.441406 169.613281 C 147.070312 169.332031 145.375 167.183594 145.65625 164.8125 C 145.9375 162.445312 148.085938 160.742188 150.457031 161.03125 C 151.074219 161.105469 151.703125 161.140625 152.328125 161.140625 Z M 156.765625 206.664062 C 165.671875 206.664062 173.394531 212.980469 175.542969 222.023438 C 176.097656 224.34375 174.664062 226.679688 172.335938 227.226562 C 171.996094 227.304688 171.664062 227.339844 171.332031 227.339844 C 169.375 227.339844 167.601562 226 167.132812 224.011719 C 165.917969 218.890625 161.652344 215.300781 156.765625 215.300781 C 156.570312 215.300781 156.371094 215.300781 156.175781 215.316406 C 153.792969 215.460938 151.746094 213.636719 151.609375 211.253906 C 151.464844 208.867188 153.292969 206.824219 155.671875 206.6875 C 156.03125 206.664062 156.398438 206.65625 156.757812 206.65625 Z M 156.765625 206.664062 " fill-opacity="1" fill-rule="evenodd"/><g clip-path="url(#cbca82f520)"><path fill="#1d5074" d="M 345.613281 92.625 L 345.613281 57.265625 C 354.398438 55.292969 360.972656 47.433594 360.972656 38.066406 C 360.972656 27.210938 352.140625 18.386719 341.292969 18.386719 C 330.441406 18.386719 321.609375 27.210938 321.609375 38.066406 C 321.609375 47.433594 328.1875 55.285156 336.96875 57.265625 L 336.96875 90.351562 L 293.742188 120.125 L 293.742188 130.621094 L 343.742188 96.183594 C 344.914062 95.378906 345.613281 94.046875 345.613281 92.625 Z M 341.292969 49.105469 C 335.203125 49.105469 330.253906 44.15625 330.253906 38.066406 C 330.253906 31.980469 335.203125 27.03125 341.292969 27.03125 C 347.378906 27.03125 352.328125 31.980469 352.328125 38.066406 C 352.328125 44.15625 347.378906 49.105469 341.292969 49.105469 Z M 341.292969 49.105469 " fill-opacity="1" fill-rule="evenodd"/></g><g clip-path="url(#b9845fe0f3)"><path fill="#1d5074" d="M 191.671875 52.605469 C 200.453125 50.632812 207.03125 42.773438 207.03125 33.40625 C 207.03125 22.558594 198.199219 13.722656 187.347656 13.722656 C 176.5 13.722656 167.667969 22.558594 167.667969 33.40625 C 167.667969 42.773438 174.246094 50.632812 183.027344 52.605469 L 183.027344 80.957031 L 191.671875 80.957031 Z M 187.347656 44.445312 C 181.261719 44.445312 176.3125 39.496094 176.3125 33.40625 C 176.3125 27.320312 181.261719 22.371094 187.347656 22.371094 C 193.4375 22.371094 198.386719 27.320312 198.386719 33.40625 C 198.386719 39.496094 193.4375 44.445312 187.347656 44.445312 Z M 187.347656 44.445312 " fill-opacity="1" fill-rule="evenodd"/></g><g clip-path="url(#0bdb30fe8e)"><path fill="#1d5074" d="M 37.730469 90.355469 L 37.730469 57.273438 C 46.511719 55.300781 53.089844 47.441406 53.089844 38.074219 C 53.089844 27.21875 44.257812 18.394531 33.40625 18.394531 C 22.558594 18.394531 13.722656 27.21875 13.722656 38.074219 C 13.722656 47.441406 20.300781 55.292969 29.082031 57.273438 L 29.082031 92.632812 C 29.082031 94.054688 29.78125 95.386719 30.957031 96.191406 L 80.960938 130.636719 L 80.960938 120.140625 L 37.738281 90.363281 Z M 33.40625 49.105469 C 27.320312 49.105469 22.371094 44.15625 22.371094 38.066406 C 22.371094 31.980469 27.320312 27.03125 33.40625 27.03125 C 39.496094 27.03125 44.445312 31.980469 44.445312 38.066406 C 44.445312 44.15625 39.496094 49.105469 33.40625 49.105469 Z M 33.40625 49.105469 " fill-opacity="1" fill-rule="evenodd"/></g><g clip-path="url(#c5e13e34d1)"><path fill="#1d5074" d="M 52.605469 183.027344 C 50.632812 174.25 42.773438 167.667969 33.40625 167.667969 C 22.558594 167.667969 13.722656 176.5 13.722656 187.347656 C 13.722656 198.199219 22.558594 207.03125 33.40625 207.03125 C 42.773438 207.03125 50.625 200.453125 52.605469 191.671875 L 80.957031 191.671875 L 80.957031 183.027344 Z M 44.445312 187.347656 C 44.445312 193.4375 39.496094 198.386719 33.40625 198.386719 C 27.320312 198.386719 22.371094 193.4375 22.371094 187.347656 C 22.371094 181.261719 27.320312 176.3125 33.40625 176.3125 C 39.496094 176.3125 44.445312 181.261719 44.445312 187.347656 Z M 44.445312 187.347656 " fill-opacity="1" fill-rule="evenodd"/></g><g clip-path="url(#ba3139c17c)"><path fill="#1d5074" d="M 80.957031 244.078125 L 30.949219 278.519531 C 29.777344 279.328125 29.078125 280.660156 29.078125 282.078125 L 29.078125 317.4375 C 20.300781 319.414062 13.71875 327.273438 13.71875 336.636719 C 13.71875 347.488281 22.550781 356.320312 33.398438 356.320312 C 44.25 356.320312 53.082031 347.488281 53.082031 336.636719 C 53.082031 327.273438 46.503906 319.414062 37.722656 317.4375 L 37.722656 284.355469 L 80.949219 254.582031 L 80.949219 244.082031 Z M 33.40625 325.59375 C 39.496094 325.59375 44.445312 330.542969 44.445312 336.628906 C 44.445312 342.71875 39.496094 347.667969 33.40625 347.667969 C 27.320312 347.667969 22.371094 342.71875 22.371094 336.628906 C 22.371094 330.542969 27.320312 325.59375 33.40625 325.59375 Z M 33.40625 325.59375 " fill-opacity="1" fill-rule="evenodd"/></g><g clip-path="url(#e86087f93d)"><path fill="#1d5074" d="M 183.027344 322.09375 C 174.25 324.066406 167.667969 331.925781 167.667969 341.292969 C 167.667969 352.148438 176.5 360.972656 187.347656 360.972656 C 198.199219 360.972656 207.03125 352.148438 207.03125 341.292969 C 207.03125 331.925781 200.453125 324.066406 191.671875 322.09375 L 191.671875 293.742188 L 183.027344 293.742188 Z M 187.347656 330.253906 C 193.429688 330.253906 198.386719 335.203125 198.386719 341.292969 C 198.386719 347.378906 193.429688 352.328125 187.347656 352.328125 C 181.269531 352.328125 176.3125 347.378906 176.3125 341.292969 C 176.3125 335.203125 181.261719 330.253906 187.347656 330.253906 Z M 187.347656 330.253906 " fill-opacity="1" fill-rule="evenodd"/></g><g clip-path="url(#f0777666a5)"><path fill="#1d5074" d="M 293.742188 254.574219 L 336.96875 284.347656 L 336.96875 317.429688 C 328.1875 319.40625 321.609375 327.265625 321.609375 336.628906 C 321.609375 347.480469 330.441406 356.3125 341.292969 356.3125 C 352.140625 356.3125 360.972656 347.480469 360.972656 336.628906 C 360.972656 327.257812 354.398438 319.40625 345.613281 317.429688 L 345.613281 282.070312 C 345.613281 280.652344 344.914062 279.320312 343.742188 278.511719 L 293.742188 244.078125 Z M 341.292969 325.59375 C 347.378906 325.59375 352.328125 330.542969 352.328125 336.628906 C 352.328125 342.71875 347.378906 347.667969 341.292969 347.667969 C 335.203125 347.667969 330.253906 342.71875 330.253906 336.628906 C 330.253906 330.542969 335.203125 325.59375 341.292969 325.59375 Z M 341.292969 325.59375 " fill-opacity="1" fill-rule="evenodd"/></g><g clip-path="url(#2ac089fe71)"><path fill="#1d5074" d="M 293.742188 191.671875 L 322.09375 191.671875 C 324.066406 200.445312 331.925781 207.03125 341.292969 207.03125 C 352.140625 207.03125 360.972656 198.199219 360.972656 187.347656 C 360.972656 176.5 352.140625 167.667969 341.292969 167.667969 C 331.925781 167.667969 324.066406 174.246094 322.09375 183.027344 L 293.742188 183.027344 Z M 330.253906 187.347656 C 330.253906 181.261719 335.203125 176.3125 341.292969 176.3125 C 347.378906 176.3125 352.328125 181.261719 352.328125 187.347656 C 352.328125 193.4375 347.378906 198.386719 341.292969 198.386719 C 335.203125 198.386719 330.253906 193.4375 330.253906 187.347656 Z M 330.253906 187.347656 " fill-opacity="1" fill-rule="evenodd"/></g></svg>