<svg xmlns="http://www.w3.org/2000/svg" xmlns:xlink="http://www.w3.org/1999/xlink" width="500" zoomAndPan="magnify" viewBox="0 0 375 374.999991" height="500" preserveAspectRatio="xMidYMid meet" version="1.0"><rect x="-37.5" width="450" fill="#ffffff" y="-37.499999" height="449.999989" fill-opacity="1"/><rect x="-37.5" width="450" fill="#ffffff" y="-37.499999" height="449.999989" fill-opacity="1"/><path fill="#25197b" d="M 102.066406 25.347656 L 128.210938 51.484375 L 128.210938 90.566406 L 132.191406 90.566406 L 132.191406 49.835938 L 104.882812 22.535156 C 104.988281 22.21875 105.058594 21.890625 105.09375 21.558594 C 105.128906 21.222656 105.125 20.890625 105.085938 20.554688 C 105.046875 20.222656 104.96875 19.898438 104.855469 19.582031 C 104.742188 19.265625 104.59375 18.964844 104.414062 18.679688 C 104.230469 18.398438 104.023438 18.136719 103.785156 17.902344 C 103.542969 17.664062 103.28125 17.460938 102.996094 17.28125 C 102.710938 17.105469 102.410156 16.960938 102.09375 16.851562 C 101.773438 16.742188 101.449219 16.667969 101.113281 16.632812 C 100.78125 16.597656 100.445312 16.597656 100.113281 16.636719 C 99.777344 16.675781 99.453125 16.75 99.136719 16.859375 C 98.820312 16.972656 98.519531 17.117188 98.234375 17.296875 C 97.949219 17.476562 97.6875 17.683594 97.453125 17.921875 C 97.214844 18.160156 97.003906 18.421875 96.828125 18.703125 C 96.648438 18.988281 96.503906 19.289062 96.390625 19.605469 C 96.277344 19.921875 96.203125 20.25 96.164062 20.582031 C 96.128906 20.917969 96.125 21.25 96.164062 21.585938 C 96.199219 21.917969 96.273438 22.246094 96.382812 22.5625 C 96.492188 22.878906 96.632812 23.179688 96.8125 23.464844 C 96.988281 23.753906 97.195312 24.015625 97.433594 24.253906 C 97.667969 24.492188 97.925781 24.703125 98.210938 24.882812 C 98.496094 25.0625 98.792969 25.210938 99.109375 25.324219 C 99.425781 25.4375 99.75 25.515625 100.085938 25.554688 C 100.417969 25.597656 100.753906 25.597656 101.085938 25.566406 C 101.421875 25.53125 101.746094 25.460938 102.066406 25.351562 Z M 102.066406 25.347656 " fill-opacity="1" fill-rule="nonzero"/><path fill="#25197b" d="M 137.351562 1.753906 C 136.972656 1.375 136.539062 1.074219 136.050781 0.851562 C 135.5625 0.625 135.054688 0.496094 134.519531 0.453125 C 133.984375 0.414062 133.457031 0.464844 132.941406 0.613281 C 132.425781 0.761719 131.953125 0.992188 131.519531 1.308594 C 131.089844 1.625 130.726562 2.007812 130.429688 2.457031 C 130.132812 2.902344 129.925781 3.386719 129.804688 3.910156 C 129.679688 4.429688 129.652344 4.957031 129.71875 5.492188 C 129.785156 6.023438 129.945312 6.527344 130.191406 7.003906 C 130.4375 7.476562 130.757812 7.894531 131.15625 8.257812 C 131.554688 8.617188 132 8.898438 132.496094 9.097656 C 132.996094 9.296875 133.511719 9.40625 134.046875 9.421875 C 134.582031 9.4375 135.105469 9.359375 135.613281 9.1875 L 144.167969 17.742188 L 144.167969 90.566406 L 148.152344 90.566406 L 148.152344 16.089844 L 138.429688 6.371094 C 138.703125 5.558594 138.742188 4.738281 138.546875 3.90625 C 138.351562 3.078125 137.953125 2.359375 137.351562 1.753906 Z M 137.351562 1.753906 " fill-opacity="1" fill-rule="nonzero"/><path fill="#25197b" d="M 180.273438 56.148438 C 179.769531 56.148438 179.277344 56.234375 178.796875 56.398438 C 178.320312 56.566406 177.882812 56.808594 177.484375 57.121094 C 177.085938 57.4375 176.753906 57.808594 176.480469 58.238281 C 176.210938 58.664062 176.019531 59.125 175.902344 59.617188 C 175.789062 60.113281 175.757812 60.609375 175.808594 61.113281 C 175.863281 61.617188 175.996094 62.097656 176.214844 62.558594 C 176.429688 63.015625 176.714844 63.425781 177.070312 63.785156 C 177.425781 64.148438 177.828125 64.441406 178.285156 64.667969 L 178.285156 90.566406 L 182.265625 90.566406 L 182.265625 64.667969 C 182.71875 64.441406 183.125 64.148438 183.480469 63.785156 C 183.832031 63.425781 184.121094 63.015625 184.335938 62.558594 C 184.550781 62.097656 184.6875 61.617188 184.738281 61.113281 C 184.792969 60.609375 184.761719 60.113281 184.648438 59.617188 C 184.53125 59.125 184.339844 58.664062 184.066406 58.238281 C 183.796875 57.808594 183.460938 57.4375 183.066406 57.121094 C 182.667969 56.808594 182.230469 56.566406 181.753906 56.398438 C 181.273438 56.234375 180.78125 56.148438 180.273438 56.148438 Z M 180.273438 56.148438 " fill-opacity="1" fill-rule="nonzero"/><path fill="#25197b" d="M 163.765625 26.769531 C 163.261719 26.769531 162.769531 26.851562 162.289062 27.019531 C 161.8125 27.1875 161.375 27.425781 160.976562 27.742188 C 160.578125 28.058594 160.246094 28.429688 159.972656 28.855469 C 159.703125 29.285156 159.511719 29.746094 159.394531 30.238281 C 159.28125 30.730469 159.25 31.230469 159.300781 31.734375 C 159.355469 32.238281 159.488281 32.71875 159.707031 33.175781 C 159.921875 33.636719 160.207031 34.046875 160.5625 34.40625 C 160.917969 34.769531 161.320312 35.0625 161.777344 35.285156 L 161.777344 90.566406 L 165.757812 90.566406 L 165.757812 35.285156 C 166.210938 35.0625 166.617188 34.769531 166.972656 34.40625 C 167.324219 34.046875 167.613281 33.636719 167.828125 33.175781 C 168.042969 32.71875 168.179688 32.238281 168.230469 31.734375 C 168.285156 31.230469 168.253906 30.730469 168.140625 30.238281 C 168.023438 29.746094 167.832031 29.285156 167.558594 28.855469 C 167.289062 28.429688 166.953125 28.058594 166.558594 27.742188 C 166.160156 27.425781 165.722656 27.1875 165.246094 27.019531 C 164.765625 26.851562 164.273438 26.769531 163.765625 26.769531 Z M 163.765625 26.769531 " fill-opacity="1" fill-rule="nonzero"/><path fill="#25197b" d="M 271.195312 17.917969 C 270.902344 18.214844 270.652344 18.546875 270.445312 18.910156 C 270.242188 19.277344 270.09375 19.664062 270 20.074219 C 269.902344 20.480469 269.867188 20.894531 269.886719 21.3125 C 269.90625 21.730469 269.984375 22.140625 270.117188 22.535156 L 242.8125 49.835938 L 242.8125 90.566406 L 246.796875 90.566406 L 246.796875 51.484375 L 272.933594 25.347656 C 273.441406 25.519531 273.964844 25.597656 274.5 25.582031 C 275.035156 25.566406 275.550781 25.460938 276.050781 25.257812 C 276.546875 25.058594 276.996094 24.777344 277.390625 24.417969 C 277.789062 24.058594 278.109375 23.640625 278.355469 23.164062 C 278.605469 22.6875 278.761719 22.183594 278.828125 21.652344 C 278.894531 21.121094 278.867188 20.59375 278.746094 20.070312 C 278.621094 19.546875 278.414062 19.0625 278.117188 18.617188 C 277.824219 18.167969 277.457031 17.789062 277.027344 17.46875 C 276.59375 17.152344 276.121094 16.921875 275.605469 16.773438 C 275.089844 16.628906 274.5625 16.574219 274.03125 16.613281 C 273.496094 16.65625 272.984375 16.789062 272.496094 17.011719 C 272.007812 17.234375 271.578125 17.535156 271.195312 17.914062 Z M 271.195312 17.917969 " fill-opacity="1" fill-rule="nonzero"/><path fill="#25197b" d="M 230.832031 17.742188 L 239.394531 9.183594 C 239.710938 9.292969 240.039062 9.363281 240.371094 9.398438 C 240.707031 9.433594 241.039062 9.429688 241.375 9.386719 C 241.707031 9.347656 242.03125 9.269531 242.347656 9.15625 C 242.664062 9.042969 242.964844 8.898438 243.25 8.714844 C 243.53125 8.535156 243.792969 8.324219 244.027344 8.085938 C 244.265625 7.847656 244.472656 7.585938 244.648438 7.300781 C 244.824219 7.015625 244.96875 6.710938 245.078125 6.394531 C 245.1875 6.078125 245.261719 5.75 245.296875 5.417969 C 245.335938 5.082031 245.332031 4.75 245.292969 4.414062 C 245.257812 4.082031 245.179688 3.757812 245.070312 3.4375 C 244.957031 3.121094 244.8125 2.820312 244.632812 2.539062 C 244.453125 2.253906 244.246094 1.992188 244.007812 1.753906 C 243.769531 1.515625 243.511719 1.308594 243.226562 1.128906 C 242.941406 0.949219 242.640625 0.804688 242.324219 0.691406 C 242.007812 0.582031 241.679688 0.507812 241.347656 0.46875 C 241.011719 0.429688 240.679688 0.429688 240.34375 0.464844 C 240.011719 0.5 239.683594 0.574219 239.367188 0.683594 C 239.050781 0.792969 238.75 0.9375 238.464844 1.113281 C 238.175781 1.292969 237.914062 1.5 237.675781 1.734375 C 237.4375 1.972656 237.226562 2.230469 237.046875 2.515625 C 236.867188 2.796875 236.71875 3.097656 236.605469 3.414062 C 236.492188 3.730469 236.414062 4.054688 236.375 4.386719 C 236.332031 4.722656 236.332031 5.054688 236.367188 5.390625 C 236.398438 5.722656 236.472656 6.050781 236.578125 6.371094 L 226.855469 16.089844 L 226.855469 90.566406 L 230.835938 90.566406 Z M 230.832031 17.742188 " fill-opacity="1" fill-rule="nonzero"/><path fill="#25197b" d="M 194.726562 56.148438 C 194.21875 56.148438 193.726562 56.234375 193.246094 56.398438 C 192.769531 56.566406 192.332031 56.808594 191.933594 57.121094 C 191.539062 57.4375 191.203125 57.808594 190.933594 58.238281 C 190.660156 58.664062 190.46875 59.125 190.351562 59.617188 C 190.238281 60.113281 190.207031 60.609375 190.261719 61.113281 C 190.3125 61.617188 190.449219 62.097656 190.664062 62.558594 C 190.878906 63.015625 191.167969 63.425781 191.519531 63.785156 C 191.875 64.148438 192.28125 64.441406 192.734375 64.667969 L 192.734375 90.566406 L 196.714844 90.566406 L 196.714844 64.667969 C 197.171875 64.441406 197.574219 64.148438 197.929688 63.785156 C 198.285156 63.425781 198.570312 63.015625 198.785156 62.558594 C 199.003906 62.097656 199.136719 61.617188 199.191406 61.113281 C 199.242188 60.609375 199.210938 60.113281 199.097656 59.617188 C 198.980469 59.125 198.789062 58.664062 198.519531 58.238281 C 198.246094 57.808594 197.914062 57.4375 197.515625 57.121094 C 197.117188 56.808594 196.679688 56.566406 196.203125 56.398438 C 195.722656 56.234375 195.230469 56.148438 194.726562 56.148438 Z M 194.726562 56.148438 " fill-opacity="1" fill-rule="nonzero"/><path fill="#25197b" d="M 211.234375 26.769531 C 210.726562 26.769531 210.234375 26.851562 209.753906 27.019531 C 209.277344 27.1875 208.839844 27.425781 208.441406 27.742188 C 208.046875 28.058594 207.710938 28.429688 207.441406 28.855469 C 207.167969 29.285156 206.976562 29.746094 206.859375 30.238281 C 206.746094 30.730469 206.714844 31.230469 206.769531 31.734375 C 206.820312 32.238281 206.957031 32.71875 207.171875 33.175781 C 207.386719 33.636719 207.675781 34.046875 208.027344 34.40625 C 208.382812 34.769531 208.789062 35.0625 209.242188 35.285156 L 209.242188 90.566406 L 213.222656 90.566406 L 213.222656 35.285156 C 213.679688 35.0625 214.082031 34.769531 214.4375 34.40625 C 214.792969 34.046875 215.078125 33.636719 215.292969 33.175781 C 215.511719 32.71875 215.644531 32.238281 215.699219 31.734375 C 215.75 31.230469 215.71875 30.730469 215.605469 30.238281 C 215.488281 29.746094 215.296875 29.285156 215.027344 28.855469 C 214.753906 28.429688 214.421875 28.058594 214.023438 27.742188 C 213.625 27.425781 213.1875 27.1875 212.710938 27.019531 C 212.230469 26.851562 211.738281 26.769531 211.234375 26.769531 Z M 211.234375 26.769531 " fill-opacity="1" fill-rule="nonzero"/><path fill="#25197b" d="M 272.933594 349.664062 L 246.796875 323.527344 L 246.796875 284.449219 L 242.8125 284.449219 L 242.8125 325.175781 L 270.117188 352.476562 C 270.011719 352.796875 269.941406 353.121094 269.90625 353.457031 C 269.871094 353.789062 269.875 354.125 269.914062 354.457031 C 269.953125 354.792969 270.03125 355.117188 270.144531 355.433594 C 270.257812 355.75 270.40625 356.046875 270.585938 356.332031 C 270.769531 356.617188 270.976562 356.875 271.214844 357.109375 C 271.457031 357.347656 271.71875 357.554688 272.003906 357.730469 C 272.289062 357.910156 272.589844 358.050781 272.90625 358.160156 C 273.226562 358.269531 273.550781 358.34375 273.886719 358.378906 C 274.21875 358.417969 274.554688 358.414062 274.886719 358.378906 C 275.222656 358.339844 275.546875 358.265625 275.863281 358.152344 C 276.179688 358.039062 276.480469 357.894531 276.765625 357.714844 C 277.050781 357.539062 277.3125 357.328125 277.546875 357.089844 C 277.785156 356.855469 277.996094 356.59375 278.171875 356.308594 C 278.351562 356.023438 278.496094 355.722656 278.609375 355.40625 C 278.722656 355.089844 278.796875 354.765625 278.835938 354.429688 C 278.871094 354.097656 278.875 353.761719 278.835938 353.429688 C 278.800781 353.09375 278.726562 352.769531 278.617188 352.449219 C 278.507812 352.132812 278.367188 351.832031 278.1875 351.546875 C 278.011719 351.261719 277.804688 351 277.566406 350.757812 C 277.332031 350.519531 277.074219 350.3125 276.789062 350.128906 C 276.503906 349.949219 276.207031 349.800781 275.890625 349.6875 C 275.574219 349.574219 275.25 349.496094 274.914062 349.457031 C 274.582031 349.417969 274.246094 349.414062 273.914062 349.449219 C 273.578125 349.484375 273.253906 349.554688 272.933594 349.660156 Z M 272.933594 349.664062 " fill-opacity="1" fill-rule="nonzero"/><path fill="#25197b" d="M 239.394531 365.828125 L 230.835938 357.273438 L 230.835938 284.449219 L 226.855469 284.449219 L 226.855469 358.921875 L 236.578125 368.644531 C 236.472656 368.960938 236.398438 369.289062 236.367188 369.621094 C 236.332031 369.957031 236.332031 370.292969 236.375 370.625 C 236.414062 370.957031 236.492188 371.285156 236.605469 371.601562 C 236.71875 371.914062 236.867188 372.214844 237.046875 372.5 C 237.226562 372.78125 237.4375 373.042969 237.675781 373.277344 C 237.914062 373.515625 238.175781 373.722656 238.464844 373.898438 C 238.75 374.074219 239.050781 374.21875 239.367188 374.328125 C 239.683594 374.4375 240.011719 374.511719 240.34375 374.546875 C 240.679688 374.585938 241.011719 374.582031 241.347656 374.546875 C 241.679688 374.507812 242.007812 374.429688 242.324219 374.320312 C 242.640625 374.207031 242.941406 374.0625 243.226562 373.882812 C 243.511719 373.707031 243.769531 373.496094 244.007812 373.257812 C 244.246094 373.023438 244.453125 372.761719 244.632812 372.476562 C 244.8125 372.191406 244.957031 371.890625 245.070312 371.574219 C 245.179688 371.257812 245.257812 370.933594 245.292969 370.597656 C 245.332031 370.265625 245.335938 369.929688 245.296875 369.597656 C 245.261719 369.261719 245.1875 368.9375 245.078125 368.617188 C 244.96875 368.300781 244.824219 368 244.648438 367.714844 C 244.472656 367.429688 244.265625 367.164062 244.027344 366.925781 C 243.792969 366.6875 243.53125 366.476562 243.25 366.296875 C 242.964844 366.117188 242.664062 365.96875 242.347656 365.855469 C 242.03125 365.742188 241.707031 365.664062 241.375 365.625 C 241.039062 365.585938 240.707031 365.582031 240.371094 365.617188 C 240.039062 365.648438 239.710938 365.722656 239.394531 365.828125 Z M 239.394531 365.828125 " fill-opacity="1" fill-rule="nonzero"/><path fill="#25197b" d="M 196.714844 310.347656 L 196.714844 284.449219 L 192.734375 284.449219 L 192.734375 310.347656 C 192.433594 310.496094 192.152344 310.675781 191.890625 310.886719 C 191.632812 311.101562 191.398438 311.339844 191.191406 311.601562 C 190.984375 311.867188 190.808594 312.152344 190.664062 312.457031 C 190.519531 312.757812 190.414062 313.074219 190.339844 313.402344 C 190.269531 313.730469 190.234375 314.0625 190.234375 314.398438 C 190.238281 314.734375 190.277344 315.066406 190.351562 315.394531 C 190.429688 315.71875 190.542969 316.035156 190.6875 316.335938 C 190.835938 316.640625 191.015625 316.921875 191.226562 317.183594 C 191.433594 317.445312 191.671875 317.679688 191.933594 317.890625 C 192.199219 318.097656 192.480469 318.273438 192.785156 318.417969 C 193.085938 318.566406 193.402344 318.675781 193.730469 318.75 C 194.058594 318.824219 194.390625 318.859375 194.726562 318.859375 C 195.0625 318.859375 195.394531 318.824219 195.71875 318.75 C 196.046875 318.675781 196.363281 318.566406 196.667969 318.417969 C 196.96875 318.273438 197.253906 318.097656 197.515625 317.890625 C 197.777344 317.679688 198.015625 317.445312 198.226562 317.183594 C 198.4375 316.921875 198.613281 316.640625 198.761719 316.335938 C 198.910156 316.035156 199.019531 315.71875 199.097656 315.394531 C 199.171875 315.066406 199.214844 314.734375 199.214844 314.398438 C 199.21875 314.0625 199.183594 313.730469 199.109375 313.402344 C 199.035156 313.074219 198.929688 312.757812 198.785156 312.457031 C 198.640625 312.152344 198.46875 311.867188 198.261719 311.601562 C 198.054688 311.339844 197.820312 311.101562 197.558594 310.886719 C 197.296875 310.675781 197.015625 310.496094 196.714844 310.347656 Z M 196.714844 310.347656 " fill-opacity="1" fill-rule="nonzero"/><path fill="#25197b" d="M 213.222656 339.726562 L 213.222656 284.449219 L 209.242188 284.449219 L 209.242188 339.726562 C 208.941406 339.875 208.660156 340.054688 208.398438 340.269531 C 208.136719 340.480469 207.90625 340.71875 207.699219 340.984375 C 207.488281 341.246094 207.316406 341.53125 207.171875 341.835938 C 207.027344 342.140625 206.921875 342.457031 206.847656 342.785156 C 206.773438 343.113281 206.738281 343.445312 206.742188 343.78125 C 206.742188 344.117188 206.78125 344.449219 206.859375 344.773438 C 206.9375 345.101562 207.046875 345.417969 207.195312 345.71875 C 207.34375 346.019531 207.519531 346.304688 207.730469 346.566406 C 207.941406 346.828125 208.179688 347.0625 208.441406 347.273438 C 208.707031 347.480469 208.988281 347.65625 209.292969 347.804688 C 209.59375 347.949219 209.910156 348.058594 210.238281 348.132812 C 210.566406 348.207031 210.898438 348.246094 211.234375 348.246094 C 211.570312 348.246094 211.902344 348.207031 212.226562 348.132812 C 212.554688 348.058594 212.871094 347.949219 213.175781 347.804688 C 213.476562 347.65625 213.761719 347.480469 214.023438 347.273438 C 214.289062 347.0625 214.523438 346.828125 214.734375 346.566406 C 214.945312 346.304688 215.125 346.019531 215.269531 345.71875 C 215.417969 345.417969 215.53125 345.101562 215.605469 344.773438 C 215.683594 344.449219 215.722656 344.117188 215.722656 343.78125 C 215.726562 343.445312 215.691406 343.113281 215.617188 342.785156 C 215.546875 342.457031 215.4375 342.140625 215.292969 341.835938 C 215.152344 341.53125 214.976562 341.246094 214.769531 340.984375 C 214.5625 340.71875 214.328125 340.480469 214.066406 340.269531 C 213.804688 340.054688 213.523438 339.875 213.222656 339.726562 Z M 213.222656 339.726562 " fill-opacity="1" fill-rule="nonzero"/><path fill="#25197b" d="M 132.1875 325.175781 L 132.1875 284.449219 L 128.203125 284.449219 L 128.203125 323.527344 L 102.058594 349.664062 C 101.742188 349.558594 101.414062 349.488281 101.078125 349.453125 C 100.746094 349.421875 100.410156 349.425781 100.078125 349.464844 C 99.746094 349.507812 99.417969 349.585938 99.105469 349.699219 C 98.789062 349.8125 98.488281 349.960938 98.207031 350.140625 C 97.921875 350.324219 97.664062 350.535156 97.429688 350.773438 C 97.191406 351.011719 96.984375 351.273438 96.808594 351.5625 C 96.632812 351.847656 96.488281 352.148438 96.382812 352.464844 C 96.273438 352.785156 96.199219 353.109375 96.164062 353.445312 C 96.128906 353.777344 96.128906 354.113281 96.167969 354.445312 C 96.207031 354.78125 96.285156 355.105469 96.394531 355.421875 C 96.507812 355.738281 96.652344 356.039062 96.832031 356.324219 C 97.011719 356.605469 97.222656 356.867188 97.460938 357.105469 C 97.699219 357.339844 97.960938 357.550781 98.242188 357.726562 C 98.527344 357.90625 98.828125 358.050781 99.148438 358.164062 C 99.464844 358.273438 99.789062 358.347656 100.121094 358.386719 C 100.457031 358.421875 100.789062 358.421875 101.125 358.386719 C 101.457031 358.347656 101.785156 358.277344 102.101562 358.164062 C 102.417969 358.054688 102.71875 357.910156 103.003906 357.734375 C 103.289062 357.554688 103.550781 357.347656 103.792969 357.113281 C 104.03125 356.875 104.238281 356.617188 104.417969 356.332031 C 104.601562 356.050781 104.746094 355.75 104.859375 355.433594 C 104.972656 355.117188 105.050781 354.792969 105.089844 354.457031 C 105.128906 354.125 105.132812 353.789062 105.097656 353.457031 C 105.0625 353.121094 104.988281 352.796875 104.882812 352.476562 Z M 132.1875 325.175781 " fill-opacity="1" fill-rule="nonzero"/><path fill="#25197b" d="M 144.167969 357.273438 L 135.613281 365.828125 C 135.292969 365.722656 134.96875 365.648438 134.632812 365.617188 C 134.300781 365.582031 133.964844 365.585938 133.632812 365.625 C 133.300781 365.664062 132.972656 365.742188 132.65625 365.855469 C 132.339844 365.96875 132.042969 366.117188 131.757812 366.296875 C 131.476562 366.476562 131.214844 366.6875 130.980469 366.925781 C 130.742188 367.164062 130.535156 367.429688 130.359375 367.714844 C 130.179688 368 130.039062 368.300781 129.929688 368.617188 C 129.820312 368.9375 129.746094 369.261719 129.710938 369.597656 C 129.671875 369.929688 129.671875 370.265625 129.710938 370.597656 C 129.75 370.929688 129.824219 371.257812 129.9375 371.574219 C 130.046875 371.890625 130.195312 372.191406 130.375 372.476562 C 130.550781 372.761719 130.761719 373.023438 130.996094 373.257812 C 131.234375 373.496094 131.496094 373.707031 131.78125 373.882812 C 132.066406 374.0625 132.367188 374.207031 132.683594 374.320312 C 133 374.429688 133.324219 374.507812 133.660156 374.546875 C 133.992188 374.582031 134.328125 374.585938 134.660156 374.546875 C 134.996094 374.511719 135.320312 374.4375 135.640625 374.328125 C 135.957031 374.21875 136.257812 374.074219 136.542969 373.898438 C 136.828125 373.722656 137.089844 373.515625 137.332031 373.277344 C 137.570312 373.042969 137.78125 372.78125 137.960938 372.5 C 138.140625 372.214844 138.289062 371.914062 138.402344 371.601562 C 138.515625 371.285156 138.59375 370.957031 138.632812 370.625 C 138.671875 370.292969 138.675781 369.957031 138.640625 369.621094 C 138.605469 369.289062 138.535156 368.960938 138.429688 368.644531 L 148.152344 358.921875 L 148.152344 284.449219 L 144.167969 284.449219 Z M 144.167969 357.273438 " fill-opacity="1" fill-rule="nonzero"/><path fill="#25197b" d="M 182.265625 310.347656 L 182.265625 284.449219 L 178.285156 284.449219 L 178.285156 310.347656 C 177.984375 310.496094 177.703125 310.675781 177.441406 310.886719 C 177.179688 311.101562 176.945312 311.339844 176.738281 311.601562 C 176.53125 311.867188 176.355469 312.152344 176.214844 312.457031 C 176.070312 312.757812 175.960938 313.074219 175.890625 313.402344 C 175.816406 313.730469 175.78125 314.0625 175.785156 314.398438 C 175.785156 314.734375 175.824219 315.066406 175.902344 315.394531 C 175.976562 315.722656 176.089844 316.035156 176.238281 316.339844 C 176.382812 316.640625 176.5625 316.921875 176.773438 317.183594 C 176.984375 317.445312 177.21875 317.683594 177.484375 317.890625 C 177.746094 318.101562 178.03125 318.277344 178.332031 318.421875 C 178.636719 318.566406 178.953125 318.675781 179.277344 318.753906 C 179.605469 318.828125 179.9375 318.863281 180.273438 318.863281 C 180.609375 318.863281 180.941406 318.828125 181.269531 318.753906 C 181.597656 318.675781 181.914062 318.566406 182.214844 318.421875 C 182.519531 318.277344 182.800781 318.101562 183.066406 317.890625 C 183.328125 317.683594 183.566406 317.445312 183.777344 317.183594 C 183.988281 316.921875 184.164062 316.640625 184.3125 316.339844 C 184.460938 316.035156 184.570312 315.722656 184.648438 315.394531 C 184.722656 315.066406 184.765625 314.734375 184.765625 314.398438 C 184.769531 314.0625 184.734375 313.730469 184.660156 313.402344 C 184.585938 313.074219 184.480469 312.757812 184.335938 312.457031 C 184.191406 312.152344 184.019531 311.867188 183.808594 311.601562 C 183.601562 311.339844 183.371094 311.101562 183.109375 310.886719 C 182.847656 310.675781 182.566406 310.496094 182.265625 310.347656 Z M 182.265625 310.347656 " fill-opacity="1" fill-rule="nonzero"/><path fill="#25197b" d="M 165.757812 339.726562 L 165.757812 284.449219 L 161.777344 284.449219 L 161.777344 339.726562 C 161.476562 339.875 161.195312 340.054688 160.933594 340.269531 C 160.671875 340.480469 160.4375 340.71875 160.230469 340.984375 C 160.023438 341.246094 159.847656 341.53125 159.707031 341.835938 C 159.5625 342.140625 159.453125 342.457031 159.382812 342.785156 C 159.308594 343.113281 159.273438 343.445312 159.277344 343.78125 C 159.277344 344.117188 159.316406 344.449219 159.394531 344.773438 C 159.46875 345.101562 159.582031 345.417969 159.730469 345.71875 C 159.875 346.019531 160.054688 346.304688 160.265625 346.566406 C 160.476562 346.828125 160.710938 347.0625 160.976562 347.273438 C 161.238281 347.480469 161.523438 347.65625 161.824219 347.804688 C 162.128906 347.949219 162.445312 348.058594 162.769531 348.132812 C 163.097656 348.207031 163.429688 348.246094 163.765625 348.246094 C 164.101562 348.246094 164.433594 348.207031 164.761719 348.132812 C 165.089844 348.058594 165.40625 347.949219 165.707031 347.804688 C 166.011719 347.65625 166.292969 347.480469 166.558594 347.273438 C 166.820312 347.0625 167.058594 346.828125 167.269531 346.566406 C 167.480469 346.304688 167.65625 346.019531 167.804688 345.71875 C 167.953125 345.417969 168.0625 345.101562 168.140625 344.773438 C 168.21875 344.449219 168.257812 344.117188 168.257812 343.78125 C 168.261719 343.445312 168.226562 343.113281 168.152344 342.785156 C 168.078125 342.457031 167.972656 342.140625 167.828125 341.835938 C 167.683594 341.53125 167.511719 341.246094 167.300781 340.984375 C 167.09375 340.71875 166.863281 340.480469 166.601562 340.269531 C 166.339844 340.054688 166.058594 339.875 165.757812 339.726562 Z M 165.757812 339.726562 " fill-opacity="1" fill-rule="nonzero"/><path fill="#25197b" d="M 352.472656 104.886719 C 352.789062 104.996094 353.117188 105.066406 353.449219 105.101562 C 353.785156 105.136719 354.117188 105.132812 354.453125 105.09375 C 354.785156 105.050781 355.109375 104.976562 355.425781 104.859375 C 355.742188 104.746094 356.042969 104.601562 356.324219 104.417969 C 356.609375 104.238281 356.867188 104.027344 357.105469 103.789062 C 357.339844 103.550781 357.546875 103.289062 357.722656 103.003906 C 357.902344 102.71875 358.046875 102.417969 358.15625 102.097656 C 358.265625 101.78125 358.335938 101.453125 358.375 101.121094 C 358.410156 100.785156 358.410156 100.453125 358.371094 100.117188 C 358.332031 99.785156 358.257812 99.460938 358.144531 99.144531 C 358.035156 98.824219 357.890625 98.523438 357.710938 98.242188 C 357.53125 97.957031 357.324219 97.695312 357.085938 97.457031 C 356.847656 97.21875 356.585938 97.011719 356.300781 96.832031 C 356.019531 96.652344 355.71875 96.507812 355.398438 96.398438 C 355.082031 96.285156 354.757812 96.210938 354.421875 96.171875 C 354.089844 96.132812 353.757812 96.132812 353.421875 96.167969 C 353.089844 96.207031 352.761719 96.277344 352.445312 96.386719 C 352.125 96.496094 351.824219 96.640625 351.539062 96.820312 C 351.253906 96.996094 350.992188 97.203125 350.753906 97.4375 C 350.515625 97.675781 350.304688 97.933594 350.125 98.21875 C 349.941406 98.5 349.796875 98.800781 349.683594 99.117188 C 349.570312 99.433594 349.492188 99.757812 349.449219 100.089844 C 349.410156 100.425781 349.40625 100.757812 349.441406 101.09375 C 349.476562 101.425781 349.546875 101.753906 349.65625 102.070312 L 323.515625 128.21875 L 284.441406 128.21875 L 284.441406 132.199219 L 325.167969 132.199219 Z M 352.472656 104.886719 " fill-opacity="1" fill-rule="nonzero"/><path fill="#25197b" d="M 368.636719 138.433594 C 368.957031 138.542969 369.28125 138.613281 369.617188 138.648438 C 369.949219 138.683594 370.285156 138.679688 370.617188 138.640625 C 370.953125 138.597656 371.277344 138.519531 371.59375 138.40625 C 371.910156 138.292969 372.210938 138.148438 372.492188 137.964844 C 372.777344 137.785156 373.035156 137.574219 373.273438 137.335938 C 373.507812 137.097656 373.714844 136.835938 373.890625 136.550781 C 374.070312 136.265625 374.210938 135.964844 374.324219 135.644531 C 374.433594 135.328125 374.503906 135.003906 374.542969 134.667969 C 374.578125 134.332031 374.578125 134 374.539062 133.667969 C 374.5 133.332031 374.425781 133.007812 374.3125 132.691406 C 374.203125 132.371094 374.054688 132.070312 373.878906 131.789062 C 373.699219 131.503906 373.492188 131.242188 373.253906 131.003906 C 373.015625 130.765625 372.753906 130.558594 372.46875 130.378906 C 372.183594 130.199219 371.882812 130.054688 371.566406 129.945312 C 371.25 129.832031 370.925781 129.757812 370.589844 129.71875 C 370.257812 129.679688 369.921875 129.679688 369.589844 129.714844 C 369.253906 129.753906 368.929688 129.824219 368.613281 129.933594 C 368.292969 130.042969 367.992188 130.1875 367.707031 130.367188 C 367.421875 130.542969 367.160156 130.75 366.921875 130.984375 C 366.679688 131.222656 366.472656 131.480469 366.289062 131.765625 C 366.109375 132.046875 365.960938 132.347656 365.847656 132.664062 C 365.734375 132.980469 365.660156 133.304688 365.617188 133.640625 C 365.578125 133.972656 365.574219 134.304688 365.609375 134.640625 C 365.644531 134.976562 365.714844 135.300781 365.824219 135.621094 L 357.265625 144.175781 L 284.441406 144.175781 L 284.441406 148.15625 L 358.914062 148.15625 Z M 368.636719 138.433594 " fill-opacity="1" fill-rule="nonzero"/><path fill="#25197b" d="M 314.367188 184.773438 C 314.902344 184.773438 315.421875 184.679688 315.925781 184.492188 C 316.425781 184.308594 316.882812 184.039062 317.289062 183.691406 C 317.695312 183.34375 318.03125 182.933594 318.292969 182.464844 C 318.550781 181.996094 318.722656 181.496094 318.804688 180.964844 C 318.886719 180.4375 318.875 179.910156 318.765625 179.382812 C 318.660156 178.859375 318.464844 178.367188 318.179688 177.910156 C 317.898438 177.457031 317.546875 177.0625 317.121094 176.734375 C 316.699219 176.40625 316.230469 176.160156 315.71875 176 C 315.207031 175.835938 314.683594 175.769531 314.148438 175.796875 C 313.613281 175.820312 313.097656 175.9375 312.605469 176.148438 C 312.113281 176.359375 311.671875 176.648438 311.28125 177.015625 C 310.890625 177.386719 310.578125 177.808594 310.339844 178.289062 L 284.441406 178.289062 L 284.441406 182.273438 L 310.339844 182.273438 C 310.71875 183.039062 311.269531 183.644531 311.996094 184.097656 C 312.722656 184.546875 313.511719 184.773438 314.367188 184.773438 Z M 314.367188 184.773438 " fill-opacity="1" fill-rule="nonzero"/><path fill="#25197b" d="M 343.746094 168.261719 C 344.28125 168.261719 344.800781 168.167969 345.304688 167.984375 C 345.808594 167.796875 346.261719 167.53125 346.667969 167.179688 C 347.078125 166.832031 347.410156 166.421875 347.671875 165.953125 C 347.933594 165.484375 348.101562 164.984375 348.183594 164.457031 C 348.265625 163.925781 348.253906 163.398438 348.148438 162.875 C 348.039062 162.347656 347.84375 161.855469 347.5625 161.402344 C 347.277344 160.945312 346.925781 160.554688 346.503906 160.226562 C 346.078125 159.894531 345.613281 159.648438 345.101562 159.488281 C 344.589844 159.328125 344.066406 159.257812 343.53125 159.285156 C 342.992188 159.3125 342.480469 159.429688 341.984375 159.640625 C 341.492188 159.847656 341.050781 160.136719 340.660156 160.507812 C 340.273438 160.875 339.957031 161.300781 339.71875 161.78125 L 284.441406 161.78125 L 284.441406 165.761719 L 339.71875 165.761719 C 340.097656 166.527344 340.652344 167.136719 341.375 167.585938 C 342.101562 168.035156 342.890625 168.261719 343.746094 168.261719 Z M 343.746094 168.261719 " fill-opacity="1" fill-rule="nonzero"/><path fill="#25197b" d="M 352.472656 270.125 L 325.164062 242.820312 L 284.441406 242.820312 L 284.441406 246.800781 L 323.519531 246.800781 L 349.660156 272.941406 C 349.550781 273.257812 349.480469 273.585938 349.445312 273.921875 C 349.410156 274.253906 349.414062 274.589844 349.457031 274.921875 C 349.496094 275.253906 349.574219 275.582031 349.6875 275.898438 C 349.800781 276.214844 349.949219 276.511719 350.128906 276.796875 C 350.308594 277.078125 350.519531 277.339844 350.757812 277.574219 C 351 277.8125 351.261719 278.015625 351.546875 278.195312 C 351.832031 278.371094 352.132812 278.515625 352.453125 278.625 C 352.769531 278.734375 353.09375 278.808594 353.429688 278.84375 C 353.761719 278.878906 354.097656 278.878906 354.429688 278.839844 C 354.765625 278.800781 355.089844 278.726562 355.40625 278.613281 C 355.722656 278.5 356.023438 278.355469 356.308594 278.175781 C 356.59375 277.996094 356.855469 277.789062 357.089844 277.550781 C 357.328125 277.3125 357.539062 277.050781 357.714844 276.769531 C 357.894531 276.484375 358.039062 276.183594 358.152344 275.867188 C 358.261719 275.546875 358.335938 275.222656 358.375 274.890625 C 358.414062 274.554688 358.414062 274.222656 358.378906 273.886719 C 358.339844 273.554688 358.269531 273.226562 358.15625 272.910156 C 358.046875 272.59375 357.90625 272.289062 357.726562 272.003906 C 357.550781 271.71875 357.34375 271.457031 357.105469 271.21875 C 356.871094 270.980469 356.609375 270.769531 356.328125 270.589844 C 356.042969 270.410156 355.742188 270.261719 355.425781 270.148438 C 355.109375 270.035156 354.785156 269.960938 354.453125 269.917969 C 354.117188 269.878906 353.785156 269.875 353.449219 269.910156 C 353.117188 269.945312 352.789062 270.015625 352.472656 270.125 Z M 352.472656 270.125 " fill-opacity="1" fill-rule="nonzero"/><path fill="#25197b" d="M 368.636719 236.578125 L 358.914062 226.855469 L 284.441406 226.855469 L 284.441406 230.835938 L 357.265625 230.835938 L 365.824219 239.398438 C 365.714844 239.71875 365.644531 240.042969 365.609375 240.378906 C 365.574219 240.714844 365.578125 241.046875 365.617188 241.378906 C 365.660156 241.714844 365.734375 242.039062 365.847656 242.355469 C 365.960938 242.671875 366.109375 242.972656 366.289062 243.253906 C 366.472656 243.539062 366.679688 243.796875 366.921875 244.035156 C 367.160156 244.269531 367.421875 244.476562 367.707031 244.65625 C 367.992188 244.832031 368.292969 244.976562 368.613281 245.085938 C 368.929688 245.195312 369.253906 245.269531 369.589844 245.304688 C 369.921875 245.339844 370.257812 245.339844 370.589844 245.300781 C 370.925781 245.261719 371.25 245.1875 371.566406 245.074219 C 371.882812 244.964844 372.183594 244.820312 372.46875 244.640625 C 372.753906 244.460938 373.015625 244.253906 373.253906 244.015625 C 373.492188 243.777344 373.699219 243.515625 373.878906 243.230469 C 374.054688 242.949219 374.203125 242.648438 374.3125 242.332031 C 374.425781 242.011719 374.5 241.6875 374.539062 241.355469 C 374.578125 241.019531 374.578125 240.6875 374.542969 240.351562 C 374.503906 240.019531 374.433594 239.691406 374.324219 239.375 C 374.210938 239.058594 374.070312 238.753906 373.890625 238.46875 C 373.714844 238.183594 373.507812 237.921875 373.273438 237.683594 C 373.035156 237.445312 372.777344 237.234375 372.492188 237.054688 C 372.210938 236.871094 371.910156 236.726562 371.59375 236.613281 C 371.277344 236.5 370.953125 236.421875 370.617188 236.382812 C 370.285156 236.339844 369.949219 236.335938 369.617188 236.371094 C 369.28125 236.40625 368.957031 236.476562 368.636719 236.585938 Z M 368.636719 236.578125 " fill-opacity="1" fill-rule="nonzero"/><path fill="#25197b" d="M 314.367188 199.222656 C 314.902344 199.222656 315.421875 199.128906 315.925781 198.941406 C 316.425781 198.757812 316.882812 198.488281 317.289062 198.140625 C 317.695312 197.792969 318.03125 197.382812 318.292969 196.914062 C 318.550781 196.445312 318.722656 195.945312 318.804688 195.414062 C 318.886719 194.886719 318.875 194.359375 318.765625 193.832031 C 318.660156 193.308594 318.464844 192.816406 318.183594 192.359375 C 317.898438 191.90625 317.546875 191.511719 317.121094 191.183594 C 316.699219 190.855469 316.230469 190.609375 315.71875 190.449219 C 315.207031 190.285156 314.683594 190.21875 314.148438 190.246094 C 313.613281 190.269531 313.097656 190.390625 312.605469 190.597656 C 312.113281 190.808594 311.671875 191.097656 311.28125 191.46875 C 310.890625 191.835938 310.578125 192.261719 310.339844 192.742188 L 284.441406 192.742188 L 284.441406 196.722656 L 310.339844 196.722656 C 310.71875 197.488281 311.269531 198.097656 311.996094 198.546875 C 312.722656 198.996094 313.511719 199.222656 314.367188 199.222656 Z M 314.367188 199.222656 " fill-opacity="1" fill-rule="nonzero"/><path fill="#25197b" d="M 343.746094 215.730469 C 344.28125 215.730469 344.800781 215.636719 345.304688 215.453125 C 345.808594 215.265625 346.261719 215 346.667969 214.648438 C 347.078125 214.300781 347.410156 213.890625 347.671875 213.421875 C 347.933594 212.953125 348.101562 212.453125 348.183594 211.925781 C 348.265625 211.394531 348.253906 210.867188 348.148438 210.339844 C 348.039062 209.816406 347.84375 209.324219 347.5625 208.871094 C 347.277344 208.414062 346.925781 208.023438 346.503906 207.691406 C 346.078125 207.363281 345.613281 207.117188 345.101562 206.957031 C 344.589844 206.796875 344.066406 206.726562 343.53125 206.753906 C 342.992188 206.78125 342.480469 206.898438 341.984375 207.109375 C 341.492188 207.316406 341.050781 207.605469 340.660156 207.976562 C 340.273438 208.34375 339.957031 208.769531 339.71875 209.25 L 284.441406 209.25 L 284.441406 213.230469 L 339.71875 213.230469 C 340.097656 213.996094 340.652344 214.605469 341.375 215.054688 C 342.101562 215.503906 342.890625 215.730469 343.746094 215.730469 Z M 343.746094 215.730469 " fill-opacity="1" fill-rule="nonzero"/><path fill="#25197b" d="M 22.527344 270.125 C 22.210938 270.015625 21.882812 269.945312 21.550781 269.910156 C 21.214844 269.878906 20.882812 269.878906 20.546875 269.921875 C 20.214844 269.960938 19.890625 270.039062 19.574219 270.152344 C 19.257812 270.265625 18.957031 270.414062 18.675781 270.59375 C 18.390625 270.773438 18.132812 270.984375 17.894531 271.222656 C 17.660156 271.460938 17.453125 271.726562 17.277344 272.011719 C 17.097656 272.296875 16.953125 272.597656 16.84375 272.914062 C 16.734375 273.234375 16.664062 273.558594 16.625 273.890625 C 16.589844 274.226562 16.589844 274.558594 16.628906 274.894531 C 16.667969 275.226562 16.742188 275.554688 16.855469 275.871094 C 16.964844 276.1875 17.109375 276.488281 17.289062 276.773438 C 17.46875 277.058594 17.675781 277.316406 17.914062 277.554688 C 18.152344 277.792969 18.414062 278 18.699219 278.179688 C 18.980469 278.359375 19.28125 278.503906 19.601562 278.617188 C 19.917969 278.726562 20.242188 278.800781 20.578125 278.839844 C 20.910156 278.878906 21.242188 278.878906 21.578125 278.84375 C 21.910156 278.808594 22.238281 278.734375 22.554688 278.625 C 22.875 278.515625 23.175781 278.371094 23.460938 278.195312 C 23.746094 278.015625 24.007812 277.8125 24.246094 277.574219 C 24.484375 277.339844 24.695312 277.078125 24.875 276.796875 C 25.058594 276.511719 25.203125 276.210938 25.316406 275.894531 C 25.429688 275.582031 25.507812 275.253906 25.550781 274.921875 C 25.589844 274.589844 25.59375 274.253906 25.558594 273.917969 C 25.523438 273.585938 25.453125 273.257812 25.34375 272.941406 L 51.484375 246.800781 L 90.558594 246.800781 L 90.558594 242.820312 L 49.832031 242.820312 Z M 22.527344 270.125 " fill-opacity="1" fill-rule="nonzero"/><path fill="#25197b" d="M 6.363281 236.578125 C 6.042969 236.46875 5.71875 236.398438 5.382812 236.363281 C 5.050781 236.328125 4.714844 236.332031 4.382812 236.375 C 4.050781 236.414062 3.722656 236.488281 3.40625 236.601562 C 3.089844 236.714844 2.792969 236.863281 2.507812 237.042969 C 2.226562 237.222656 1.964844 237.433594 1.726562 237.671875 C 1.492188 237.910156 1.285156 238.171875 1.109375 238.457031 C 0.929688 238.742188 0.785156 239.046875 0.675781 239.363281 C 0.566406 239.679688 0.492188 240.007812 0.457031 240.339844 C 0.417969 240.675781 0.421875 241.007812 0.457031 241.339844 C 0.496094 241.675781 0.570312 242 0.683594 242.316406 C 0.792969 242.636719 0.9375 242.9375 1.117188 243.21875 C 1.296875 243.503906 1.503906 243.765625 1.742188 244.003906 C 1.976562 244.242188 2.238281 244.449219 2.523438 244.628906 C 2.808594 244.808594 3.109375 244.953125 3.425781 245.066406 C 3.742188 245.179688 4.066406 245.253906 4.402344 245.292969 C 4.734375 245.332031 5.066406 245.332031 5.402344 245.296875 C 5.734375 245.261719 6.0625 245.1875 6.378906 245.078125 C 6.699219 244.96875 7 244.828125 7.285156 244.652344 C 7.570312 244.472656 7.832031 244.265625 8.074219 244.03125 C 8.3125 243.796875 8.523438 243.535156 8.703125 243.253906 C 8.882812 242.96875 9.03125 242.671875 9.144531 242.355469 C 9.257812 242.039062 9.335938 241.714844 9.378906 241.378906 C 9.417969 241.046875 9.421875 240.714844 9.390625 240.378906 C 9.355469 240.042969 9.285156 239.71875 9.175781 239.398438 L 17.734375 230.84375 L 90.558594 230.84375 L 90.558594 226.863281 L 16.085938 226.863281 Z M 6.363281 236.578125 " fill-opacity="1" fill-rule="nonzero"/><path fill="#25197b" d="M 60.632812 190.242188 C 60.097656 190.242188 59.578125 190.332031 59.074219 190.519531 C 58.574219 190.707031 58.117188 190.972656 57.710938 191.320312 C 57.304688 191.671875 56.96875 192.082031 56.707031 192.546875 C 56.449219 193.015625 56.277344 193.515625 56.195312 194.046875 C 56.113281 194.578125 56.125 195.105469 56.234375 195.628906 C 56.339844 196.15625 56.535156 196.644531 56.820312 197.101562 C 57.101562 197.558594 57.453125 197.949219 57.878906 198.277344 C 58.300781 198.605469 58.769531 198.851562 59.28125 199.015625 C 59.792969 199.175781 60.316406 199.242188 60.851562 199.21875 C 61.386719 199.191406 61.902344 199.074219 62.394531 198.863281 C 62.886719 198.652344 63.328125 198.363281 63.71875 197.996094 C 64.109375 197.628906 64.421875 197.203125 64.660156 196.722656 L 90.558594 196.722656 L 90.558594 192.742188 L 64.660156 192.742188 C 64.28125 191.976562 63.730469 191.367188 63.003906 190.917969 C 62.277344 190.464844 61.488281 190.242188 60.632812 190.242188 Z M 60.632812 190.242188 " fill-opacity="1" fill-rule="nonzero"/><path fill="#25197b" d="M 31.253906 206.75 C 30.71875 206.75 30.199219 206.84375 29.695312 207.03125 C 29.191406 207.214844 28.738281 207.484375 28.332031 207.832031 C 27.921875 208.183594 27.589844 208.589844 27.328125 209.058594 C 27.066406 209.527344 26.898438 210.027344 26.816406 210.558594 C 26.734375 211.085938 26.746094 211.613281 26.851562 212.140625 C 26.960938 212.664062 27.15625 213.15625 27.4375 213.613281 C 27.722656 214.066406 28.074219 214.460938 28.496094 214.789062 C 28.921875 215.117188 29.386719 215.363281 29.898438 215.523438 C 30.410156 215.6875 30.933594 215.753906 31.46875 215.726562 C 32.007812 215.703125 32.519531 215.585938 33.015625 215.375 C 33.507812 215.164062 33.949219 214.875 34.339844 214.507812 C 34.726562 214.136719 35.042969 213.714844 35.28125 213.234375 L 90.558594 213.234375 L 90.558594 209.25 L 35.28125 209.25 C 34.902344 208.484375 34.347656 207.878906 33.625 207.425781 C 32.898438 206.976562 32.109375 206.75 31.253906 206.75 Z M 31.253906 206.75 " fill-opacity="1" fill-rule="nonzero"/><path fill="#25197b" d="M 25.339844 102.070312 C 25.449219 101.753906 25.519531 101.425781 25.554688 101.09375 C 25.589844 100.757812 25.585938 100.425781 25.542969 100.089844 C 25.503906 99.757812 25.425781 99.433594 25.3125 99.117188 C 25.199219 98.800781 25.050781 98.5 24.871094 98.21875 C 24.691406 97.933594 24.480469 97.675781 24.242188 97.4375 C 24 97.203125 23.738281 96.996094 23.453125 96.820312 C 23.167969 96.640625 22.867188 96.5 22.546875 96.390625 C 22.230469 96.28125 21.90625 96.207031 21.570312 96.171875 C 21.238281 96.132812 20.902344 96.136719 20.570312 96.175781 C 20.234375 96.210938 19.910156 96.289062 19.59375 96.398438 C 19.277344 96.511719 18.976562 96.65625 18.691406 96.835938 C 18.40625 97.015625 18.144531 97.222656 17.910156 97.460938 C 17.671875 97.699219 17.460938 97.960938 17.285156 98.246094 C 17.105469 98.53125 16.960938 98.832031 16.847656 99.148438 C 16.738281 99.464844 16.664062 99.789062 16.625 100.125 C 16.585938 100.457031 16.585938 100.792969 16.621094 101.125 C 16.660156 101.460938 16.730469 101.785156 16.84375 102.105469 C 16.953125 102.421875 17.09375 102.722656 17.273438 103.007812 C 17.449219 103.292969 17.65625 103.554688 17.894531 103.792969 C 18.128906 104.035156 18.390625 104.242188 18.671875 104.421875 C 18.957031 104.605469 19.257812 104.75 19.574219 104.863281 C 19.890625 104.976562 20.214844 105.054688 20.546875 105.09375 C 20.882812 105.132812 21.214844 105.136719 21.550781 105.101562 C 21.882812 105.066406 22.210938 104.996094 22.527344 104.886719 L 49.835938 132.191406 L 90.558594 132.191406 L 90.558594 128.210938 L 51.480469 128.210938 Z M 25.339844 102.070312 " fill-opacity="1" fill-rule="nonzero"/><path fill="#25197b" d="M 9.175781 135.621094 C 9.285156 135.300781 9.355469 134.976562 9.390625 134.640625 C 9.425781 134.304688 9.421875 133.972656 9.382812 133.640625 C 9.339844 133.304688 9.265625 132.980469 9.152344 132.664062 C 9.039062 132.347656 8.890625 132.046875 8.710938 131.765625 C 8.527344 131.480469 8.320312 131.222656 8.078125 130.984375 C 7.839844 130.75 7.578125 130.542969 7.292969 130.367188 C 7.007812 130.1875 6.707031 130.042969 6.386719 129.933594 C 6.070312 129.824219 5.746094 129.753906 5.410156 129.714844 C 5.078125 129.679688 4.742188 129.679688 4.410156 129.71875 C 4.074219 129.757812 3.75 129.832031 3.433594 129.945312 C 3.117188 130.054688 2.816406 130.199219 2.53125 130.378906 C 2.246094 130.558594 1.984375 130.765625 1.746094 131.003906 C 1.511719 131.242188 1.300781 131.503906 1.121094 131.789062 C 0.945312 132.070312 0.796875 132.371094 0.6875 132.691406 C 0.574219 133.007812 0.5 133.332031 0.460938 133.664062 C 0.421875 134 0.421875 134.332031 0.457031 134.667969 C 0.496094 135 0.566406 135.328125 0.675781 135.644531 C 0.789062 135.964844 0.929688 136.265625 1.109375 136.550781 C 1.285156 136.835938 1.492188 137.097656 1.726562 137.335938 C 1.964844 137.574219 2.222656 137.785156 2.507812 137.964844 C 2.789062 138.148438 3.089844 138.292969 3.40625 138.40625 C 3.722656 138.519531 4.046875 138.597656 4.382812 138.640625 C 4.714844 138.679688 5.050781 138.683594 5.382812 138.648438 C 5.71875 138.613281 6.042969 138.542969 6.363281 138.433594 L 16.085938 148.15625 L 90.558594 148.15625 L 90.558594 144.175781 L 17.734375 144.175781 Z M 9.175781 135.621094 " fill-opacity="1" fill-rule="nonzero"/><path fill="#25197b" d="M 60.632812 175.792969 C 60.097656 175.792969 59.578125 175.882812 59.074219 176.070312 C 58.574219 176.257812 58.117188 176.523438 57.710938 176.871094 C 57.304688 177.222656 56.96875 177.628906 56.707031 178.097656 C 56.449219 178.566406 56.277344 179.066406 56.195312 179.597656 C 56.113281 180.128906 56.125 180.65625 56.234375 181.179688 C 56.339844 181.707031 56.535156 182.195312 56.816406 182.652344 C 57.101562 183.109375 57.453125 183.5 57.878906 183.828125 C 58.300781 184.160156 58.769531 184.402344 59.28125 184.566406 C 59.792969 184.726562 60.316406 184.792969 60.851562 184.769531 C 61.386719 184.742188 61.902344 184.625 62.394531 184.414062 C 62.886719 184.203125 63.328125 183.914062 63.71875 183.546875 C 64.109375 183.175781 64.421875 182.753906 64.660156 182.273438 L 90.558594 182.273438 L 90.558594 178.289062 L 64.660156 178.289062 C 64.28125 177.523438 63.730469 176.917969 63.003906 176.464844 C 62.277344 176.015625 61.488281 175.792969 60.632812 175.792969 Z M 60.632812 175.792969 " fill-opacity="1" fill-rule="nonzero"/><path fill="#25197b" d="M 31.253906 159.285156 C 30.71875 159.285156 30.199219 159.375 29.695312 159.5625 C 29.191406 159.75 28.738281 160.015625 28.328125 160.363281 C 27.921875 160.714844 27.589844 161.125 27.328125 161.589844 C 27.066406 162.058594 26.894531 162.558594 26.8125 163.089844 C 26.734375 163.621094 26.746094 164.148438 26.851562 164.671875 C 26.960938 165.199219 27.15625 165.6875 27.4375 166.144531 C 27.722656 166.601562 28.074219 166.992188 28.496094 167.320312 C 28.921875 167.652344 29.386719 167.894531 29.898438 168.058594 C 30.410156 168.21875 30.933594 168.285156 31.46875 168.261719 C 32.007812 168.234375 32.519531 168.117188 33.015625 167.90625 C 33.507812 167.695312 33.949219 167.40625 34.339844 167.039062 C 34.726562 166.667969 35.042969 166.246094 35.28125 165.765625 L 90.558594 165.765625 L 90.558594 161.78125 L 35.28125 161.78125 C 34.902344 161.015625 34.347656 160.410156 33.625 159.957031 C 32.898438 159.507812 32.109375 159.285156 31.253906 159.285156 Z M 31.253906 159.285156 " fill-opacity="1" fill-rule="nonzero"/><path fill="#01e9fd" d="M 78.726562 79.175781 L 296.273438 79.175781 L 296.273438 296.71875 L 78.726562 296.71875 Z M 78.726562 79.175781 " fill-opacity="1" fill-rule="nonzero"/><path fill="#3945f2" d="M 90.59375 91.042969 L 284.40625 91.042969 L 284.40625 284.851562 L 90.59375 284.851562 Z M 90.59375 91.042969 " fill-opacity="1" fill-rule="nonzero"/><path fill="#01e9fd" d="M 160.902344 207.582031 L 155.207031 224.4375 L 139.695312 224.4375 L 164.476562 151.453125 L 184.300781 151.453125 L 210.152344 224.4375 L 193.5625 224.4375 L 187.566406 207.582031 Z M 184.167969 194.644531 C 178.992188 179.25 175.683594 169.402344 173.921875 162.84375 L 173.816406 162.84375 C 172.015625 170.039062 168.375 181.488281 164.21875 194.644531 Z M 184.167969 194.644531 " fill-opacity="1" fill-rule="nonzero"/><path fill="#01e9fd" d="M 219.523438 151.453125 L 235.304688 151.453125 L 235.304688 224.4375 L 219.523438 224.4375 Z M 219.523438 151.453125 " fill-opacity="1" fill-rule="nonzero"/><path fill="#25197b" d="M 110.089844 263.574219 L 264.910156 263.574219 L 264.910156 277.960938 L 110.089844 277.960938 Z M 110.089844 263.574219 " fill-opacity="1" fill-rule="nonzero"/><path fill="#25197b" d="M 110.089844 97.933594 L 264.910156 97.933594 L 264.910156 112.320312 L 110.089844 112.320312 Z M 110.089844 97.933594 " fill-opacity="1" fill-rule="nonzero"/><path fill="#25197b" d="M 263.160156 110.535156 L 277.546875 110.535156 L 277.546875 265.359375 L 263.160156 265.359375 Z M 263.160156 110.535156 " fill-opacity="1" fill-rule="nonzero"/><path fill="#25197b" d="M 97.453125 110.535156 L 111.839844 110.535156 L 111.839844 265.359375 L 97.453125 265.359375 Z M 97.453125 110.535156 " fill-opacity="1" fill-rule="nonzero"/><path fill="#01e9fd" d="M 270.140625 88.910156 L 286.570312 88.910156 L 286.570312 105.34375 L 270.140625 105.34375 Z M 270.140625 88.910156 " fill-opacity="1" fill-rule="nonzero"/><path fill="#01e9fd" d="M 270.140625 270.550781 L 286.570312 270.550781 L 286.570312 286.984375 L 270.140625 286.984375 Z M 270.140625 270.550781 " fill-opacity="1" fill-rule="nonzero"/><path fill="#01e9fd" d="M 88.429688 88.910156 L 104.863281 88.910156 L 104.863281 105.34375 L 88.429688 105.34375 Z M 88.429688 88.910156 " fill-opacity="1" fill-rule="nonzero"/><path fill="#01e9fd" d="M 88.429688 270.550781 L 104.863281 270.550781 L 104.863281 286.984375 L 88.429688 286.984375 Z M 88.429688 270.550781 " fill-opacity="1" fill-rule="nonzero"/><path fill="#25197b" d="M 255.433594 255.882812 L 119.566406 255.882812 L 119.566406 120.011719 L 255.433594 120.011719 Z M 123.8125 251.632812 L 251.1875 251.632812 L 251.1875 124.261719 L 123.8125 124.261719 Z M 123.8125 251.632812 " fill-opacity="1" fill-rule="nonzero"/></svg>